<svg width="24" height="24" viewBox="0 0 24 24" fill="none" xmlns="http://www.w3.org/2000/svg">
<path d="M7.22287 12.8568L7.69287 9.30583L3.61987 6.46383L7.34387 7.72683L8.22187 6.37283L11.4329 4.37183L18.5129 8.28783L18.8769 14.2678L15.7289 18.6738L13.2329 19.0578L14.5289 16.6878V14.3978L13.5889 12.6128L12.6329 11.9788L11.1689 13.5008V15.1038L10.0269 16.1788L8.57287 16.3558L7.92987 16.7258L6.87387 16.3898L6.43687 14.7958L7.22387 13.6778L7.22287 12.8568Z" fill="white"/>
<path d="M13.7308 6.43089C12.9538 6.27289 12.1038 6.31589 12.1038 6.31589C12.1038 6.31589 11.8258 7.61189 10.0978 7.94789C10.1118 7.94789 12.3818 8.72989 13.7308 6.43089ZM14.4368 18.1899C15.3835 17.4546 16.0722 16.4377 16.4038 15.2859C16.4138 15.2379 16.5488 15.1659 16.6338 15.1089C16.7788 15.0219 16.9278 14.9449 16.9558 14.8299C17.0152 14.4832 17.0442 14.1346 17.0428 13.7839C17.0428 13.6489 16.9128 13.5199 16.7828 13.3849C16.6778 13.2989 16.5768 13.1939 16.5768 13.1219C16.4351 11.7817 15.8148 10.5376 14.8298 9.61789L14.7298 9.71389C15.6865 10.615 16.2889 11.829 16.4278 13.1359C16.4428 13.2509 16.5628 13.3709 16.6778 13.4909C16.7838 13.5779 16.8978 13.7109 16.8978 13.7699C16.8978 14.1059 16.8692 14.4449 16.8118 14.7869C16.7978 14.8449 16.6688 14.9019 16.5618 14.9599C16.4188 15.0369 16.2848 15.1089 16.2558 15.2289C15.8996 16.4785 15.1079 17.5594 14.0238 18.2759C14.2158 17.8639 14.8158 16.5249 15.1368 15.8479L15.0798 13.6639L13.2178 11.8539L12.1618 11.9989L11.0098 13.8849C11.0098 13.8849 11.5468 14.5809 10.7898 15.3869C10.0398 16.1839 9.45485 16.3609 9.45485 16.3609L8.91185 16.0679C9.07085 15.8619 9.39185 15.5499 9.64185 15.3479C10.0688 14.9929 10.4918 14.9649 10.4918 14.5809C10.5058 13.7839 9.65585 14.0049 9.65585 14.0049L9.34885 14.2969L9.21885 15.3869L8.57185 16.2029L8.49985 16.1829L7.44385 15.9489C7.44385 15.9489 8.09185 15.6129 8.19285 15.2289C8.29285 14.8589 7.98585 13.6349 7.97185 13.5629C7.98585 13.5769 8.27885 13.8269 8.41285 14.2399C8.56285 13.7719 8.77285 13.3259 9.04285 12.9149C9.46592 12.6807 9.89127 12.4507 10.3188 12.2249L9.91985 13.2649L10.2128 13.1069L10.9188 11.3699C10.9188 11.3699 11.6088 11.0289 12.1188 11.0289C13.0448 11.0149 14.4078 9.87689 13.7938 7.84689C13.9658 7.91889 17.0138 9.45489 17.5418 12.4539C17.9398 14.7729 16.6348 16.9369 14.4368 18.1899Z" fill="#94A6C3"/>
<path d="M10.9479 6.7578C11.2839 6.3598 11.1549 5.7688 11.1549 5.7688L10.1709 7.2288C10.1559 7.2288 10.5259 7.2428 10.9479 6.7578ZM7.65093 14.7248L7.76593 14.1398C7.76593 14.1398 7.28593 14.9938 7.23793 15.1098C7.19493 15.2428 7.27193 15.4788 7.45893 15.4638C7.65093 15.4498 7.88593 15.1668 7.88593 14.9598C7.88593 14.6958 7.65093 14.7248 7.65093 14.7248Z" fill="#1B314F"/>
<path d="M16.3569 5.35488C16.3569 5.35488 17.0909 5.38488 17.8489 5.47488C16.1359 4.12188 14.5089 3.72388 13.1939 3.72388C11.3699 3.72388 10.1419 4.47188 10.0689 4.51588L10.6409 3.60388C10.6409 3.60388 8.35589 3.38288 7.54989 5.80988C7.39527 5.39693 7.26177 4.97639 7.14989 4.54988C7.14989 4.54988 5.96489 5.59188 6.52189 7.33388C5.39674 6.91801 4.267 6.51465 3.13289 6.12388C3.03689 6.10988 3.00289 6.15388 3.00289 6.15388C3.00289 6.15388 2.97489 6.20088 3.06089 6.27388C3.22389 6.40288 6.30089 8.68688 6.97789 9.12888C6.82789 9.65688 6.82789 9.91088 6.97789 10.1609C7.17889 10.4969 7.19389 10.6739 7.16989 10.9289C7.13589 11.1789 6.87189 13.3429 6.81389 13.6069C6.75589 13.8709 6.14189 14.8169 6.17089 15.0949C6.19989 15.3729 6.57889 16.5679 6.91489 16.7019C7.16489 16.7889 7.77889 16.9809 8.19189 16.9809C8.33589 16.9809 8.46989 16.9519 8.52789 16.8939C8.77789 16.6689 8.84889 16.6259 9.02689 16.6259H9.07489C9.14189 16.6259 9.23289 16.6399 9.33489 16.6399C9.57489 16.6399 9.87589 16.5969 10.0969 16.3899C10.4189 16.0689 10.9759 15.6229 11.1529 15.4209C11.3729 15.1379 11.4889 14.7539 11.4309 14.3749C11.3839 14.0189 11.5749 13.7119 11.7959 13.3999L12.5879 12.3679C13.0942 12.7413 13.5062 13.2277 13.7913 13.7885C14.0764 14.3492 14.2266 14.9688 14.2299 15.5979C14.2299 17.9019 12.2379 19.7549 9.77589 19.7549C9.39189 19.7549 9.02689 19.7069 8.66189 19.6209C9.78989 20.0189 10.7399 20.1479 11.5179 20.1479C13.1739 20.1479 14.0569 19.5479 14.0569 19.5479C14.0569 19.5479 13.7449 19.9469 13.2509 20.4029H13.2649C16.0009 20.0189 17.3399 17.7529 17.3399 17.7529C17.3399 17.7529 17.2339 18.4879 17.0999 18.9869C20.7519 16.2319 20.1379 12.7859 20.1239 12.6709C20.1519 12.7139 20.5169 13.1509 20.7089 13.3909C21.2939 7.32388 16.3559 5.36088 16.3559 5.36088L16.3569 5.35488ZM10.7399 15.0499C10.6829 15.1219 10.4329 15.3429 10.2599 15.5059C10.0829 15.6689 9.88989 15.8329 9.74689 15.9759C9.68622 16.0379 9.56789 16.0685 9.39189 16.0679H8.95489C9.17489 15.7699 9.81889 15.0929 10.0399 14.9449C10.3039 14.7719 10.4329 14.5949 10.2749 14.2829C10.1119 13.9749 9.68489 14.0469 9.68489 14.0469C9.68489 14.0469 9.93489 13.9469 10.1549 13.9469C9.87589 13.8699 9.52589 13.9469 9.36289 14.1049C9.18989 14.2679 9.21889 14.8449 9.14289 15.2089C9.06989 15.5929 8.82089 15.7849 8.44089 16.1389C8.23489 16.3319 8.09089 16.3889 7.97089 16.3889C7.71631 16.3463 7.46576 16.2824 7.22189 16.1979C7.07789 16.0059 6.85789 15.3719 6.79989 15.1079C6.84789 14.9639 7.01989 14.6519 7.10689 14.4749C7.28489 14.1389 7.38589 13.9469 7.41389 13.7689C7.47189 13.5189 7.66389 11.9689 7.73589 11.3209C7.92789 11.5759 8.19189 11.9839 8.13389 12.2519C8.55689 11.6479 8.24889 11.0569 8.10489 10.8219C7.89489 10.4559 7.83689 10.0219 7.94189 9.61188C8.08589 9.11288 8.61389 7.72588 8.61389 7.72588C8.61389 7.72588 8.79189 8.03788 9.04589 7.98088C9.29089 7.91788 11.3019 4.88488 11.3019 4.88488C11.3019 4.88488 11.8389 6.07988 11.2679 6.94888C10.6829 7.81288 10.1119 7.98088 10.1119 7.98088C10.1119 7.98088 10.9179 8.12488 11.6669 7.58188C11.9739 8.30188 12.2669 9.05588 12.2809 9.15688C12.2329 9.26188 11.6519 10.6729 11.5899 10.7649C11.5609 10.7929 11.3599 10.8509 11.2099 10.8799C10.9609 10.9559 10.8169 10.9999 10.7549 11.0429C10.6539 11.1289 10.1839 12.4299 9.96789 13.0589C9.67223 13.1369 9.41581 13.3213 9.24789 13.5769C9.34789 13.5049 9.66989 13.4569 9.90489 13.4329C10.1119 13.4129 10.7399 13.7549 10.9039 14.3879V14.4169C10.925 14.6406 10.8669 14.8646 10.7399 15.0499ZM9.36289 15.2279C9.49689 15.0359 9.48289 14.7099 9.49689 14.6039C9.51189 14.5079 9.54089 14.3159 9.65589 14.2829C9.77589 14.2529 10.0539 14.2969 10.0539 14.5029C10.0539 14.6949 9.84789 14.7429 9.70389 14.8729L9.36789 15.2279H9.36289ZM15.2129 12.4109C15.3406 11.776 15.3797 11.1265 15.3289 10.4809C15.9038 11.2574 16.2586 12.1746 16.3559 13.1359C16.3699 13.2509 16.4859 13.3709 16.6059 13.4909C16.7059 13.5769 16.8259 13.6969 16.8259 13.7689C16.8259 14.1055 16.7959 14.4445 16.7359 14.7859C16.7209 14.8299 16.5909 14.9019 16.4859 14.9589C16.3409 15.0359 16.2069 15.1079 16.1779 15.2279C15.8532 16.3572 15.1755 17.3528 14.2439 18.0689C15.6069 16.6389 16.2679 14.2829 15.2129 12.4109ZM14.2879 18.2039C15.256 17.4671 15.9614 16.4384 16.2999 15.2699C16.3149 15.2219 16.4439 15.1499 16.5359 15.0919C16.6789 15.0199 16.8229 14.9289 16.8559 14.8139C16.9159 14.4679 16.9449 14.1192 16.9429 13.7679C16.9429 13.6339 16.8129 13.5039 16.6789 13.3699C16.6069 13.2829 16.4869 13.1779 16.4869 13.1059C16.3685 12.0354 15.9528 11.0194 15.2869 10.1729C14.9949 8.40688 13.8239 7.85988 13.7949 7.84488C13.8239 7.89288 14.5819 8.99688 14.0589 10.2929C13.5159 11.6029 12.1189 11.3969 12.0049 11.4109C11.8899 11.4109 11.4289 12.0009 10.8619 13.0909C10.6243 13.0181 10.373 13.0017 10.1279 13.0429C10.3432 12.4075 10.5879 11.7835 10.8619 11.1709C10.8919 11.1469 11.1119 11.0849 11.2559 11.0409C11.5339 10.9699 11.6689 10.9209 11.7119 10.8639C11.7409 10.8209 11.8899 10.4799 12.0339 10.1299C12.1679 10.1299 12.5039 10.1009 12.5329 10.0819C12.5609 10.0529 12.8399 9.33288 12.8399 9.24688C12.8399 9.16988 12.2689 7.74488 12.0479 7.19688C12.1526 7.07621 12.2549 6.93388 12.3549 6.76988C13.1973 6.36584 14.1221 6.16303 15.0563 6.17742C15.9905 6.19182 16.9086 6.42303 17.7382 6.85283C18.5678 7.28263 19.2862 7.89926 19.8368 8.65412C20.3873 9.40897 20.755 10.2814 20.9109 11.2026C21.0667 12.1239 21.0064 13.0687 20.7347 13.9626C20.4631 14.8566 19.9875 15.6752 19.3454 16.3539C18.7033 17.0327 17.9124 17.553 17.0349 17.8739C16.1574 18.1947 15.2173 18.3073 14.2889 18.2029" fill="#1B314F"/>
<path d="M10.39 10.2458C10.669 9.92484 10.525 9.31984 10.007 9.21384C10.141 8.90684 10.333 8.28784 10.333 8.28784C10.333 8.28784 8.83597 10.6448 8.70097 10.6878C8.57097 10.7358 8.44197 10.2178 8.44197 10.2178C8.16397 11.2928 8.91197 11.4408 8.99897 11.1008C9.52088 10.9231 9.99547 10.631 10.39 10.2458Z" fill="#1B314F"/>
<path d="M9.11377 10.822L9.88177 9.51196C9.88177 9.51196 10.3138 9.73196 10.0978 10.088C9.82591 10.4 9.49039 10.6503 9.11377 10.822Z" fill="#FFD923"/>
<path d="M18.5398 16.8938C18.3188 17.1818 18.0698 17.4938 17.7768 17.7908C19.6668 14.1388 17.8628 10.7928 17.7908 10.6588C17.9248 10.7928 18.0548 10.9418 18.1748 11.0718C18.8858 11.8576 19.3091 12.8614 19.3754 13.919C19.4417 14.9766 19.1471 16.0254 18.5398 16.8938ZM20.2958 12.1898C19.6487 10.2595 18.3552 8.61175 16.6338 7.52483C15.3718 6.7 13.889 6.27803 12.3818 6.31483H12.3528C12.4241 6.28745 12.4982 6.26833 12.5738 6.25783C13.1045 6.09455 13.6492 5.98073 14.2008 5.91783C15.7558 5.69583 17.3208 6.22383 18.3908 7.35683L18.4248 7.39083C19.6395 8.69261 20.3091 10.4104 20.2958 12.1908M16.1638 4.89983C13.9798 4.48683 12.5738 4.69283 11.5608 5.07683C11.5023 4.88944 11.4301 4.70661 11.3448 4.52983C11.0328 4.89983 10.7118 5.34583 10.5048 5.62383C9.94882 6.00783 9.71782 6.37283 9.71782 6.37283C9.88052 5.8293 10.1911 5.3417 10.6149 4.96451C11.0388 4.58731 11.5591 4.33537 12.1178 4.23683C12.4666 4.17708 12.82 4.1483 13.1738 4.15083C14.2144 4.17045 15.2369 4.42658 16.1638 4.89983ZM8.08582 7.72583C6.37282 7.66983 6.94382 5.66283 6.97782 5.54783C6.97782 5.56183 7.09282 7.12683 8.09082 7.72583H8.08582ZM9.77582 4.12183C8.45582 4.91383 8.71982 6.81483 8.71982 6.81483C7.45782 4.88483 9.66982 4.16483 9.77582 4.12183Z" fill="#D82122"/>
<path d="M7.6068 8.25977C7.6928 8.33077 7.7798 8.46577 7.6788 8.65777C7.6208 8.75777 7.5348 8.74377 7.4008 8.68577C6.65664 8.26493 5.92815 7.81696 5.2168 7.34277C6.01213 7.61677 6.79913 7.91244 7.5778 8.22977L7.6068 8.25977Z" fill="white"/>
</svg>
