<svg width="122" height="120" viewBox="0 0 122 120" fill="none" xmlns="http://www.w3.org/2000/svg">
<rect width="120" height="120" transform="translate(1)" fill="#171812"/>
<path d="M69.743 35.7269L57.4605 38.7977L75.8553 47.1591L88.1381 44.0883L69.743 35.7269ZM55.2234 40.2109V45.6469L74.6427 54.4741V49.0379L55.2234 40.2109ZM90.375 45.8094L76.8551 49.1894V57.0556C74.233 57.7107 71.611 58.3666 68.989 59.0221V66.8882C66.3669 67.5433 63.7449 68.1992 61.1229 68.8547V76.7209C58.5008 77.3759 55.8789 78.0318 53.2568 78.6873V84.2732L90.375 74.9934V45.8094ZM54.0107 47.5261L49.5942 48.6303L67.9893 56.9917L72.406 55.8874L54.0107 47.5261ZM47.3573 50.0436V55.4796L66.7766 64.3067V58.8706L47.3573 50.0436ZM46.1448 57.3587L41.7281 58.4629L60.1231 66.8243L64.5399 65.7201L46.1448 57.3587ZM39.491 59.8762V65.3122L58.9106 74.1393V68.7032L39.491 59.8762ZM38.2785 67.1914L33.8621 68.2957L52.257 76.6569L56.6737 75.5527L38.2785 67.1914ZM31.625 69.7088V75.1447L51.0445 83.9718V78.5358L31.625 69.7088Z" fill="#D8FE53"/>
<path d="M22.3999 120L0.399904 98L0.399902 120L22.3999 120Z" fill="#D8FE53"/>
<path d="M99.3999 0L121.4 22L121.4 -3.8466e-06L99.3999 0Z" fill="#D8FE53"/>
</svg>
