<svg width="162" height="48" viewBox="0 0 162 48" fill="none" xmlns="http://www.w3.org/2000/svg">
<g clip-path="url(#clip0_103_679)">
<mask id="mask0_103_679" style="mask-type:luminance" maskUnits="userSpaceOnUse" x="0" y="0" width="162" height="48">
<path d="M161.28 0H0V48H161.28V0Z" fill="white"/>
</mask>
<g mask="url(#mask0_103_679)">
<path d="M155.542 48H5.65077C2.53269 48 0 45.4464 0 42.3204V5.6724C0 2.544 2.53509 0 5.65077 0H155.542C158.655 0 161.28 2.544 161.28 5.6712V42.3192C161.28 45.4464 158.655 48 155.542 48Z" fill="white"/>
<path d="M160.124 42.3217C160.124 44.8609 158.076 46.9177 155.543 46.9177H5.64818C3.11788 46.9177 1.06305 44.8609 1.06305 42.3217V5.67008C1.06305 3.13208 3.11788 1.06808 5.65057 1.06808H155.541C158.074 1.06808 160.122 3.13208 160.122 5.67008L160.124 42.3217Z" fill="white"/>
<path d="M35.993 23.7405C35.9571 19.8729 39.1468 17.9925 39.2902 17.9037C37.4863 15.2601 34.6884 14.8989 33.7052 14.8701C31.3552 14.6217 29.0758 16.2825 27.8787 16.2825C26.6578 16.2825 24.8145 14.8929 22.8277 14.9337C20.2711 14.9733 17.8794 16.4601 16.5676 18.7689C13.8605 23.4765 15.8795 30.3945 18.4731 34.2009C19.7706 36.0633 21.2866 38.1441 23.2709 38.0709C25.2111 37.9905 25.935 36.8277 28.2789 36.8277C30.6003 36.8277 31.2812 38.0721 33.305 38.0253C35.3872 37.9917 36.6978 36.1534 37.9522 34.2729C39.4503 32.1369 40.0524 30.0345 40.0763 29.9265C40.0285 29.9097 36.03 28.3785 35.9906 23.7417L35.993 23.7405ZM32.17 12.3669C33.2141 11.0553 33.9285 9.27094 33.7302 7.45898C32.219 7.52738 30.3291 8.51018 29.2407 9.79294C28.2777 10.9245 27.4176 12.7773 27.6399 14.5209C29.3362 14.6469 31.0804 13.6593 32.17 12.3681V12.3669Z" fill="#121312"/>
<path d="M64.0877 37.8047H61.3759L59.8885 33.1127H54.7227L53.3071 37.8047H50.6668L55.7848 21.8351H58.9459L64.0889 37.8047H64.0877ZM59.4404 31.1447L58.0964 26.9759C57.9531 26.5499 57.6879 25.5479 57.296 23.9675H57.2482C57.0906 24.6467 56.8385 25.6499 56.4921 26.9759L55.172 31.1459H59.4404V31.1447ZM77.2494 31.9055C77.2494 33.8639 76.7237 35.4119 75.6688 36.5495C74.725 37.5599 73.5518 38.0651 72.1529 38.0651C70.6429 38.0651 69.5581 37.5215 68.8975 36.4331H68.8496V42.4979H66.3038V30.0803C66.3038 28.8491 66.2715 27.5843 66.2083 26.2883H68.4494L68.5929 28.1147H68.6406C69.4888 26.7383 70.7791 26.0507 72.5078 26.0507C73.8601 26.0507 74.989 26.5883 75.8922 27.6623C76.7978 28.7375 77.2494 30.1511 77.2494 31.9043V31.9055ZM74.6546 31.9991C74.6546 30.8783 74.4037 29.9543 73.8995 29.2271C73.35 28.4687 72.6093 28.0895 71.6823 28.0895C71.0538 28.0895 70.4828 28.3007 69.9739 28.7171C69.4601 29.1371 69.1257 29.6867 68.9703 30.3659C68.8915 30.6827 68.8508 30.9419 68.8508 31.1459V33.0659C68.8508 33.9035 69.1077 34.6103 69.619 35.1875C70.1304 35.7647 70.7946 36.0515 71.6117 36.0515C72.571 36.0515 73.3178 35.6795 73.8518 34.9391C74.387 34.1951 74.6546 33.2171 74.6546 31.9991ZM90.4363 31.9055C90.4363 33.8639 89.9083 35.4119 88.8531 36.5495C87.9094 37.5599 86.7386 38.0651 85.3408 38.0651C83.8296 38.0651 82.7449 37.5215 82.0854 36.4331H82.0376V42.4979H79.4906V30.0803C79.4906 28.8491 79.4583 27.5843 79.395 26.2883H81.6362L81.7796 28.1147H81.8273C82.6755 26.7383 83.9634 26.0507 85.6945 26.0507C87.0471 26.0507 88.176 26.5883 89.0811 27.6623C89.9837 28.7375 90.4363 30.1511 90.4363 31.9043V31.9055ZM87.84 31.9991C87.84 30.8783 87.5888 29.9543 87.084 29.2271C86.5346 28.4687 85.7957 28.0895 84.8678 28.0895C84.237 28.0895 83.6672 28.3007 83.1558 28.7171C82.6445 29.1371 82.3112 29.6867 82.1546 30.3659C82.0758 30.6827 82.0352 30.9419 82.0352 31.1459V33.0659C82.0352 33.9035 82.2908 34.6103 82.7998 35.1875C83.3111 35.7635 83.9753 36.0515 84.7949 36.0515C85.7546 36.0515 86.5011 35.6795 87.0351 34.9391C87.57 34.1951 87.8374 33.2171 87.8374 31.9991H87.84ZM105.178 33.3263C105.178 34.6847 104.708 35.7899 103.765 36.6431C102.729 37.5755 101.287 38.0411 99.4346 38.0411C97.7237 38.0411 96.3523 37.7111 95.3126 37.0475L95.904 34.9151C97.0226 35.5943 98.2491 35.9351 99.5863 35.9351C100.545 35.9351 101.291 35.7167 101.827 35.2823C102.361 34.8503 102.627 34.2659 102.627 33.5387C102.627 32.8907 102.408 32.3447 101.967 31.9019C101.529 31.4579 100.797 31.0475 99.774 30.6659C96.99 29.6243 95.5997 28.0979 95.5997 26.0879C95.5997 24.7751 96.0866 23.6999 97.0628 22.8599C98.0357 22.0223 99.3326 21.6035 100.955 21.6035C102.4 21.6035 103.604 21.8579 104.563 22.3631L103.926 24.4487C103.03 23.9603 102.017 23.7167 100.883 23.7167C99.9874 23.7167 99.2871 23.9375 98.7857 24.3791C98.3614 24.7751 98.1488 25.2551 98.1488 25.8251C98.1488 26.4563 98.3914 26.9771 98.8774 27.3887C99.3026 27.7679 100.072 28.1783 101.192 28.6211C102.56 29.1731 103.564 29.8211 104.211 30.5627C104.856 31.3019 105.178 32.2271 105.178 33.3311V33.3263ZM113.598 28.2095H110.791V33.8015C110.791 35.2223 111.285 35.9327 112.277 35.9327C112.731 35.9327 113.109 35.8931 113.409 35.8127L113.478 37.7567C112.976 37.9451 112.315 38.0399 111.497 38.0399C110.491 38.0399 109.705 37.7315 109.137 37.1159C108.573 36.4991 108.289 35.4647 108.289 34.0115V28.2071H106.617V26.2871H108.289V24.1799L110.79 23.4203V26.2883H113.597V28.2083L113.598 28.2095ZM126.264 31.9523C126.264 33.7223 125.763 35.1755 124.755 36.3119C123.7 37.4819 122.301 38.0639 120.555 38.0639C118.874 38.0639 117.535 37.5047 116.536 36.3839C115.537 35.2631 115.038 33.8483 115.038 32.1431C115.038 30.3587 115.551 28.8971 116.583 27.7607C117.61 26.6231 119 26.0543 120.745 26.0543C122.426 26.0543 123.779 26.6147 124.801 27.7367C125.778 28.8251 126.266 30.2303 126.266 31.9523H126.264ZM123.624 32.0363C123.624 30.9731 123.397 30.0623 122.939 29.3027C122.405 28.3823 121.642 27.9227 120.653 27.9227C119.629 27.9227 118.851 28.3835 118.317 29.3027C117.86 30.0623 117.634 30.9875 117.634 32.0819C117.634 33.1439 117.861 34.0547 118.317 34.8131C118.867 35.7323 119.637 36.1907 120.63 36.1907C121.603 36.1907 122.366 35.7227 122.917 34.7891C123.387 34.0151 123.621 33.0947 123.621 32.0339L123.624 32.0363ZM134.543 28.5395C134.292 28.4915 134.024 28.4675 133.743 28.4675C132.847 28.4675 132.153 28.8083 131.664 29.4875C131.241 30.0875 131.029 30.8471 131.029 31.7627V37.8035H128.484L128.508 29.9147C128.508 28.5875 128.475 27.3791 128.412 26.2907H130.629L130.723 28.4927H130.794C131.062 27.7367 131.487 27.1247 132.067 26.6687C132.634 26.2571 133.247 26.0519 133.906 26.0519C134.143 26.0519 134.355 26.0699 134.544 26.0999V28.5395H134.543ZM145.935 31.5023C145.935 31.9607 145.905 32.3471 145.842 32.6627H138.201C138.231 33.7991 138.6 34.6691 139.31 35.2691C139.955 35.8055 140.787 36.0731 141.809 36.0731C142.941 36.0731 143.972 35.8931 144.901 35.5295L145.3 37.3055C144.215 37.7795 142.935 38.0159 141.457 38.0159C139.679 38.0159 138.284 37.4903 137.268 36.4403C136.257 35.3891 135.748 33.9803 135.748 32.2103C135.748 30.4739 136.221 29.0279 137.165 27.8747C138.154 26.6435 139.491 26.0267 141.174 26.0267C142.825 26.0267 144.076 26.6435 144.925 27.8747C145.598 28.8527 145.935 30.0623 145.935 31.4987V31.5023ZM143.507 30.8387C143.523 30.0791 143.357 29.4227 143.013 28.8707C142.57 28.1591 141.893 27.8027 140.981 27.8027C140.149 27.8027 139.471 28.1507 138.954 28.8467C138.53 29.3987 138.278 30.0635 138.201 30.8363H143.505L143.507 30.8387Z" fill="#121312"/>
<path d="M58.5982 12.0123C58.5982 13.4235 58.1765 14.4867 57.3343 15.2007C56.5541 15.8607 55.4467 16.1895 54.0095 16.1895C53.2963 16.1895 52.687 16.1595 52.1768 16.0971V8.38106C52.8423 8.27306 53.5591 8.21666 54.3332 8.21666C55.7024 8.21666 56.7345 8.51666 57.4275 9.11305C58.2075 9.78865 58.5982 10.7547 58.5982 12.0123ZM57.2781 12.0459C57.2781 11.1303 57.0368 10.4283 56.5542 9.93865C56.0703 9.45025 55.3654 9.20665 54.4372 9.20665C54.0429 9.20665 53.7085 9.23065 53.4289 9.28705V15.1527C53.5842 15.1767 53.865 15.1887 54.2747 15.1887C55.2328 15.1887 55.9712 14.9199 56.4932 14.3847C57.0152 13.8495 57.2757 13.0695 57.2757 12.0447L57.2781 12.0459ZM65.5989 13.2447C65.5989 14.1147 65.3504 14.8287 64.8559 15.3867C64.3374 15.9627 63.6493 16.2483 62.7927 16.2483C61.9684 16.2483 61.3089 15.9723 60.8179 15.4203C60.3281 14.8707 60.0832 14.1759 60.0832 13.3383C60.0832 12.4623 60.3341 11.7423 60.8418 11.1855C61.3496 10.6287 62.0293 10.3491 62.8871 10.3491C63.7114 10.3491 64.3768 10.6251 64.8798 11.1747C65.3576 11.7111 65.5966 12.4023 65.5966 13.2471L65.5989 13.2447ZM64.2992 13.2855C64.2992 12.7647 64.1869 12.3171 63.9647 11.9439C63.7018 11.4927 63.3267 11.2671 62.8417 11.2671C62.3375 11.2671 61.9552 11.4927 61.6924 11.9439C61.4678 12.3159 61.3579 12.7719 61.3579 13.3095C61.3579 13.8315 61.469 14.2791 61.6924 14.6535C61.9636 15.1035 62.3411 15.3291 62.8274 15.3291C63.3052 15.3291 63.6815 15.1011 63.9503 14.6403C64.1833 14.2587 64.2992 13.8075 64.2992 13.2843V13.2855ZM74.9831 10.4643L73.2209 16.1199H72.074L71.3453 13.6635C71.159 13.0515 71.0084 12.4395 70.8914 11.8359H70.8675C70.76 12.4575 70.6094 13.0659 70.4159 13.6635L69.6393 16.1199H68.4805L66.8235 10.4643H68.1102L68.7469 13.1523C68.9022 13.7883 69.0277 14.3943 69.1292 14.9679H69.1531C69.245 14.4951 69.3992 13.8927 69.6166 13.1643L70.417 10.4643H71.4361L72.2007 13.1067C72.3871 13.7511 72.5376 14.3715 72.6547 14.9691H72.6881C72.7718 14.3871 72.9008 13.7667 73.0704 13.1067L73.7538 10.4643H74.9843H74.9831ZM81.4737 16.1199H80.2217V12.8799C80.2217 11.8815 79.8441 11.3823 79.0868 11.3823C78.7164 11.3823 78.4154 11.5191 78.1824 11.7939C77.9518 12.0699 77.8359 12.3939 77.8359 12.7635V16.1187H76.5815V12.0795C76.5815 11.5827 76.5672 11.0439 76.5374 10.4595H77.6364L77.6961 11.3451H77.732C77.8754 11.0691 78.094 10.8435 78.3795 10.6611C78.7188 10.4511 79.0987 10.3443 79.5145 10.3443C80.0401 10.3443 80.4773 10.5147 80.825 10.8567C81.2575 11.2767 81.4737 11.9007 81.4737 12.7311V16.1187V16.1199ZM84.9263 16.1199H83.6743V7.86746H84.9263V16.1199ZM92.2971 13.2447C92.2971 14.1147 92.0503 14.8287 91.5566 15.3867C91.0371 15.9627 90.3497 16.2483 89.4926 16.2483C88.6646 16.2483 88.0063 15.9723 87.516 15.4203C87.0266 14.8707 86.7814 14.1759 86.7814 13.3383C86.7814 12.4623 87.0351 11.7423 87.5417 11.1855C88.0483 10.6287 88.7288 10.3491 89.5843 10.3491C90.4131 10.3491 91.0774 10.6251 91.5797 11.1747C92.0571 11.7111 92.2988 12.4023 92.2988 13.2471L92.2971 13.2447ZM90.9977 13.2855C90.9977 12.7647 90.8854 12.3171 90.6634 11.9439C90.4003 11.4927 90.0248 11.2671 89.5397 11.2671C89.0357 11.2671 88.6534 11.4927 88.3928 11.9439C88.1666 12.3159 88.056 12.7719 88.056 13.3095C88.056 13.8315 88.1683 14.2791 88.3911 14.6535C88.6628 15.1035 89.0408 15.3291 89.5286 15.3291C90.006 15.3291 90.3797 15.1011 90.6514 14.6403C90.8828 14.2587 90.9977 13.8075 90.9977 13.2843V13.2855ZM98.3571 16.1199H97.2334L97.1383 15.4683H97.1048C96.72 15.9879 96.1731 16.2483 95.46 16.2483C94.9277 16.2483 94.4983 16.0767 94.1743 15.7359C93.8794 15.4263 93.732 15.0399 93.732 14.5839C93.732 13.8927 94.0191 13.3659 94.596 12.9999C95.172 12.6363 95.982 12.4575 97.0243 12.4659V12.3603C97.0243 11.6163 96.6351 11.2443 95.8543 11.2443C95.2997 11.2443 94.8094 11.3835 94.3868 11.6619L94.1323 10.8363C94.656 10.5123 95.3031 10.3479 96.0643 10.3479C97.536 10.3479 98.274 11.1279 98.274 12.6879V14.7711C98.274 15.3351 98.3014 15.7851 98.3554 16.1187L98.3571 16.1199ZM97.0568 14.1759V13.3035C95.676 13.2795 94.9851 13.6599 94.9851 14.4435C94.9851 14.7387 95.064 14.9595 95.2243 15.1071C95.3871 15.2535 95.592 15.3267 95.8371 15.3267C96.1123 15.3267 96.3703 15.2391 96.6043 15.0651C96.8391 14.8899 96.984 14.6691 97.038 14.3955C97.05 14.3355 97.0577 14.2599 97.0577 14.1747L97.0568 14.1759ZM105.471 16.1199H104.36L104.301 15.2115H104.267C103.912 15.9027 103.307 16.2483 102.458 16.2483C101.78 16.2483 101.216 15.9807 100.767 15.4443C100.317 14.9079 100.095 14.2155 100.095 13.3623C100.095 12.4467 100.337 11.7063 100.824 11.1387C101.297 10.6107 101.875 10.3467 102.563 10.3467C103.321 10.3467 103.85 10.6023 104.152 11.1147H104.176V7.86746H105.428V14.5959C105.428 15.1479 105.442 15.6543 105.472 16.1199H105.471ZM104.175 13.7343V12.7911C104.175 12.6267 104.163 12.4947 104.139 12.3951C104.067 12.0915 103.917 11.8371 103.685 11.6319C103.453 11.4279 103.171 11.3235 102.849 11.3235C102.383 11.3235 102.016 11.5095 101.747 11.8827C101.481 12.2547 101.346 12.7323 101.346 13.3143C101.346 13.8735 101.474 14.3271 101.731 14.6763C102.002 15.0483 102.367 15.2355 102.825 15.2355C103.236 15.2355 103.565 15.0795 103.814 14.7699C104.055 14.4819 104.172 14.1375 104.172 13.7343H104.175ZM116.179 13.2447C116.179 14.1147 115.931 14.8287 115.438 15.3867C114.918 15.9627 114.231 16.2483 113.373 16.2483C112.55 16.2483 111.89 15.9723 111.398 15.4203C110.908 14.8707 110.663 14.1759 110.663 13.3383C110.663 12.4623 110.916 11.7423 111.423 11.1855C111.929 10.6287 112.611 10.3491 113.469 10.3491C114.294 10.3491 114.959 10.6251 115.461 11.1747C115.939 11.7111 116.178 12.4023 116.178 13.2471L116.179 13.2447ZM114.881 13.2855C114.881 12.7647 114.769 12.3171 114.547 11.9439C114.282 11.4927 113.909 11.2671 113.421 11.2671C112.92 11.2671 112.538 11.4927 112.275 11.9439C112.047 12.3159 111.938 12.7719 111.938 13.3095C111.938 13.8315 112.05 14.2791 112.272 14.6535C112.545 15.1035 112.922 15.3291 113.409 15.3291C113.888 15.3291 114.264 15.1011 114.532 14.6403C114.765 14.2587 114.881 13.8075 114.881 13.2843V13.2855ZM122.911 16.1199H121.66V12.8799C121.66 11.8815 121.282 11.3823 120.525 11.3823C120.153 11.3823 119.853 11.5191 119.62 11.7939C119.389 12.0687 119.271 12.3939 119.271 12.7635V16.1187H118.017V12.0795C118.017 11.5827 118.005 11.0439 117.975 10.4595H119.073L119.133 11.3451H119.167C119.313 11.0691 119.531 10.8435 119.816 10.6611C120.156 10.4511 120.535 10.3443 120.951 10.3443C121.476 10.3443 121.913 10.5147 122.261 10.8567C122.695 11.2767 122.909 11.9007 122.909 12.7311V16.1187L122.911 16.1199ZM131.337 11.4051H129.958V14.1531C129.958 14.8515 130.203 15.2007 130.687 15.2007C130.914 15.2007 131.099 15.1815 131.246 15.1407L131.278 16.0959C131.031 16.1895 130.705 16.2363 130.305 16.2363C129.811 16.2363 129.426 16.0851 129.147 15.7827C128.869 15.4803 128.729 14.9715 128.729 14.2587V11.4039H127.907V10.4643H128.731V9.42625L129.957 9.05425V10.4619H131.337V11.4051ZM137.965 16.1199H136.71V12.9039C136.71 11.8899 136.334 11.3823 135.578 11.3823C134.997 11.3823 134.601 11.6763 134.383 12.2643C134.347 12.3879 134.324 12.5403 134.324 12.7167V16.1187H133.074V7.86746H134.325V11.2755H134.349C134.743 10.6563 135.308 10.3467 136.04 10.3467C136.558 10.3467 136.988 10.5171 137.328 10.8591C137.753 11.2839 137.966 11.9175 137.966 12.7551V16.1187L137.965 16.1199ZM144.801 13.0239C144.801 13.2495 144.785 13.4391 144.754 13.5939H141C141.017 14.1531 141.196 14.5779 141.544 14.8743C141.861 15.1383 142.273 15.2703 142.774 15.2703C143.329 15.2703 143.835 15.1815 144.291 15.0027L144.488 15.8763C143.954 16.1091 143.325 16.2243 142.598 16.2243C141.725 16.2243 141.039 15.9675 140.543 15.4515C140.041 14.9355 139.795 14.2431 139.795 13.3755C139.795 12.5211 140.025 11.8107 140.49 11.2443C140.975 10.6395 141.631 10.3371 142.459 10.3371C143.269 10.3371 143.884 10.6395 144.299 11.2443C144.636 11.7243 144.801 12.3183 144.801 13.0239ZM143.607 12.6999C143.617 12.3255 143.535 12.0039 143.365 11.7327C143.147 11.3847 142.815 11.2083 142.368 11.2083C141.96 11.2083 141.627 11.3787 141.372 11.7207C141.164 11.9931 141.041 12.3183 141.002 12.6987H143.606L143.607 12.6999Z" fill="#121312"/>
</g>
</g>
<defs>
<clipPath id="clip0_103_679">
<rect width="162" height="48" fill="white"/>
</clipPath>
</defs>
</svg>
