<svg width="24" height="24" viewBox="0 0 24 24" fill="none" xmlns="http://www.w3.org/2000/svg">
<path fill-rule="evenodd" clip-rule="evenodd" d="M17.6571 5.59372C17.8558 5.59384 18.0464 5.67285 18.187 5.81339C18.3275 5.95393 18.4065 6.1445 18.4066 6.34325L18.4066 14.8285C18.4102 14.9292 18.3934 15.0295 18.3574 15.1236C18.3213 15.2176 18.2666 15.3034 18.1967 15.3759C18.1267 15.4483 18.0429 15.506 17.9502 15.5453C17.8575 15.5847 17.7578 15.605 17.6571 15.605C17.5564 15.605 17.4567 15.5847 17.364 15.5453C17.2713 15.506 17.1874 15.4483 17.1175 15.3759C17.0475 15.3034 16.9929 15.2176 16.9568 15.1236C16.9208 15.0295 16.904 14.9292 16.9076 14.8285L16.9076 8.15345L6.87371 18.1873C6.73306 18.3279 6.5423 18.407 6.34338 18.407C6.14447 18.407 5.95371 18.3279 5.81305 18.1873C5.6724 18.0466 5.59338 17.8559 5.59338 17.657C5.59338 17.4581 5.6724 17.2673 5.81305 17.1266L15.8469 7.09279L9.17181 7.09279C9.07116 7.09634 8.97082 7.07958 8.87678 7.04352C8.78274 7.00745 8.69693 6.95281 8.62446 6.88286C8.552 6.81291 8.49437 6.72908 8.455 6.63637C8.41564 6.54366 8.39535 6.44397 8.39535 6.34325C8.39535 6.24254 8.41564 6.14285 8.455 6.05014C8.49437 5.95743 8.552 5.8736 8.62446 5.80365C8.69693 5.7337 8.78274 5.67906 8.87678 5.64299C8.97082 5.60692 9.07116 5.59017 9.17181 5.59372L17.6571 5.59372Z" fill="#F8F8F5"/>
</svg>
