<svg width="1253" height="470" viewBox="0 0 1253 470" fill="none" xmlns="http://www.w3.org/2000/svg">
<path d="M1252.74 6C1252.74 2.96243 1250.27 0.5 1247.24 0.5H1197.74C1194.7 0.5 1192.24 2.96243 1192.24 6C1192.24 9.03757 1194.7 11.5 1197.74 11.5H1241.74V55.5C1241.74 58.5376 1244.2 61 1247.24 61C1250.27 61 1252.74 58.5376 1252.74 55.5V6ZM0.763672 339.991L0.604023 345.489C148.752 349.791 388.849 338.219 628.016 289.526C866.975 240.876 1106.04 154.971 1251.13 9.88909L1247.24 6L1243.35 2.11091C1100.64 144.822 864.257 230.204 625.822 278.747C387.596 327.248 148.353 338.775 0.923321 334.494L0.763672 339.991Z" fill="#3C5500"/>
<rect x="215.248" y="105.935" width="68.8724" height="363.334" fill="#4E690B" stroke="#3C5500"/>
<rect x="215.248" y="362.965" width="68.8724" height="106.304" fill="#FCFFE5" stroke="#3C5500"/>
<rect x="364.974" y="105.935" width="68.8724" height="363.334" fill="#4E690B" stroke="#3C5500"/>
<rect x="364.379" y="194.912" width="69.303" height="274.588" fill="#FCFFE5" stroke="#3C5500"/>
<rect x="514.701" y="105.935" width="68.8724" height="363.334" fill="#4E690B" stroke="#3C5500"/>
<rect x="514.827" y="242.718" width="69.303" height="226.782" fill="#FCFFE5" stroke="#3C5500"/>
<rect x="664.427" y="105.935" width="68.8724" height="363.334" fill="#4E690B" stroke="#3C5500"/>
<rect x="663.87" y="173.821" width="69.303" height="295.679" fill="#FCFFE5" stroke="#3C5500"/>
<rect x="814.153" y="105.935" width="68.8724" height="363.334" fill="#4E690B" stroke="#3C5500"/>
<rect x="814.318" y="266.621" width="69.303" height="202.879" fill="#FCFFE5" stroke="#3C5500"/>
<rect x="963.88" y="105.935" width="68.8724" height="363.334" fill="#4E690B" stroke="#3C5500"/>
<rect x="963.88" y="143.366" width="68.8724" height="325.903" fill="#FCFFE5" stroke="#3C5500"/>
</svg>
