<svg width="514" height="442" viewBox="0 0 514 442" fill="none" xmlns="http://www.w3.org/2000/svg">
<rect x="0.5" y="0.5" width="513" height="441" rx="15.5" fill="url(#paint0_linear_186_3781)"/>
<rect x="0.5" y="0.5" width="513" height="441" rx="15.5" stroke="#3D3E31"/>
<g clip-path="url(#clip0_186_3781)">
<path d="M302.102 124.355V242.509C302.102 245.228 304.304 247.432 307.022 247.432H366.062C368.779 247.432 370.982 245.228 370.982 242.509V124.355C370.982 121.636 368.779 119.432 366.062 119.432H307.022C304.304 119.432 302.102 121.636 302.102 124.355Z" fill="#4E690B"/>
<g filter="url(#filter0_i_186_3781)">
<path d="M305.382 125.996V240.868C305.382 242.68 306.85 244.15 308.662 244.15H364.422C366.233 244.15 367.702 242.68 367.702 240.868V125.996C367.702 124.183 366.233 122.714 364.422 122.714H308.662C306.85 122.714 305.382 124.183 305.382 125.996Z" fill="#213102"/>
</g>
<path d="M305.792 125.996V240.868C305.792 242.454 307.077 243.74 308.662 243.74H364.422C366.007 243.74 367.292 242.454 367.292 240.868V125.996C367.292 124.41 366.007 123.124 364.422 123.124H308.662C307.077 123.124 305.792 124.41 305.792 125.996Z" stroke="#D8FE53" stroke-width="0.5"/>
<path d="M364.422 239.227C364.422 238.321 363.687 237.586 362.782 237.586C361.876 237.586 361.142 238.321 361.142 239.227C361.142 240.133 361.876 240.868 362.782 240.868C363.687 240.868 364.422 240.133 364.422 239.227Z" fill="#4E690B"/>
<path d="M311.942 239.227C311.942 238.321 311.207 237.586 310.302 237.586C309.396 237.586 308.662 238.321 308.662 239.227C308.662 240.133 309.396 240.868 310.302 240.868C311.207 240.868 311.942 240.133 311.942 239.227Z" fill="#4E690B"/>
<path d="M311.942 127.638C311.942 126.731 311.207 125.997 310.302 125.997C309.396 125.997 308.662 126.731 308.662 127.638C308.662 128.544 309.396 129.279 310.302 129.279C311.207 129.279 311.942 128.544 311.942 127.638Z" fill="#4E690B"/>
<path d="M364.422 127.638C364.422 126.731 363.687 125.997 362.782 125.997C361.876 125.997 361.142 126.731 361.142 127.638C361.142 128.544 361.876 129.279 362.782 129.279C363.687 129.279 364.422 128.544 364.422 127.638Z" fill="#4E690B"/>
<path d="M297.182 226.099V231.022H302.102V226.099H297.182Z" fill="#4E690B"/>
<path d="M293.902 227.74V229.381H297.182V227.74H293.902Z" fill="#4E690B"/>
<path d="M293.902 216.253V217.894H297.182V216.253H293.902Z" fill="#4E690B"/>
<path d="M293.902 204.766V206.407H297.182V204.766H293.902Z" fill="#4E690B"/>
<path d="M293.902 193.279V194.92H297.182V193.279H293.902Z" fill="#4E690B"/>
<path d="M293.902 181.792V183.433H297.182V181.792H293.902Z" fill="#4E690B"/>
<path d="M293.902 170.305V171.946H297.182V170.305H293.902Z" fill="#4E690B"/>
<path d="M293.902 158.817V160.458H297.182V158.817H293.902Z" fill="#4E690B"/>
<path d="M293.902 147.33V148.971H297.182V147.33H293.902Z" fill="#4E690B"/>
<path d="M293.902 135.843V137.484H297.182V135.843H293.902Z" fill="#4E690B"/>
<path d="M297.182 214.612V219.535H302.102V214.612H297.182Z" fill="#4E690B"/>
<path d="M297.182 203.125V208.048H302.102V203.125H297.182Z" fill="#4E690B"/>
<path d="M297.182 191.638V196.561H302.102V191.638H297.182Z" fill="#4E690B"/>
<path d="M297.182 180.151V185.074H302.102V180.151H297.182Z" fill="#4E690B"/>
<path d="M297.182 168.663V173.586H302.102V168.663H297.182Z" fill="#4E690B"/>
<path d="M297.182 157.176V162.099H302.102V157.176H297.182Z" fill="#4E690B"/>
<path d="M297.182 145.689V150.612H302.102V145.689H297.182Z" fill="#4E690B"/>
<path d="M297.182 134.202V139.125H302.102V134.202H297.182Z" fill="#4E690B"/>
<path d="M375.902 226.099L375.902 231.022L370.982 231.022L370.982 226.099L375.902 226.099Z" fill="#4E690B"/>
<path d="M379.182 227.74L379.182 229.381L375.902 229.381L375.902 227.74L379.182 227.74Z" fill="#4E690B"/>
<path d="M379.182 216.253L379.182 217.894L375.902 217.894L375.902 216.253L379.182 216.253Z" fill="#4E690B"/>
<path d="M379.182 204.766L379.182 206.407L375.902 206.407L375.902 204.766L379.182 204.766Z" fill="#4E690B"/>
<path d="M379.182 193.279L379.182 194.92L375.902 194.92L375.902 193.279L379.182 193.279Z" fill="#4E690B"/>
<path d="M379.182 181.792L379.182 183.433L375.902 183.433L375.902 181.792L379.182 181.792Z" fill="#4E690B"/>
<path d="M379.182 170.305L379.182 171.946L375.902 171.946L375.902 170.305L379.182 170.305Z" fill="#4E690B"/>
<path d="M379.182 158.817L379.182 160.458L375.902 160.458L375.902 158.817L379.182 158.817Z" fill="#4E690B"/>
<path d="M379.182 147.33L379.182 148.971L375.902 148.971L375.902 147.33L379.182 147.33Z" fill="#4E690B"/>
<path d="M379.182 135.843L379.182 137.484L375.902 137.484L375.902 135.843L379.182 135.843Z" fill="#4E690B"/>
<path d="M375.902 214.612L375.902 219.535L370.982 219.535L370.982 214.612L375.902 214.612Z" fill="#4E690B"/>
<path d="M375.902 203.125L375.902 208.048L370.982 208.048L370.982 203.125L375.902 203.125Z" fill="#4E690B"/>
<path d="M375.902 191.638L375.902 196.561L370.982 196.561L370.982 191.638L375.902 191.638Z" fill="#4E690B"/>
<path d="M375.902 180.151L375.902 185.074L370.982 185.074L370.982 180.151L375.902 180.151Z" fill="#4E690B"/>
<path d="M375.902 168.663L375.902 173.586L370.982 173.586L370.982 168.663L375.902 168.663Z" fill="#4E690B"/>
<path d="M375.902 157.176L375.902 162.099L370.982 162.099L370.982 157.176L375.902 157.176Z" fill="#4E690B"/>
<path d="M375.902 145.689L375.902 150.612L370.982 150.612L370.982 145.689L375.902 145.689Z" fill="#4E690B"/>
<path d="M375.902 134.202L375.902 139.125L370.982 139.125L370.982 134.202L375.902 134.202Z" fill="#4E690B"/>
<path d="M315.222 255.637H313.582V252.355H315.222V255.637Z" fill="#4E690B"/>
<path d="M326.702 255.637H325.062V252.355H326.702V255.637Z" fill="#4E690B"/>
<path d="M338.182 255.637H336.542V252.355H338.182V255.637Z" fill="#4E690B"/>
<path d="M349.662 255.637H348.022V252.355H349.662V255.637Z" fill="#4E690B"/>
<path d="M361.142 255.637H359.502V252.355H361.142V255.637Z" fill="#4E690B"/>
<path d="M316.862 252.355H311.942V247.432H316.862V252.355Z" fill="#4E690B"/>
<path d="M328.342 252.355H323.422V247.432H328.342V252.355Z" fill="#4E690B"/>
<path d="M339.822 252.355H334.902V247.432H339.822V252.355Z" fill="#4E690B"/>
<path d="M351.302 252.355H346.382V247.432H351.302V252.355Z" fill="#4E690B"/>
<path d="M362.782 252.355H357.862V247.432H362.782V252.355Z" fill="#4E690B"/>
<path d="M315.222 255.637H313.582V252.355H315.222V255.637Z" fill="#4E690B"/>
<path d="M326.702 255.637H325.062V252.355H326.702V255.637Z" fill="#4E690B"/>
<path d="M338.182 255.637H336.542V252.355H338.182V255.637Z" fill="#4E690B"/>
<path d="M349.662 255.637H348.022V252.355H349.662V255.637Z" fill="#4E690B"/>
<path d="M361.142 255.637H359.502V252.355H361.142V255.637Z" fill="#4E690B"/>
<path d="M316.862 252.355H311.942V247.432H316.862V252.355Z" fill="#4E690B"/>
<path d="M328.342 252.355H323.422V247.432H328.342V252.355Z" fill="#4E690B"/>
<path d="M339.822 252.355H334.902V247.432H339.822V252.355Z" fill="#4E690B"/>
<path d="M351.302 252.355H346.382V247.432H351.302V252.355Z" fill="#4E690B"/>
<path d="M362.782 252.355H357.862V247.432H362.782V252.355Z" fill="#4E690B"/>
<path d="M315.222 111.228H313.582V114.51H315.222V111.228Z" fill="#4E690B"/>
<path d="M326.702 111.228H325.062V114.51H326.702V111.228Z" fill="#4E690B"/>
<path d="M338.182 111.228H336.542V114.51H338.182V111.228Z" fill="#4E690B"/>
<path d="M349.662 111.228H348.022V114.51H349.662V111.228Z" fill="#4E690B"/>
<path d="M361.142 111.228H359.502V114.51H361.142V111.228Z" fill="#4E690B"/>
<path d="M316.862 114.51H311.942V119.433H316.862V114.51Z" fill="#4E690B"/>
<path d="M328.342 114.51H323.422V119.433H328.342V114.51Z" fill="#4E690B"/>
<path d="M339.822 114.51H334.902V119.433H339.822V114.51Z" fill="#4E690B"/>
<path d="M351.302 114.51H346.382V119.433H351.302V114.51Z" fill="#4E690B"/>
<path d="M362.782 114.51H357.862V119.433H362.782V114.51Z" fill="#4E690B"/>
<path d="M314.402 111.228V61.1763M325.882 111.228V61.1763M337.362 111.228V61.1763M348.842 111.228V61.1763M360.322 111.228V61.1763" stroke="#213102"/>
<path d="M293.083 136.663H203.703M293.083 182.612H262.206C257.349 182.612 252.742 184.766 249.626 188.494L216.823 227.74M337.362 255.637V322.919" stroke="#213102" stroke-dasharray="2 2"/>
<path d="M366.882 322.919H307.842C305.124 322.919 302.922 325.123 302.922 327.842V375.432C302.922 378.151 305.124 380.355 307.842 380.355H366.882C369.599 380.355 371.802 378.151 371.802 375.432V327.842C371.802 325.123 369.599 322.919 366.882 322.919Z" fill="#213102"/>
<g filter="url(#filter1_i_186_3781)">
<path d="M306.202 331.124V372.15C306.202 374.869 308.404 377.073 311.122 377.073H363.602C366.319 377.073 368.522 374.869 368.522 372.15V331.124C368.522 328.405 366.319 326.201 363.602 326.201H311.122C308.404 326.201 306.202 328.405 306.202 331.124Z" fill="#213102"/>
</g>
<path opacity="0.9" d="M359.502 332.765H315.222C313.863 332.765 312.762 333.867 312.762 335.227C312.762 336.586 313.863 337.688 315.222 337.688H359.502C360.86 337.688 361.962 336.586 361.962 335.227C361.962 333.867 360.86 332.765 359.502 332.765Z" fill="#41580F"/>
<path opacity="0.9" d="M359.502 342.612H336.542C335.183 342.612 334.082 343.714 334.082 345.073C334.082 346.433 335.183 347.535 336.542 347.535H359.502C360.86 347.535 361.962 346.433 361.962 345.073C361.962 343.714 360.86 342.612 359.502 342.612Z" fill="#41580F"/>
<path opacity="0.9" d="M317.682 345.073C317.682 343.714 316.58 342.612 315.222 342.612C313.863 342.612 312.762 343.714 312.762 345.073C312.762 346.433 313.863 347.535 315.222 347.535C316.58 347.535 317.682 346.433 317.682 345.073Z" fill="#41580F"/>
<path opacity="0.9" d="M327.522 345.073C327.522 343.714 326.42 342.612 325.062 342.612C323.703 342.612 322.602 343.714 322.602 345.073C322.602 346.433 323.703 347.535 325.062 347.535C326.42 347.535 327.522 346.433 327.522 345.073Z" fill="#41580F"/>
<path opacity="0.9" d="M317.682 368.047V354.919C317.682 353.56 316.58 352.458 315.222 352.458C313.863 352.458 312.762 353.56 312.762 354.919V368.047C312.762 369.407 313.863 370.509 315.222 370.509C316.58 370.509 317.682 369.407 317.682 368.047Z" fill="#41580F"/>
<path opacity="0.9" d="M327.522 368.047V354.919C327.522 353.56 326.42 352.458 325.062 352.458C323.703 352.458 322.602 353.56 322.602 354.919V368.047C322.602 369.407 323.703 370.509 325.062 370.509C326.42 370.509 327.522 369.407 327.522 368.047Z" fill="#41580F"/>
<path opacity="0.9" d="M337.362 368.047V354.919C337.362 353.56 336.26 352.458 334.902 352.458C333.543 352.458 332.442 353.56 332.442 354.919V368.047C332.442 369.407 333.543 370.509 334.902 370.509C336.26 370.509 337.362 369.407 337.362 368.047Z" fill="#41580F"/>
<path opacity="0.9" d="M361.962 367.227V355.74C361.962 353.927 360.493 352.458 358.682 352.458H345.562C343.75 352.458 342.282 353.927 342.282 355.74V367.227C342.282 369.04 343.75 370.509 345.562 370.509H358.682C360.493 370.509 361.962 369.04 361.962 367.227Z" fill="#41580F"/>
<path d="M186.482 232.663V291.74C186.482 294.459 188.685 296.663 191.402 296.663H238.962C241.68 296.663 243.882 294.459 243.882 291.74V232.663C243.882 229.944 241.68 227.74 238.962 227.74H191.402C188.685 227.74 186.482 229.944 186.482 232.663Z" fill="#213102"/>
<g filter="url(#filter2_i_186_3781)">
<path d="M194.682 293.381H235.682C238.4 293.381 240.602 291.176 240.602 288.458V235.945C240.602 233.226 238.4 231.022 235.682 231.022H194.682C191.965 231.022 189.762 233.226 189.762 235.945V288.458C189.762 291.176 191.965 293.381 194.682 293.381Z" fill="#213102"/>
</g>
<path opacity="0.9" d="M196.323 240.047V284.355C196.323 285.715 197.424 286.817 198.783 286.817C200.141 286.817 201.243 285.715 201.243 284.355V240.047C201.243 238.688 200.141 237.586 198.783 237.586C197.424 237.586 196.323 238.688 196.323 240.047Z" fill="#41580F"/>
<path opacity="0.9" d="M206.162 240.048V263.022C206.162 264.381 207.264 265.483 208.622 265.483C209.981 265.483 211.082 264.381 211.082 263.022V240.048C211.082 238.688 209.981 237.586 208.622 237.586C207.264 237.586 206.162 238.688 206.162 240.048Z" fill="#41580F"/>
<path opacity="0.9" d="M208.622 281.894C207.264 281.894 206.162 282.996 206.162 284.355C206.162 285.715 207.264 286.817 208.622 286.817C209.981 286.817 211.082 285.715 211.082 284.355C211.082 282.996 209.981 281.894 208.622 281.894Z" fill="#41580F"/>
<path opacity="0.9" d="M208.622 272.047C207.264 272.047 206.162 273.149 206.162 274.509C206.162 275.868 207.264 276.97 208.622 276.97C209.981 276.97 211.082 275.868 211.082 274.509C211.082 273.149 209.981 272.047 208.622 272.047Z" fill="#41580F"/>
<path opacity="0.9" d="M231.582 281.894H218.462C217.104 281.894 216.002 282.996 216.002 284.355C216.002 285.715 217.104 286.817 218.462 286.817H231.582C232.941 286.817 234.042 285.715 234.042 284.355C234.042 282.996 232.941 281.894 231.582 281.894Z" fill="#41580F"/>
<path opacity="0.9" d="M231.582 272.047H218.462C217.104 272.047 216.002 273.149 216.002 274.509C216.002 275.868 217.104 276.97 218.462 276.97H231.582C232.941 276.97 234.042 275.868 234.042 274.509C234.042 273.149 232.941 272.047 231.582 272.047Z" fill="#41580F"/>
<path opacity="0.9" d="M231.582 262.201H218.462C217.104 262.201 216.002 263.303 216.002 264.663C216.002 266.022 217.104 267.124 218.462 267.124H231.582C232.941 267.124 234.042 266.022 234.042 264.663C234.042 263.303 232.941 262.201 231.582 262.201Z" fill="#41580F"/>
<path opacity="0.9" d="M230.762 237.586H219.282C217.471 237.586 216.002 239.055 216.002 240.868V253.996C216.002 255.809 217.471 257.278 219.282 257.278H230.762C232.574 257.278 234.042 255.809 234.042 253.996V240.868C234.042 239.055 232.574 237.586 230.762 237.586Z" fill="#41580F"/>
<path d="M197.962 107.946H138.922C136.205 107.946 134.002 110.15 134.002 112.869V160.458C134.002 163.177 136.205 165.381 138.922 165.381H197.962C200.68 165.381 202.882 163.177 202.882 160.458V112.869C202.882 110.15 200.68 107.946 197.962 107.946Z" fill="#213102"/>
<g filter="url(#filter3_i_186_3781)">
<path d="M137.282 116.151V157.176C137.282 159.895 139.485 162.099 142.202 162.099H194.682C197.4 162.099 199.602 159.895 199.602 157.176V116.151C199.602 113.432 197.4 111.228 194.682 111.228H142.202C139.485 111.228 137.282 113.432 137.282 116.151Z" fill="#213102"/>
</g>
<path opacity="0.9" d="M190.582 117.792H146.302C144.944 117.792 143.842 118.894 143.842 120.253C143.842 121.613 144.944 122.715 146.302 122.715H190.582C191.941 122.715 193.042 121.613 193.042 120.253C193.042 118.894 191.941 117.792 190.582 117.792Z" fill="#41580F"/>
<path opacity="0.9" d="M190.582 127.638H167.622C166.264 127.638 165.162 128.74 165.162 130.099C165.162 131.459 166.264 132.561 167.622 132.561H190.582C191.941 132.561 193.042 131.459 193.042 130.099C193.042 128.74 191.941 127.638 190.582 127.638Z" fill="#41580F"/>
<path opacity="0.9" d="M148.762 130.099C148.762 128.74 147.661 127.638 146.302 127.638C144.944 127.638 143.842 128.74 143.842 130.099C143.842 131.459 144.944 132.561 146.302 132.561C147.661 132.561 148.762 131.459 148.762 130.099Z" fill="#41580F"/>
<path opacity="0.9" d="M158.602 130.099C158.602 128.74 157.501 127.638 156.142 127.638C154.784 127.638 153.682 128.74 153.682 130.099C153.682 131.459 154.784 132.561 156.142 132.561C157.501 132.561 158.602 131.459 158.602 130.099Z" fill="#41580F"/>
<path opacity="0.9" d="M148.762 153.074V139.945C148.762 138.586 147.661 137.484 146.302 137.484C144.944 137.484 143.842 138.586 143.842 139.945V153.074C143.842 154.433 144.944 155.535 146.302 155.535C147.661 155.535 148.762 154.433 148.762 153.074Z" fill="#41580F"/>
<path opacity="0.9" d="M158.602 153.074V139.945C158.602 138.586 157.501 137.484 156.142 137.484C154.784 137.484 153.682 138.586 153.682 139.945V153.074C153.682 154.433 154.784 155.535 156.142 155.535C157.501 155.535 158.602 154.433 158.602 153.074Z" fill="#41580F"/>
<path opacity="0.9" d="M168.443 153.074V139.945C168.443 138.586 167.341 137.484 165.983 137.484C164.624 137.484 163.523 138.586 163.523 139.945V153.074C163.523 154.433 164.624 155.535 165.983 155.535C167.341 155.535 168.443 154.433 168.443 153.074Z" fill="#41580F"/>
<path opacity="0.9" d="M193.042 152.253V140.766C193.042 138.953 191.574 137.484 189.762 137.484H176.642C174.831 137.484 173.362 138.953 173.362 140.766V152.253C173.362 154.066 174.831 155.535 176.642 155.535H189.762C191.574 155.535 193.042 154.066 193.042 152.253Z" fill="#4E690B"/>
</g>
<defs>
<filter id="filter0_i_186_3781" x="305.382" y="122.714" width="62.3199" height="121.436" filterUnits="userSpaceOnUse" color-interpolation-filters="sRGB">
<feFlood flood-opacity="0" result="BackgroundImageFix"/>
<feBlend mode="normal" in="SourceGraphic" in2="BackgroundImageFix" result="shape"/>
<feColorMatrix in="SourceAlpha" type="matrix" values="0 0 0 0 0 0 0 0 0 0 0 0 0 0 0 0 0 0 127 0" result="hardAlpha"/>
<feOffset/>
<feGaussianBlur stdDeviation="2"/>
<feComposite in2="hardAlpha" operator="arithmetic" k2="-1" k3="1"/>
<feColorMatrix type="matrix" values="0 0 0 0 0.234914 0 0 0 0 0.898693 0 0 0 0 0.934001 0 0 0 0.5 0"/>
<feBlend mode="normal" in2="shape" result="effect1_innerShadow_186_3781"/>
</filter>
<filter id="filter1_i_186_3781" x="306.202" y="326.201" width="62.3199" height="50.8718" filterUnits="userSpaceOnUse" color-interpolation-filters="sRGB">
<feFlood flood-opacity="0" result="BackgroundImageFix"/>
<feBlend mode="normal" in="SourceGraphic" in2="BackgroundImageFix" result="shape"/>
<feColorMatrix in="SourceAlpha" type="matrix" values="0 0 0 0 0 0 0 0 0 0 0 0 0 0 0 0 0 0 127 0" result="hardAlpha"/>
<feOffset/>
<feGaussianBlur stdDeviation="2"/>
<feComposite in2="hardAlpha" operator="arithmetic" k2="-1" k3="1"/>
<feColorMatrix type="matrix" values="0 0 0 0 0.234914 0 0 0 0 0.898693 0 0 0 0 0.934001 0 0 0 0.5 0"/>
<feBlend mode="normal" in2="shape" result="effect1_innerShadow_186_3781"/>
</filter>
<filter id="filter2_i_186_3781" x="189.762" y="231.022" width="50.84" height="62.3589" filterUnits="userSpaceOnUse" color-interpolation-filters="sRGB">
<feFlood flood-opacity="0" result="BackgroundImageFix"/>
<feBlend mode="normal" in="SourceGraphic" in2="BackgroundImageFix" result="shape"/>
<feColorMatrix in="SourceAlpha" type="matrix" values="0 0 0 0 0 0 0 0 0 0 0 0 0 0 0 0 0 0 127 0" result="hardAlpha"/>
<feOffset/>
<feGaussianBlur stdDeviation="2"/>
<feComposite in2="hardAlpha" operator="arithmetic" k2="-1" k3="1"/>
<feColorMatrix type="matrix" values="0 0 0 0 0.234914 0 0 0 0 0.898693 0 0 0 0 0.934001 0 0 0 0.5 0"/>
<feBlend mode="normal" in2="shape" result="effect1_innerShadow_186_3781"/>
</filter>
<filter id="filter3_i_186_3781" x="137.282" y="111.228" width="62.3199" height="50.8718" filterUnits="userSpaceOnUse" color-interpolation-filters="sRGB">
<feFlood flood-opacity="0" result="BackgroundImageFix"/>
<feBlend mode="normal" in="SourceGraphic" in2="BackgroundImageFix" result="shape"/>
<feColorMatrix in="SourceAlpha" type="matrix" values="0 0 0 0 0 0 0 0 0 0 0 0 0 0 0 0 0 0 127 0" result="hardAlpha"/>
<feOffset/>
<feGaussianBlur stdDeviation="2"/>
<feComposite in2="hardAlpha" operator="arithmetic" k2="-1" k3="1"/>
<feColorMatrix type="matrix" values="0 0 0 0 0.234914 0 0 0 0 0.898693 0 0 0 0 0.934001 0 0 0 0.5 0"/>
<feBlend mode="normal" in2="shape" result="effect1_innerShadow_186_3781"/>
</filter>
<linearGradient id="paint0_linear_186_3781" x1="257" y1="0" x2="257" y2="442" gradientUnits="userSpaceOnUse">
<stop stop-color="#24251D"/>
<stop offset="1" stop-color="#171812"/>
</linearGradient>
<clipPath id="clip0_186_3781">
<rect width="246" height="320" fill="white" transform="translate(134 61)"/>
</clipPath>
</defs>
</svg>
