<svg width="122" height="120" viewBox="0 0 122 120" fill="none" xmlns="http://www.w3.org/2000/svg">
<rect width="120" height="120" transform="translate(1)" fill="#171812"/>
<path d="M60.667 28C46.6295 40.6625 36.667 55.6125 36.667 65.5625C36.667 81.125 46.542 92 60.667 92C74.792 92 84.667 81.125 84.667 65.5625C84.667 55.575 74.642 40.6125 60.667 28ZM60.667 84C53.6045 84 48.667 79.125 48.667 72.15C48.667 70.4625 49.242 64.4625 60.667 52C72.092 64.4625 72.667 70.4625 72.667 72.15C72.667 79.125 67.7295 84 60.667 84Z" fill="#D8FE53"/>
<path d="M22.3999 120L0.399904 98L0.399902 120L22.3999 120Z" fill="#D8FE53"/>
<path d="M99.3999 0L121.4 22L121.4 -3.8466e-06L99.3999 0Z" fill="#D8FE53"/>
</svg>
