<svg width="24" height="24" viewBox="0 0 24 24" fill="none" xmlns="http://www.w3.org/2000/svg">
<path d="M12.8408 1.40933C12.9413 1.3948 13.0438 1.3983 13.1436 1.42007L13.2422 1.44742C13.338 1.48082 13.4274 1.5316 13.5059 1.59683L13.9209 1.94937C14.9559 2.84993 16.4237 4.2772 17.6953 6.0773C19.1479 8.1337 20.3496 10.6851 20.3496 13.5002C20.3496 15.7147 19.4702 17.8386 17.9043 19.4044C16.3384 20.9703 14.2145 21.8498 12 21.8498C9.92375 21.8498 7.92727 21.0767 6.39551 19.6896L6.0957 19.4044C4.52981 17.8386 3.65043 15.7147 3.65039 13.5002C3.65039 10.8552 4.69226 8.15765 6.73242 5.48453L6.79102 5.41617C6.85255 5.35115 6.9239 5.29594 7.00293 5.25308L7.08398 5.21402C7.16686 5.17985 7.25496 5.15921 7.34473 5.1525L7.43457 5.15054C7.52427 5.15333 7.61352 5.17061 7.69824 5.20132L7.78027 5.23648C7.8609 5.27577 7.93534 5.32711 8 5.3898L10.1533 7.47769L12.1641 1.95914L12.2041 1.86539C12.2501 1.7748 12.3125 1.69324 12.3877 1.62418L12.4668 1.55972C12.5494 1.50043 12.6425 1.45649 12.7412 1.42984L12.8408 1.40933ZM11.2988 9.29117C11.2624 9.39119 11.2077 9.4833 11.1377 9.56265L11.0625 9.63687C10.9828 9.70726 10.8913 9.76272 10.792 9.79898L10.6904 9.82828C10.5867 9.85204 10.4796 9.85656 10.375 9.84097L10.2715 9.81851C10.169 9.78984 10.0728 9.7426 9.98828 9.67886L9.9082 9.60953L7.52148 7.29507C6.0773 9.41041 5.34961 11.4938 5.34961 13.5002L5.3584 13.8293C5.44155 15.4724 6.13094 17.0315 7.2998 18.2003L7.53906 18.4269C8.75847 19.5313 10.3471 20.1477 12 20.1496L12.3291 20.1418C13.9723 20.0586 15.5313 19.3692 16.7002 18.2003L16.9277 17.9611C18.0319 16.7418 18.6485 15.1529 18.6504 13.5002L18.6406 13.1017C18.5456 11.1173 17.7526 9.2641 16.7256 7.66714C15.6684 6.02329 14.3659 4.65749 13.335 3.70718L11.2988 9.29117Z" fill="#F8F8F5" stroke="#F8F8F5" stroke-width="0.2"/>
</svg>
