<svg width="163" height="48" viewBox="0 0 163 48" fill="none" xmlns="http://www.w3.org/2000/svg">
<g clip-path="url(#clip0_103_689)">
<mask id="mask0_103_689" style="mask-type:luminance" maskUnits="userSpaceOnUse" x="0" y="0" width="163" height="48">
<path d="M162.52 0H0.13739V48H162.52V0Z" fill="white"/>
</mask>
<g mask="url(#mask0_103_689)">
<path d="M156.326 47.9089H6.40689C3.11056 47.9089 0.410095 45.2342 0.410095 41.9669V6.31626C0.410095 3.05141 3.11056 0.376678 6.40689 0.376678H156.326C159.623 0.376678 162.321 3.05141 162.321 6.31746V41.9681C162.321 45.2342 159.623 47.9089 156.326 47.9089Z" fill="white"/>
<path d="M57.2802 12.5494C57.2802 13.5417 56.9803 14.3363 56.3897 14.929C55.7105 15.6316 54.826 15.9837 53.7421 15.9837C52.7077 15.9837 51.8231 15.6272 51.096 14.9171C50.3674 14.1967 50.0046 13.3129 50.0046 12.2583C50.0046 11.2036 50.3674 10.3198 51.0945 9.60686C51.8186 8.89389 52.7031 8.53293 53.7391 8.53293C54.2548 8.53293 54.7465 8.63692 55.2158 8.83449C55.6805 9.03206 56.0628 9.2994 56.3402 9.62915L55.7105 10.256C55.2307 9.69155 54.5756 9.41529 53.7376 9.41529C52.982 9.41529 52.3283 9.67672 51.7707 10.2025C51.2204 10.7328 50.9461 11.4176 50.9461 12.2583C50.9461 13.099 51.2204 13.7883 51.7707 14.3185C52.3253 14.8384 52.982 15.1058 53.7376 15.1058C54.5396 15.1058 55.2143 14.8384 55.7465 14.3126C56.0973 13.9635 56.2967 13.4807 56.3492 12.8673H53.7376V12.0087H57.2217C57.2637 12.1944 57.2757 12.3741 57.2757 12.548L57.2802 12.5494Z" fill="#121312"/>
<path d="M62.807 9.5712H59.5388V11.829H62.4891V12.6905H59.5388V14.9483H62.8114V15.8217H58.6138V8.69786H62.8114V9.5742L62.807 9.5712Z" fill="#121312"/>
<path d="M66.7099 15.8217H65.7835V9.5712H63.7745V8.69786H68.7188V9.5742H66.7099V15.8217Z" fill="#121312"/>
<path d="M72.2963 15.8217V8.69786H73.2198V15.8217H72.2948H72.2963Z" fill="#121312"/>
<path d="M77.3184 15.8217H76.4008V9.5712H74.3859V8.69786H79.3332V9.5742H77.3198V15.8217H77.3184Z" fill="#121312"/>
<path d="M88.6935 14.9042C87.9848 15.6261 87.1046 15.9855 86.058 15.9855C85.0025 15.9855 84.124 15.6261 83.4149 14.9056C82.7072 14.1882 82.355 13.3059 82.355 12.2616C82.355 11.2174 82.7072 10.3351 83.4149 9.61766C84.124 8.89577 85.004 8.53627 86.0563 8.53627C87.0969 8.53627 87.9754 8.89577 88.6849 9.62057C89.3978 10.3485 89.7487 11.2248 89.7487 12.2616C89.7487 13.3059 89.3978 14.1882 88.6909 14.9056L88.6935 14.9042ZM84.1015 14.31C84.6353 14.8418 85.2859 15.1091 86.058 15.1091C86.8224 15.1091 87.4795 14.8418 88.0071 14.307C88.539 13.7752 88.8093 13.089 88.8093 12.2601C88.8093 11.4283 88.539 10.7451 88.0071 10.2103C87.4795 9.67852 86.8224 9.41117 86.058 9.41117C85.2829 9.41117 84.6337 9.67852 84.1 10.2133C83.5678 10.7451 83.298 11.4313 83.298 12.2601C83.298 13.092 83.5678 13.7752 84.0985 14.31H84.1015Z" fill="#121312"/>
<path d="M91.051 15.8217V8.69786H92.1757L95.6733 14.2383H95.7136L95.6733 12.8688V8.69786H96.5981V15.8217H95.633L91.9715 10.0079H91.9312L91.9715 11.3834V15.8217H91.0527H91.051Z" fill="#121312"/>
<path d="M82.1282 26.2259C79.3118 26.2259 77.0109 28.349 77.0109 31.2803C77.0109 34.1865 79.3106 36.3323 82.127 36.3323C84.9508 36.3323 87.2513 34.1853 87.2513 31.2791C87.2513 28.3478 84.9496 26.2235 82.1258 26.2235L82.1282 26.2259ZM82.1282 34.3437C80.5848 34.3437 79.2531 33.0795 79.2531 31.2803C79.2531 29.4573 80.5836 28.2146 82.1282 28.2146C83.6741 28.2146 85.0118 29.4561 85.0118 31.2791C85.0118 33.0783 83.6741 34.3413 82.1282 34.3413V34.3437ZM70.9615 26.2259C68.1378 26.2259 65.8429 28.349 65.8429 31.2803C65.8429 34.1865 68.1378 36.3323 70.9615 36.3323C73.7827 36.3323 76.08 34.1853 76.08 31.2791C76.08 28.3478 73.7827 26.2235 70.9627 26.2235L70.9615 26.2259ZM70.9615 34.3437C69.4144 34.3437 68.0803 33.0795 68.0803 31.2803C68.0803 29.4573 69.4144 28.2146 70.9615 28.2146C72.5073 28.2146 73.8366 29.4561 73.8366 31.2791C73.8366 33.0783 72.5085 34.3413 70.9615 34.3413V34.3437ZM57.6721 27.7744V29.9214H62.8493C62.6974 31.1232 62.2929 32.0048 61.6719 32.6201C60.9158 33.3638 59.7384 34.1877 57.6709 34.1877C54.4858 34.1877 51.9912 31.6401 51.9912 28.4833C51.9912 25.3263 54.4846 22.7788 57.6697 22.7788C59.3927 22.7788 60.6466 23.4481 61.5703 24.3117L63.0982 22.7979C61.8059 21.5745 60.083 20.6342 57.6697 20.6342C53.3025 20.6342 49.6293 24.1557 49.6293 28.4845C49.6293 32.8144 53.3025 36.3347 57.6697 36.3347C60.0315 36.3347 61.8047 35.5671 63.1974 34.1302C64.6273 32.7148 65.0736 30.7238 65.0736 29.1165C65.0736 28.6176 65.0317 28.1595 64.9563 27.7756H57.6697L57.6721 27.7744ZM112.012 29.4417C111.591 28.3094 110.291 26.2271 107.644 26.2271C105.019 26.2271 102.835 28.2734 102.835 31.2803C102.835 34.111 104.997 36.3323 107.896 36.3323C110.239 36.3323 111.591 34.917 112.147 34.0918L110.409 32.9439C109.828 33.7836 109.038 34.3425 107.896 34.3425C106.759 34.3425 105.946 33.8267 105.425 32.8108L112.248 30.0137L112.01 29.4381L112.012 29.4417ZM105.055 31.1232C104.995 29.1741 106.583 28.1763 107.72 28.1763C108.61 28.1763 109.366 28.6176 109.618 29.2497L105.057 31.1244L105.055 31.1232ZM99.5107 36.0265H101.753V21.1727H99.5107V36.0265ZM95.838 27.351H95.7625C95.2598 26.7597 94.2989 26.2259 93.0825 26.2259C90.5268 26.2259 88.1907 28.4473 88.1907 31.2971C88.1907 34.1278 90.5268 36.3347 93.0807 36.3347C94.2981 36.3347 95.2589 35.795 95.7608 35.1857H95.838V35.9102C95.838 37.8412 94.7965 38.8799 93.1142 38.8799C91.7441 38.8799 90.8948 37.9 90.5422 37.0748L88.5914 37.8832C89.1541 39.2229 90.6435 40.8698 93.1142 40.8698C95.7445 40.8698 97.9622 39.3381 97.9622 35.6091V26.5318H95.838V27.351ZM93.272 34.3437C91.7261 34.3437 90.4333 33.0603 90.4333 31.2971C90.4333 29.516 91.7253 28.2146 93.272 28.2146C94.7957 28.2146 95.9967 29.516 95.9967 31.2971C95.9967 33.0603 94.7957 34.3437 93.272 34.3437ZM122.512 21.1739H117.148V36.0265H119.386V30.3975H122.512C124.996 30.3975 127.432 28.6164 127.432 25.7846C127.432 22.9539 124.991 21.1727 122.512 21.1727V21.1739ZM122.572 28.3322H119.385V23.2394H122.571C124.241 23.2394 125.194 24.6139 125.194 25.7858C125.194 26.9348 124.241 28.3334 122.571 28.3334L122.572 28.3322ZM136.398 26.1972C134.782 26.1972 133.101 26.9049 132.409 28.4725L134.395 29.2965C134.822 28.4725 135.607 28.205 136.438 28.205C137.599 28.205 138.776 28.8959 138.795 30.1157V30.2716C138.388 30.0401 137.522 29.6959 136.456 29.6959C134.318 29.6959 132.14 30.863 132.14 33.0387C132.14 35.0298 133.891 36.3108 135.861 36.3108C137.365 36.3108 138.194 35.6391 138.717 34.8559H138.794V36.0025H140.954V30.3052C140.954 27.6712 138.97 26.1972 136.398 26.1972H136.398ZM136.128 34.3389C135.396 34.3389 134.376 33.979 134.376 33.0795C134.376 31.9305 135.649 31.489 136.749 31.489C137.734 31.489 138.197 31.7049 138.795 31.9881C138.618 33.3638 137.423 34.3389 136.126 34.3389H136.128ZM148.822 26.5234L146.254 32.9643H146.178L143.52 26.5234H141.108L145.101 35.5227L142.821 40.5291H145.159L151.313 26.5222H148.824L148.822 26.5234ZM128.662 36.0277H130.904V21.1727H128.662V36.0265V36.0277Z" fill="#121312"/>
<path d="M12.9259 9.33267C12.5736 9.69961 12.3712 10.2685 12.3712 11.0052V37.2847C12.3712 38.0215 12.5736 38.5918 12.9259 38.9558L13.0128 39.036L27.8757 24.3158V23.9682L13.0128 9.24799L12.9259 9.33413V9.33267Z" fill="url(#paint0_linear_103_689)"/>
<path d="M32.8226 29.2257L27.8753 24.3166V23.969L32.8301 19.0597L32.941 19.1236L38.8074 22.4331C40.4819 23.3718 40.4819 24.9166 38.8074 25.8613L32.9425 29.1633L32.8226 29.2257Z" fill="url(#paint1_linear_103_689)"/>
<path d="M32.9429 29.1628L27.8757 24.1421L12.9258 38.956C13.4805 39.5352 14.389 39.6051 15.4205 39.0257L32.9429 29.1628Z" fill="url(#paint2_linear_103_689)"/>
<path d="M32.9425 19.1217L15.4171 9.25869C14.3857 8.68535 13.4786 8.75366 12.9225 9.333L27.8753 24.1423L32.9425 19.1217Z" fill="url(#paint3_linear_103_689)"/>
</g>
</g>
<defs>
<linearGradient id="paint0_linear_103_689" x1="26.5565" y1="37.558" x2="6.61389" y2="17.4314" gradientUnits="userSpaceOnUse">
<stop stop-color="#00A0FF"/>
<stop offset="0.007" stop-color="#00A1FF"/>
<stop offset="0.26" stop-color="#00BEFF"/>
<stop offset="0.512" stop-color="#00D2FF"/>
<stop offset="0.76" stop-color="#00DFFF"/>
<stop offset="1" stop-color="#00E3FF"/>
</linearGradient>
<linearGradient id="paint1_linear_103_689" x1="40.989" y1="24.1415" x2="11.9695" y2="24.1415" gradientUnits="userSpaceOnUse">
<stop stop-color="#FFE000"/>
<stop offset="0.409" stop-color="#FFBD00"/>
<stop offset="0.775" stop-color="#FFA500"/>
<stop offset="1" stop-color="#FF9C00"/>
</linearGradient>
<linearGradient id="paint2_linear_103_689" x1="30.1868" y1="21.4138" x2="3.14441" y2="-5.87982" gradientUnits="userSpaceOnUse">
<stop stop-color="#FF3A44"/>
<stop offset="1" stop-color="#C31162"/>
</linearGradient>
<linearGradient id="paint3_linear_103_689" x1="9.16187" y1="47.6994" x2="21.2382" y2="35.511" gradientUnits="userSpaceOnUse">
<stop stop-color="#32A071"/>
<stop offset="0.069" stop-color="#2DA771"/>
<stop offset="0.476" stop-color="#15CF74"/>
<stop offset="0.801" stop-color="#06E775"/>
<stop offset="1" stop-color="#00F076"/>
</linearGradient>
<clipPath id="clip0_103_689">
<rect width="163" height="48" fill="white"/>
</clipPath>
</defs>
</svg>
