<svg width="122" height="120" viewBox="0 0 122 120" fill="none" xmlns="http://www.w3.org/2000/svg">
<rect width="120" height="120" transform="translate(1)" fill="#A6DB07"/>
<path d="M53.2851 42.528C54.8798 37.8614 61.3278 37.72 63.2185 42.104L63.3785 42.5307L65.5305 48.824C66.0236 50.2673 66.8206 51.5881 67.8676 52.6972C68.9146 53.8063 70.1873 54.6779 71.5998 55.2534L72.1785 55.4694L78.4718 57.6187C83.1385 59.2134 83.2798 65.6614 78.8985 67.552L78.4718 67.712L72.1785 69.864C70.7347 70.3569 69.4134 71.1537 68.3038 72.2007C67.1943 73.2477 66.3222 74.5206 65.7465 75.9334L65.5305 76.5094L63.3811 82.8054C61.7865 87.472 55.3385 87.6134 53.4505 83.232L53.2851 82.8054L51.1358 76.512C50.6429 75.0683 49.8461 73.747 48.7991 72.6374C47.7521 71.5278 46.4792 70.6558 45.0665 70.08L44.4905 69.864L38.1971 67.7147C33.5278 66.12 33.3865 59.672 37.7705 57.784L38.1971 57.6187L44.4905 55.4694C45.9337 54.9762 47.2545 54.1792 48.3636 53.1322C49.4727 52.0852 50.3444 50.8125 50.9198 49.4L51.1358 48.824L53.2851 42.528ZM79.6665 33.3334C80.1653 33.3334 80.6542 33.4733 81.0775 33.7373C81.5008 34.0013 81.8416 34.3787 82.0611 34.8267L82.1891 35.1387L83.1225 37.8747L85.8611 38.808C86.3611 38.9779 86.7994 39.2923 87.1204 39.7115C87.4415 40.1307 87.6308 40.6358 87.6645 41.1628C87.6982 41.6897 87.5747 42.2148 87.3097 42.6715C87.0447 43.1282 86.65 43.4959 86.1758 43.728L85.8611 43.856L83.1251 44.7894L82.1918 47.528C82.0216 48.0279 81.7069 48.4659 81.2876 48.7867C80.8682 49.1075 80.3631 49.2966 79.8362 49.33C79.3092 49.3634 78.7843 49.2396 78.3277 48.9744C77.8712 48.7091 77.5037 48.3144 77.2718 47.84L77.1438 47.528L76.2105 44.792L73.4718 43.8587C72.9718 43.6889 72.5336 43.3744 72.2125 42.9552C71.8915 42.536 71.7021 42.0309 71.6684 41.504C71.6347 40.977 71.7582 40.452 72.0232 39.9953C72.2882 39.5386 72.6829 39.1709 73.1571 38.9387L73.4718 38.8107L76.2078 37.8774L77.1411 35.1387C77.3209 34.6118 77.6611 34.1545 78.114 33.8307C78.5669 33.5069 79.1098 33.333 79.6665 33.3334Z" fill="#171812"/>
<path d="M22.3999 120L0.399904 98L0.399902 120L22.3999 120Z" fill="#171812"/>
<path d="M99.3999 0L121.4 22L121.4 -3.8466e-06L99.3999 0Z" fill="#171812"/>
</svg>
