<svg width="122" height="120" viewBox="0 0 122 120" fill="none" xmlns="http://www.w3.org/2000/svg">
<rect width="120" height="120" transform="translate(1)" fill="#A6DB07"/>
<path d="M71.6667 49.3333V46.6667C71.6667 43.8377 70.5429 41.1246 68.5425 39.1242C66.5421 37.1238 63.829 36 61 36C58.1711 36 55.458 37.1238 53.4576 39.1242C51.4572 41.1246 50.3334 43.8377 50.3334 46.6667V49.3333" stroke="#171812" stroke-width="2" stroke-linecap="round"/>
<path fill-rule="evenodd" clip-rule="evenodd" d="M39.344 49.0106C37 51.352 37 55.1253 37 62.6666V65.3333C37 75.3893 37 80.4186 40.1253 83.5413C43.2507 86.664 48.2773 86.6666 58.3333 86.6666H63.6667C73.7227 86.6666 78.752 86.6666 81.8747 83.5413C84.9973 80.416 85 75.3893 85 65.3333V62.6666C85 55.1253 85 51.352 82.656 49.0106C80.3147 46.6666 76.5413 46.6666 69 46.6666H53C45.4587 46.6666 41.6853 46.6666 39.344 49.0106ZM61 68C61.7072 68 62.3855 67.719 62.8856 67.2189C63.3857 66.7188 63.6667 66.0405 63.6667 65.3333C63.6667 64.626 63.3857 63.9478 62.8856 63.4477C62.3855 62.9476 61.7072 62.6666 61 62.6666C60.2928 62.6666 59.6145 62.9476 59.1144 63.4477C58.6143 63.9478 58.3333 64.626 58.3333 65.3333C58.3333 66.0405 58.6143 66.7188 59.1144 67.2189C59.6145 67.719 60.2928 68 61 68ZM69 65.3333C69.0009 66.9884 68.4884 68.603 67.5332 69.9546C66.578 71.3062 65.2271 72.3283 63.6667 72.88V78.6666H58.3333V72.88C56.9497 72.3915 55.727 71.5321 54.799 70.3956C53.8709 69.2591 53.2731 67.8894 53.071 66.4361C52.8688 64.9828 53.0702 63.5019 53.6529 62.1553C54.2357 60.8087 55.1775 59.6482 56.3753 58.8008C57.5731 57.9533 58.9808 57.4515 60.4446 57.3502C61.9084 57.2488 63.3719 57.5519 64.675 58.2262C65.9782 58.9005 67.0709 59.9201 67.8337 61.1735C68.5964 62.427 68.9999 63.866 69 65.3333Z" fill="#171812"/>
<path d="M22.3999 120L0.399904 98L0.399902 120L22.3999 120Z" fill="#171812"/>
<path d="M99.3999 0L121.4 22L121.4 -3.8466e-06L99.3999 0Z" fill="#171812"/>
</svg>
