<svg width="1390" height="541" viewBox="0 0 1390 541" fill="none" xmlns="http://www.w3.org/2000/svg">
<path d="M154.337 398.862C154.337 457.991 97.6796 497.93 25.4284 497.93C-54.0999 497.93 -104 453.842 -104 387.451H-22.3925C-22.3925 410.273 2.03775 422.721 28.0274 422.721C50.8983 422.721 71.1702 413.904 71.1702 396.268C71.1702 343.363 -98.8021 358.405 -98.8021 248.445C-98.8021 191.908 -46.8228 150.414 21.2701 150.414C98.1994 150.414 147.58 189.834 147.58 261.412H66.4921C66.4921 235.996 45.7004 223.029 22.8295 223.029C2.55755 223.029 -15.1154 232.884 -15.1154 248.963C-15.1154 301.35 154.337 285.271 154.337 398.862Z" fill="#7B9D18"/>
<path d="M236.985 495.336H154.338V153.007H265.054C351.859 153.007 401.239 196.057 401.239 270.747C401.239 345.437 352.379 387.969 265.054 387.969H236.985V495.336ZM236.985 232.884V308.092H268.173C300.4 308.092 316.513 294.088 316.513 270.747C316.513 246.888 300.4 232.884 267.653 232.884H236.985Z" fill="#7B9D18"/>
<path d="M401.238 495.336V153.007H519.751C607.076 153.007 656.976 190.87 656.976 261.93C656.976 301.349 635.145 347.512 590.443 347.512C580.567 347.512 571.73 344.4 562.894 338.694L560.814 340.769C588.363 360.998 604.477 376.039 609.675 386.932L656.976 495.336H569.651L517.152 362.554H496.88C490.123 362.554 483.885 362.035 474.009 353.736L472.45 355.292C480.766 363.072 483.885 371.89 483.885 388.488V495.336H401.238ZM483.885 299.275H527.548C557.176 299.275 572.25 287.345 572.25 266.598C572.25 244.295 555.617 232.884 527.548 232.884H483.885V299.275Z" fill="#7B9D18"/>
<path d="M864.372 282.677V362.035H739.622V415.459H885.164V495.336H656.975V153.007H879.966V232.884H739.622V282.677H864.372Z" fill="#7B9D18"/>
<path d="M885.166 540.289L1002.64 108.055H1083.21L1210.04 540.289H1124.79L1106.08 476.763H987.565L969.892 540.289H885.166ZM1014.59 375.254H1075.41L1059.82 314.348C1053.06 282.913 1046.3 241 1046.3 216.768H1043.7C1043.7 241 1036.95 282.913 1030.19 313.039L1014.59 375.254Z" fill="#D8FE53"/>
<path d="M1320.75 495.336H1210.03V153.007H1320.75C1426.79 153.007 1494.36 224.066 1494.36 324.171C1494.36 424.276 1426.79 495.336 1320.75 495.336ZM1292.68 232.884V415.459H1314.51C1375.33 415.459 1410.15 380.189 1410.15 323.134C1410.15 267.635 1375.33 232.884 1314.51 232.884H1292.68Z" fill="#7B9D18"/>
<ellipse cx="1043.88" cy="43.2233" rx="43.3161" ry="43.2233" fill="#D8FE53"/>
</svg>
