<svg width="159" height="26" viewBox="0 0 159 26" fill="none" xmlns="http://www.w3.org/2000/svg">
<g clip-path="url(#clip0_259_333)">
<mask id="mask0_259_333" style="mask-type:luminance" maskUnits="userSpaceOnUse" x="0" y="0" width="159" height="26">
<path d="M159 0H0V26H159V0Z" fill="white"/>
</mask>
<g mask="url(#mask0_259_333)">
<path d="M16.7307 0H5.42086C3.97316 0 2.61039 0.576156 1.58737 1.61708C0.564358 2.65992 0 4.04461 0 5.51765V7.20771C0 9.45856 1.39108 11.4309 3.72213 12.4853L4.65265 12.8732V7.29029C4.64888 7.26149 4.647 7.2346 4.647 7.20579V5.51574C4.647 5.22957 4.79044 5.04328 4.87538 4.95686C4.96031 4.87044 5.1434 4.72448 5.42275 4.72448H16.7325C17.0138 4.72448 17.1969 4.86852 17.2818 4.95686C17.3668 5.04328 17.5083 5.22957 17.5083 5.51381V9.22234H22.1535V5.51574C22.1535 4.0427 21.5891 2.65608 20.5661 1.61515C19.5393 0.574236 18.1784 0 16.7307 0Z" fill="#886CFF"/>
<path d="M18.4124 13.505L17.5008 13.1248V18.7462C17.5046 18.7596 17.5046 18.775 17.5046 18.7884V20.4784C17.5046 20.7646 17.363 20.9528 17.2762 21.0393C17.1913 21.1257 17.0081 21.2716 16.7287 21.2716H5.42086C4.99429 21.2716 4.647 20.9163 4.647 20.4843V16.7757H0V20.4843C0 23.5264 2.43109 26 5.42086 26H16.7307C18.1784 25.998 19.5411 25.4238 20.5642 24.3829C21.5872 23.34 22.1515 21.9534 22.1515 20.4804V18.7904C22.1515 16.5184 20.7548 14.5422 18.4124 13.507V13.505Z" fill="#886CFF"/>
<path d="M9.07873 15.0317C10.702 16.6834 11.0757 18.7748 11.0757 18.7748C11.0757 18.7748 11.3191 17.4285 12.2535 16.0438C12.4837 15.702 12.7537 15.3582 13.0745 15.0317C14.6977 13.3801 16.7533 12.9979 16.7533 12.9979C16.7533 12.9979 15.2018 12.7098 13.7276 11.5498C13.5067 11.3751 13.286 11.183 13.0727 10.966C11.4494 9.31432 11.0738 7.22095 11.0738 7.22095C11.0738 7.22095 10.8341 8.56723 9.89979 9.95577C9.66951 10.2976 9.39772 10.6414 9.07684 10.9678C7.45172 12.6195 5.39624 12.9997 5.39624 12.9997C5.39624 12.9997 6.94965 13.2879 8.42377 14.4478C8.64461 14.6245 8.86545 14.8166 9.07873 15.0336V15.0317Z" fill="#886CFF"/>
<path d="M41.6134 11.623L35.8113 11.1737C34.0673 11.0412 33.3915 10.6705 33.3915 9.21475C33.3915 7.65338 34.0936 7.17708 36.0981 7.17708H40.8075C42.4722 7.17708 43.1744 7.759 43.331 9.29542C43.3574 9.71986 43.5651 9.95799 43.9822 9.95799H46.3245C46.7417 9.95799 46.9758 9.71986 46.9493 9.27044C46.7681 5.53695 44.9203 3.65869 40.8093 3.65869H36.049C31.5229 3.65869 29.8317 5.61762 29.8317 9.19171C29.8317 12.7658 31.4191 14.0103 35.4262 14.3271L41.2283 14.7766C42.9723 14.9091 43.6481 15.3067 43.6481 16.7892C43.6481 18.2719 42.9459 18.827 40.9679 18.827H35.8679C34.1767 18.827 33.4745 18.245 33.3179 16.7086C33.2915 16.2842 33.0838 16.0461 32.6667 16.0461H30.3508C29.9336 16.0461 29.6996 16.2842 29.726 16.7336C29.9072 20.467 31.7287 22.3453 35.866 22.3453H40.9905C45.5432 22.3453 47.2343 20.3864 47.2343 16.8123C47.2343 13.2383 45.5696 11.9419 41.6153 11.623H41.6134Z" fill="white"/>
<path d="M63.4687 11.3311H53.6065V3.65479H49.9901V22.3433H53.6065V14.5883H63.4687V22.3433H67.1095V3.65479H63.4687V11.3311Z" fill="white"/>
<path d="M85.0352 16.0441C85.0352 18.3198 84.2537 18.823 82.5116 18.823H76.6585C74.9144 18.823 74.1085 18.3198 74.1085 16.0441V3.65479H70.4921V15.9116C70.4921 19.8563 72.3399 22.3433 76.6585 22.3433H82.5116C86.8037 22.3433 88.678 19.8544 88.678 15.9116V3.65479H85.0352V16.0441Z" fill="white"/>
<path d="M92.0602 22.3433H95.6502V14.5077H103.298V11.2524H95.6502V7.17509H107.175V3.65479H92.0602V22.3433Z" fill="white"/>
<path d="M109.335 22.3433H112.925V14.5077H120.575V11.2524H112.925V7.17509H124.452V3.65479H109.335V22.3433Z" fill="white"/>
<path d="M130.225 3.65479H126.608V22.3433H141.518V18.823H130.225V3.65479Z" fill="white"/>
<path d="M159 7.17509V3.65479H143.468V22.3433H159V18.823H147.058V14.5077H154.998V11.2524H147.058V7.17509H159Z" fill="white"/>
</g>
</g>
<defs>
<clipPath id="clip0_259_333">
<rect width="159" height="26" fill="white"/>
</clipPath>
</defs>
</svg>
