<svg width="127" height="20" viewBox="0 0 127 20" fill="none" xmlns="http://www.w3.org/2000/svg">
<g clip-path="url(#clip0_103_782)">
<path d="M9.53432 0.481201H15.5486L24.9823 19.0988H21.1002L18.0629 13.1139H6.85907L3.82177 19.1188H0L9.53432 0.481201ZM16.5543 10.1013L12.471 2.00756L8.36768 10.1013H16.5543Z" fill="#8D8F72"/>
<path d="M26.6718 11.226V0.481201H30.2322V11.1055C30.2322 14.7607 32.0022 16.3674 37.051 16.3674C41.0538 16.3674 43.9906 15.1021 45.6198 12.1498C44.9962 16.8695 42.5422 19.4201 36.347 19.4201C29.7293 19.4 26.6718 17.0503 26.6718 11.226ZM45.5997 0.481201H49.1198V19.0988H45.5997V0.481201Z" fill="#8D8F72"/>
<path d="M54.068 0.481201H67.3234C72.9154 0.481201 75.0877 1.96739 75.0877 5.06028C75.0877 8.05275 72.7946 9.47867 68.8119 9.47867V9.51883H69.5964C71.9901 9.51883 74.0618 10.8042 74.3837 13.7364L74.967 19.0988H71.467L71.0849 15.2025C70.8636 12.9532 69.7976 12.2704 67.0218 12.2704H57.588V19.1188H54.0881V0.481201H54.068ZM57.5679 3.35317V9.35819H66.4786C70.1596 9.35819 71.5878 8.39419 71.5878 6.32555C71.5878 4.23685 70.1395 3.35317 66.4586 3.35317H57.5679Z" fill="#8D8F72"/>
<path d="M77.8836 9.77987C77.8836 3.81502 82.3488 0.199951 90.2336 0.199951C98.1592 0.199951 102.605 3.81502 102.605 9.77987C102.605 15.7448 98.1592 19.4 90.2336 19.4C82.3488 19.4 77.8836 15.7448 77.8836 9.77987ZM98.964 9.77987C98.964 5.72297 95.8864 3.23259 90.2336 3.23259C84.6016 3.23259 81.5448 5.72297 81.5448 9.77987C81.5448 13.9171 84.6216 16.3673 90.2336 16.3673C95.8864 16.3673 98.964 13.9171 98.964 9.77987Z" fill="#8D8F72"/>
<path d="M106.004 18.2752V15.082C108.498 15.9255 111.857 16.5079 115.961 16.5079C121.331 16.5079 122.719 15.5037 122.719 13.8568C122.719 12.5313 121.874 11.7883 118.414 11.5071L113.084 11.0452C107.291 10.5632 105.582 8.75563 105.582 5.88363C105.582 2.48949 108.398 0.199951 116.443 0.199951C120.748 0.199951 123.946 0.641792 125.817 1.16397V4.23678C123.524 3.65434 120.124 3.27275 116.383 3.27275C110.69 3.27275 109.202 4.43761 109.202 5.86355C109.202 7.18907 110.047 7.7715 113.426 8.09284L118.656 8.57483C124.409 9.09699 126.38 10.4426 126.38 13.5155C126.38 17.1707 123.785 19.42 115.659 19.42C111.797 19.4 108.237 18.938 106.004 18.2752Z" fill="#8D8F72"/>
</g>
<defs>
<clipPath id="clip0_103_782">
<rect width="126.4" height="19.2" fill="white" transform="translate(0 0.199951)"/>
</clipPath>
</defs>
</svg>
