<svg width="514" height="442" viewBox="0 0 514 442" fill="none" xmlns="http://www.w3.org/2000/svg">
<rect x="0.5" y="0.5" width="513" height="441" rx="15.5" fill="url(#paint0_linear_186_3253)"/>
<rect x="0.5" y="0.5" width="513" height="441" rx="15.5" stroke="#3D3E31"/>
<g clip-path="url(#clip0_186_3253)">
<path d="M143.48 146.726V177.582C143.48 181.143 144.549 184.62 146.549 187.56C148.548 190.5 151.384 192.765 154.685 194.058L227.96 222.768" stroke="#A6DB07" stroke-width="3"/>
<path d="M164.6 314.726C164.6 303.006 174.056 293.505 185.72 293.505H321.24C332.904 293.505 342.36 303.006 342.36 314.726V443.821H164.6V314.726Z" fill="#213102"/>
<path d="M258.41 320.671H257.259V315.8H255.204V314.837H260.494V315.8H258.41V320.671ZM249.451 317.754C249.451 316.856 249.728 316.134 250.29 315.569C250.852 315.004 251.543 314.726 252.364 314.726C253.221 314.726 253.875 314.967 254.345 315.458C254.815 315.939 255.082 316.551 255.128 317.282L254.023 317.328C253.976 316.893 253.82 316.523 253.553 316.217C253.285 315.902 252.889 315.745 252.364 315.745C251.332 315.745 250.649 316.532 250.649 317.754C250.649 318.977 251.332 319.764 252.364 319.764C252.889 319.764 253.285 319.607 253.553 319.301C253.821 318.985 253.985 318.594 254.023 318.181L255.128 318.227C255.082 318.958 254.815 319.569 254.345 320.06C253.875 320.542 253.221 320.783 252.364 320.783C251.543 320.783 250.852 320.505 250.29 319.94C249.728 319.375 249.451 318.653 249.451 317.754ZM246.364 316.152L245.507 318.337H247.277L246.401 316.152H246.364ZM248.208 320.671L247.627 319.226H245.157L244.594 320.671H243.433L245.783 314.837H247.065L249.433 320.671H248.208ZM239.332 317.606H240.669C241.508 317.606 241.895 317.328 241.895 316.698C241.895 316.115 241.508 315.772 240.669 315.772H239.332V317.606ZM243.121 320.671H241.941C241.821 320.514 241.747 320.106 241.701 319.467C241.655 318.81 241.361 318.513 240.696 318.513H239.332V320.671H238.199V314.837H240.826C242.3 314.837 243.038 315.54 243.038 316.615C243.038 317.494 242.457 318.013 241.757 318.096C242.42 318.217 242.761 318.625 242.826 319.301C242.899 320.152 242.927 320.458 243.121 320.671ZM235.393 320.671H234.241V315.8H232.186V314.837H237.476V315.8H235.393V320.671ZM227.654 314.837L230.401 318.726V314.837H231.47V320.671H230.548L227.581 316.56V320.671H226.511V314.837H227.654ZM225.759 317.754C225.759 318.653 225.483 319.375 224.921 319.94C224.359 320.505 223.659 320.783 222.82 320.783C221.981 320.783 221.271 320.505 220.709 319.94C220.147 319.375 219.87 318.653 219.87 317.754C219.87 316.856 220.147 316.134 220.709 315.569C221.271 315.004 221.981 314.726 222.82 314.726C223.659 314.726 224.359 315.004 224.921 315.569C225.483 316.134 225.759 316.856 225.759 317.754ZM224.571 317.754C224.571 316.532 223.888 315.745 222.82 315.745C221.751 315.745 221.068 316.532 221.068 317.754C221.068 318.977 221.751 319.764 222.82 319.764C223.888 319.764 224.571 318.977 224.571 317.754ZM213.724 317.754C213.724 316.856 214.001 316.134 214.563 315.569C215.125 315.004 215.816 314.726 216.637 314.726C217.494 314.726 218.148 314.967 218.618 315.458C219.088 315.939 219.355 316.551 219.402 317.282L218.295 317.328C218.249 316.893 218.093 316.523 217.825 316.217C217.558 315.902 217.162 315.745 216.637 315.745C215.604 315.745 214.922 316.532 214.922 317.754C214.922 318.977 215.604 319.764 216.637 319.764C217.162 319.764 217.558 319.607 217.825 319.301C218.094 318.986 218.258 318.594 218.295 318.181L219.402 318.227C219.355 318.958 219.088 319.569 218.618 320.06C218.148 320.542 217.494 320.783 216.637 320.783C215.816 320.783 215.125 320.505 214.563 319.94C214.001 319.375 213.724 318.653 213.724 317.754ZM209.534 320.671H208.382V315.8H206.327V314.837H211.617V315.8H209.534V320.671ZM202.24 317.606H203.576C204.415 317.606 204.802 317.328 204.802 316.698C204.802 316.115 204.415 315.772 203.576 315.772H202.24V317.606ZM206.028 320.671H204.848C204.728 320.514 204.655 320.106 204.608 319.467C204.563 318.81 204.267 318.513 203.604 318.513H202.24V320.671H201.106V314.837H203.733C205.207 314.837 205.945 315.54 205.945 316.615C205.945 317.494 205.364 318.013 204.664 318.096C205.328 318.217 205.668 318.625 205.733 319.301C205.807 320.152 205.834 320.458 206.028 320.671ZM197.479 316.152L196.621 318.337H198.391L197.515 316.152H197.479ZM199.322 320.671L198.741 319.226H196.271L195.709 320.671H194.548L196.898 314.837H198.178L200.547 320.671H199.322ZM191.39 320.671H190.404L188.985 316.078H188.948V320.671H187.879V314.837H189.695L190.966 319.078H190.994L192.201 314.837H193.98V320.671H192.819V316.078H192.782L191.39 320.671ZM182.2 318.597L183.26 318.551C183.306 319.449 183.961 319.866 184.771 319.866C185.481 319.866 185.951 319.579 185.951 319.088C185.951 318.643 185.591 318.477 184.992 318.356L183.887 318.153C182.993 317.996 182.357 317.486 182.357 316.523C182.357 315.977 182.56 315.541 182.956 315.217C183.352 314.893 183.896 314.726 184.568 314.726C186.08 314.726 186.955 315.523 186.965 316.81L185.905 316.847C185.868 316.06 185.343 315.634 184.56 315.634C183.887 315.634 183.49 315.949 183.49 316.439C183.49 316.856 183.795 317.013 184.32 317.115L185.389 317.31C186.532 317.523 187.066 318.079 187.066 319.014C187.066 319.588 186.845 320.023 186.403 320.329C185.969 320.635 185.425 320.783 184.771 320.783C184.025 320.783 183.417 320.597 182.928 320.218C182.439 319.838 182.2 319.292 182.2 318.597Z" fill="#608506"/>
<g filter="url(#filter0_i_186_3253)">
<path d="M182.2 83.0631H110.04C106.152 83.0631 103 86.2301 103 90.1368V139.653C103 143.559 106.152 146.726 110.04 146.726H182.2C186.088 146.726 189.24 143.559 189.24 139.653V90.1368C189.24 86.2301 186.088 83.0631 182.2 83.0631Z" fill="#213102"/>
</g>
<path d="M132.012 115.313H135.92V118.846H132.012V115.313Z" fill="#D8FE53"/>
<path d="M133.58 109.818H134.361V143.185H133.58V109.818Z" fill="#D8FE53"/>
<path d="M157.01 104.723H160.917V118.07H157.01V104.723Z" fill="#4E690B"/>
<path d="M158.577 89.8055H159.359V119.247H158.577V89.8055ZM113.257 108.646H117.165V118.853H113.257V108.646Z" fill="#4E690B"/>
<path d="M114.825 103.151H115.606V126.312H114.825V103.151ZM182.017 104.713H185.924V114.919H182.017V104.713Z" fill="#4E690B"/>
<path d="M183.584 99.217H184.365V122.378H183.584V99.217ZM119.491 105.507H123.398V112.573H119.491V105.507Z" fill="#4E690B"/>
<path d="M121.058 103.151H121.84V115.714H121.058V103.151ZM163.267 113.364H167.174V120.43H163.267V113.364Z" fill="#4E690B"/>
<path d="M164.833 111.009H165.615V123.571H164.833V111.009ZM169.513 113.748H173.421V116.496H169.513V113.748Z" fill="#4E690B"/>
<path d="M171.081 109.431H171.862V117.282H171.081V109.431Z" fill="#4E690B"/>
<path d="M106.988 111.002H110.895V118.068H106.988V111.002Z" fill="#D8FE53"/>
<path d="M108.555 108.646H109.337V121.209H108.555V108.646ZM138.264 107.462H142.171V114.528H138.264V107.462Z" fill="#D8FE53"/>
<path d="M139.832 105.106H140.613V117.668H139.832V105.106ZM175.765 114.142H179.672V121.208H175.765V114.142Z" fill="#D8FE53"/>
<path d="M177.332 111.786H178.114V124.349H177.332V111.786ZM125.756 107.862H129.663V114.928H125.756V107.862Z" fill="#D8FE53"/>
<path d="M127.324 105.507H128.105V118.069H127.324V105.507ZM144.497 103.155H148.404V116.894H144.497V103.155Z" fill="#D8FE53"/>
<path d="M146.065 100.799H146.846V120.035H146.065V100.799ZM150.758 116.501H154.665V123.174H150.758V116.501Z" fill="#D8FE53"/>
<path d="M152.326 114.146H153.107V126.315H152.326V114.146Z" fill="#D8FE53"/>
<path d="M254.36 101.632V190.053" stroke="#A6DB07"/>
<path d="M368.76 146.726V177.582C368.76 181.143 367.691 184.621 365.691 187.56C363.692 190.5 360.856 192.765 357.554 194.058L284.28 222.768" stroke="#A6DB07" stroke-width="3"/>
<path d="M249.605 204.731C250.48 204.731 251.189 204.018 251.189 203.139C251.189 202.26 250.48 201.547 249.605 201.547C248.73 201.547 248.021 202.26 248.021 203.139C248.021 204.018 248.73 204.731 249.605 204.731Z" fill="#4E690B"/>
<path d="M259.115 204.731C259.99 204.731 260.699 204.018 260.699 203.139C260.699 202.26 259.99 201.547 259.115 201.547C258.241 201.547 257.531 202.26 257.531 203.139C257.531 204.018 258.241 204.731 259.115 204.731Z" fill="#213102" fill-opacity="0.25"/>
<path d="M268.612 204.731C269.487 204.731 270.196 204.018 270.196 203.139C270.196 202.26 269.487 201.547 268.612 201.547C267.738 201.547 267.028 202.26 267.028 203.139C267.028 204.018 267.738 204.731 268.612 204.731Z" fill="#41580F"/>
<path d="M240.104 214.281C240.979 214.281 241.688 213.568 241.688 212.689C241.688 211.81 240.979 211.097 240.104 211.097C239.229 211.097 238.52 211.81 238.52 212.689C238.52 213.568 239.229 214.281 240.104 214.281Z" fill="#41580F"/>
<path d="M249.605 214.281C250.48 214.281 251.189 213.568 251.189 212.689C251.189 211.81 250.48 211.097 249.605 211.097C248.73 211.097 248.021 211.81 248.021 212.689C248.021 213.568 248.73 214.281 249.605 214.281Z" fill="#213102" fill-opacity="0.25"/>
<path d="M268.612 214.281C269.487 214.281 270.196 213.568 270.196 212.689C270.196 211.81 269.487 211.097 268.612 211.097C267.738 211.097 267.028 211.81 267.028 212.689C267.028 213.568 267.738 214.281 268.612 214.281Z" fill="#4E690B"/>
<g filter="url(#filter1_d_186_3253)">
<path d="M240.104 261.32C240.979 261.32 241.688 260.607 241.688 259.728C241.688 258.849 240.979 258.137 240.104 258.137C239.229 258.137 238.52 258.849 238.52 259.728C238.52 260.607 239.229 261.32 240.104 261.32Z" fill="#D8FE53"/>
</g>
<path d="M249.605 223.831C250.48 223.831 251.189 223.118 251.189 222.239C251.189 221.36 250.48 220.647 249.605 220.647C248.73 220.647 248.021 221.36 248.021 222.239C248.021 223.118 248.73 223.831 249.605 223.831Z" fill="#4E690B"/>
<path d="M249.605 261.32C250.48 261.32 251.189 260.607 251.189 259.728C251.189 258.849 250.48 258.137 249.605 258.137C248.73 258.137 248.021 258.849 248.021 259.728C248.021 260.607 248.73 261.32 249.605 261.32Z" fill="#4E690B"/>
<path d="M259.115 223.831C259.99 223.831 260.699 223.118 260.699 222.239C260.699 221.36 259.99 220.647 259.115 220.647C258.241 220.647 257.531 221.36 257.531 222.239C257.531 223.118 258.241 223.831 259.115 223.831Z" fill="#213102" fill-opacity="0.25"/>
<path d="M259.115 261.32C259.99 261.32 260.699 260.607 260.699 259.728C260.699 258.849 259.99 258.137 259.115 258.137C258.241 258.137 257.531 258.849 257.531 259.728C257.531 260.607 258.241 261.32 259.115 261.32Z" fill="#213102" fill-opacity="0.25"/>
<path d="M268.612 223.831C269.487 223.831 270.196 223.118 270.196 222.239C270.196 221.36 269.487 220.647 268.612 220.647C267.738 220.647 267.028 221.36 267.028 222.239C267.028 223.118 267.738 223.831 268.612 223.831Z" fill="#41580F"/>
<g filter="url(#filter2_d_186_3253)">
<path d="M268.612 261.32C269.487 261.32 270.196 260.607 270.196 259.728C270.196 258.849 269.487 258.137 268.612 258.137C267.738 258.137 267.028 258.849 267.028 259.728C267.028 260.607 267.738 261.32 268.612 261.32Z" fill="#D8FE53"/>
</g>
<path d="M240.104 233.381C240.979 233.381 241.688 232.669 241.688 231.79C241.688 230.911 240.979 230.198 240.104 230.198C239.229 230.198 238.52 230.911 238.52 231.79C238.52 232.669 239.229 233.381 240.104 233.381Z" fill="#4E690B"/>
<path d="M240.104 270.87C240.979 270.87 241.688 270.157 241.688 269.278C241.688 268.399 240.979 267.687 240.104 267.687C239.229 267.687 238.52 268.399 238.52 269.278C238.52 270.157 239.229 270.87 240.104 270.87Z" fill="#4E690B"/>
<path d="M249.605 233.381C250.48 233.381 251.189 232.669 251.189 231.79C251.189 230.911 250.48 230.198 249.605 230.198C248.73 230.198 248.021 230.911 248.021 231.79C248.021 232.669 248.73 233.381 249.605 233.381Z" fill="#41580F"/>
<path d="M249.605 270.87C250.48 270.87 251.189 270.157 251.189 269.278C251.189 268.399 250.48 267.687 249.605 267.687C248.73 267.687 248.021 268.399 248.021 269.278C248.021 270.157 248.73 270.87 249.605 270.87Z" fill="#41580F"/>
<path d="M259.115 233.381C259.99 233.381 260.699 232.669 260.699 231.79C260.699 230.911 259.99 230.198 259.115 230.198C258.241 230.198 257.531 230.911 257.531 231.79C257.531 232.669 258.241 233.381 259.115 233.381Z" fill="#213102" fill-opacity="0.25"/>
<path d="M259.115 270.87C259.99 270.87 260.699 270.157 260.699 269.278C260.699 268.399 259.99 267.687 259.115 267.687C258.241 267.687 257.531 268.399 257.531 269.278C257.531 270.157 258.241 270.87 259.115 270.87Z" fill="#213102" fill-opacity="0.25"/>
<path d="M268.612 233.381C269.487 233.381 270.196 232.669 270.196 231.79C270.196 230.911 269.487 230.198 268.612 230.198C267.738 230.198 267.028 230.911 267.028 231.79C267.028 232.669 267.738 233.381 268.612 233.381Z" fill="#4E690B"/>
<path d="M268.612 270.87C269.487 270.87 270.196 270.157 270.196 269.278C270.196 268.399 269.487 267.687 268.612 267.687C267.738 267.687 267.028 268.399 267.028 269.278C267.028 270.157 267.738 270.87 268.612 270.87Z" fill="#4E690B"/>
<path d="M240.104 242.928C240.979 242.928 241.688 242.215 241.688 241.336C241.688 240.457 240.979 239.745 240.104 239.745C239.229 239.745 238.52 240.457 238.52 241.336C238.52 242.215 239.229 242.928 240.104 242.928Z" fill="#213102" fill-opacity="0.25"/>
<path d="M240.104 280.417C240.979 280.417 241.688 279.704 241.688 278.825C241.688 277.946 240.979 277.233 240.104 277.233C239.229 277.233 238.52 277.946 238.52 278.825C238.52 279.704 239.229 280.417 240.104 280.417Z" fill="#213102" fill-opacity="0.25"/>
<path d="M249.605 242.928C250.48 242.928 251.189 242.215 251.189 241.336C251.189 240.457 250.48 239.745 249.605 239.745C248.73 239.745 248.021 240.457 248.021 241.336C248.021 242.215 248.73 242.928 249.605 242.928Z" fill="#41580F"/>
<g filter="url(#filter3_d_186_3253)">
<path d="M249.605 280.417C250.48 280.417 251.189 279.704 251.189 278.825C251.189 277.946 250.48 277.233 249.605 277.233C248.73 277.233 248.021 277.946 248.021 278.825C248.021 279.704 248.73 280.417 249.605 280.417Z" fill="#D8FE53"/>
</g>
<path d="M259.115 242.928C259.99 242.928 260.699 242.215 260.699 241.336C260.699 240.457 259.99 239.745 259.115 239.745C258.241 239.745 257.531 240.457 257.531 241.336C257.531 242.215 258.241 242.928 259.115 242.928Z" fill="#213102" fill-opacity="0.25"/>
<path d="M259.115 280.417C259.99 280.417 260.699 279.704 260.699 278.825C260.699 277.946 259.99 277.233 259.115 277.233C258.241 277.233 257.531 277.946 257.531 278.825C257.531 279.704 258.241 280.417 259.115 280.417Z" fill="#213102" fill-opacity="0.25"/>
<path d="M268.612 242.928C269.487 242.928 270.196 242.215 270.196 241.336C270.196 240.457 269.487 239.745 268.612 239.745C267.738 239.745 267.028 240.457 267.028 241.336C267.028 242.215 267.738 242.928 268.612 242.928Z" fill="#41580F"/>
<path d="M268.612 280.417C269.487 280.417 270.196 279.704 270.196 278.825C270.196 277.946 269.487 277.233 268.612 277.233C267.738 277.233 267.028 277.946 267.028 278.825C267.028 279.704 267.738 280.417 268.612 280.417Z" fill="#41580F"/>
<g filter="url(#filter4_d_186_3253)">
<path d="M240.104 289.967C240.979 289.967 241.688 289.255 241.688 288.376C241.688 287.497 240.979 286.784 240.104 286.784C239.229 286.784 238.52 287.497 238.52 288.376C238.52 289.255 239.229 289.967 240.104 289.967Z" fill="#D8FE53"/>
</g>
<path d="M249.605 252.478C250.48 252.478 251.189 251.765 251.189 250.886C251.189 250.007 250.48 249.295 249.605 249.295C248.73 249.295 248.021 250.007 248.021 250.886C248.021 251.765 248.73 252.478 249.605 252.478Z" fill="#41580F"/>
<path d="M249.605 289.967C250.48 289.967 251.189 289.255 251.189 288.376C251.189 287.497 250.48 286.784 249.605 286.784C248.73 286.784 248.021 287.497 248.021 288.376C248.021 289.255 248.73 289.967 249.605 289.967Z" fill="#41580F"/>
<path d="M259.115 289.967C259.99 289.967 260.699 289.255 260.699 288.376C260.699 287.497 259.99 286.784 259.115 286.784C258.241 286.784 257.531 287.497 257.531 288.376C257.531 289.255 258.241 289.967 259.115 289.967Z" fill="#213102" fill-opacity="0.25"/>
<path d="M268.612 252.478C269.487 252.478 270.196 251.765 270.196 250.886C270.196 250.007 269.487 249.295 268.612 249.295C267.738 249.295 267.028 250.007 267.028 250.886C267.028 251.765 267.738 252.478 268.612 252.478Z" fill="#213102" fill-opacity="0.25"/>
<g filter="url(#filter5_d_186_3253)">
<path d="M268.612 289.967C269.487 289.967 270.196 289.255 270.196 288.376C270.196 287.497 269.487 286.784 268.612 286.784C267.738 286.784 267.028 287.497 267.028 288.376C267.028 289.255 267.738 289.967 268.612 289.967Z" fill="#D8FE53"/>
</g>
<g filter="url(#filter6_i_186_3253)">
<path d="M251.72 187.163C252.523 186.697 253.433 186.452 254.36 186.452C255.287 186.452 256.197 186.697 257 187.163L283.729 202.669C284.531 203.134 285.198 203.804 285.661 204.61C286.124 205.417 286.368 206.332 286.369 207.263V238.274C286.368 239.205 286.124 240.12 285.661 240.926C285.198 241.733 284.531 242.403 283.729 242.868L257 258.374C256.197 258.839 255.287 259.085 254.36 259.085C253.433 259.085 252.523 258.839 251.72 258.374L224.991 242.868C224.189 242.403 223.522 241.733 223.059 240.926C222.596 240.12 222.352 239.205 222.351 238.274V207.263C222.352 206.332 222.596 205.417 223.059 204.61C223.522 203.804 224.189 203.134 224.991 202.669L251.72 187.163Z" fill="#213102"/>
</g>
<g filter="url(#filter7_i_186_3253)">
<path d="M404.988 83.0631H332.532C329.212 83.0631 326.52 85.7546 326.52 89.0746V140.715C326.52 144.035 329.212 146.726 332.532 146.726H404.988C408.308 146.726 411 144.035 411 140.715V89.0746C411 85.7546 408.308 83.0631 404.988 83.0631Z" fill="#213102"/>
</g>
<path d="M409.854 141.117H330.444V142.298M335.742 141.117V142.298M341.031 141.117V142.298M346.329 141.117V142.298M351.618 141.117V142.298M356.921 141.117V142.298M362.215 141.117V142.298M367.509 141.117V142.298M372.803 141.117V142.298M378.096 141.117V142.298M383.39 141.117V142.298M388.684 141.117V142.298M393.977 141.117V142.298M399.271 141.117V142.298M404.565 141.117V142.298" stroke="#41580F" stroke-width="0.6" stroke-miterlimit="10"/>
<path d="M409.859 141.117V142.298" stroke="#213102" stroke-width="0.6" stroke-miterlimit="10"/>
<path d="M333.092 140.155H407.21V129.863L401.965 119.677C401.931 119.605 401.907 119.529 401.894 119.45L397.234 89.2385C397.234 89.0884 397.174 88.9445 397.069 88.8384C396.963 88.7322 396.82 88.6726 396.671 88.6726C396.521 88.6726 396.378 88.7322 396.272 88.8384C396.167 88.9445 396.107 89.0884 396.107 89.2385L391.362 126.121C391.34 126.297 391.252 126.459 391.116 126.573L386.547 130.11C386.481 130.159 386.405 130.193 386.324 130.208C386.244 130.222 386.16 130.218 386.082 130.196C386.003 130.173 385.93 130.133 385.869 130.077C385.808 130.022 385.761 129.953 385.73 129.877L381.126 120.334C381.092 120.245 381.035 120.166 380.96 120.107C380.885 120.048 380.796 120.01 380.701 119.997C380.606 119.985 380.51 119.999 380.423 120.037C380.335 120.075 380.26 120.136 380.204 120.214L375.445 126.404L370.151 133.265L364.857 126.404L360.189 120.356C360.128 120.271 360.044 120.207 359.946 120.17C359.849 120.133 359.743 120.125 359.642 120.148C359.54 120.17 359.447 120.222 359.375 120.297C359.302 120.371 359.252 120.465 359.232 120.568L354.304 136.01L349.01 108.486L343.716 138.754L338.422 134.637L334.198 122.683C333.958 121.976 333.099 122.202 333.099 122.938L333.092 140.155Z" fill="#D8FE53"/>
<g filter="url(#filter8_i_186_3253)">
<path d="M296.101 53H212.616C209.426 53 206.84 54.446 206.84 56.2297V102.913C206.84 104.697 209.426 106.143 212.616 106.143H296.101C299.291 106.143 301.877 104.697 301.877 102.913V56.2303C301.877 54.4466 299.291 53.0006 296.101 53.0006V53Z" fill="#213102"/>
</g>
<path d="M223.979 81.5493C222.993 81.5493 222.127 81.3654 221.381 80.9976C220.649 80.6156 220.072 80.0992 219.649 79.4485C219.227 78.7977 219.016 78.0549 219.016 77.2203C219.016 76.2865 219.262 75.4943 219.755 74.8435C220.248 74.1927 220.818 73.74 221.466 73.4853V73.3792C220.862 73.0959 220.345 72.6565 219.966 72.106C219.6 71.5401 219.417 70.8822 219.417 70.1324C219.417 69.4109 219.6 68.7531 219.966 68.1589C220.346 67.5505 220.881 67.0695 221.571 66.7158C222.261 66.3621 223.064 66.1853 223.979 66.1853C224.88 66.1853 225.668 66.3621 226.344 66.7158C227.034 67.0695 227.569 67.5505 227.949 68.1589C228.34 68.7417 228.546 69.4297 228.541 70.1324C228.541 70.8822 228.351 71.5401 227.971 72.106C227.604 72.6577 227.112 73.0821 226.492 73.3792V73.4853C227.14 73.74 227.71 74.1927 228.203 74.8435C228.696 75.4943 228.942 76.2865 228.942 77.2203C228.942 78.0549 228.731 78.7977 228.308 79.4485C227.886 80.0992 227.302 80.6156 226.555 80.9976C225.823 81.3654 224.964 81.5493 223.979 81.5493ZM223.979 72.7214C224.852 72.7214 225.535 72.495 226.027 72.0423C226.534 71.5755 226.788 70.9742 226.788 70.2385C226.788 69.517 226.534 68.9299 226.027 68.4772C225.535 68.0103 224.852 67.7769 223.979 67.7769C223.106 67.7769 222.416 68.0103 221.909 68.4772C221.416 68.9299 221.17 69.517 221.17 70.2385C221.17 70.9742 221.416 71.5755 221.909 72.0423C222.416 72.495 223.106 72.7214 223.979 72.7214ZM223.979 79.9365C224.922 79.9365 225.683 79.696 226.26 79.215C226.851 78.7199 227.147 78.0054 227.147 77.0717C227.147 76.1521 226.851 75.4518 226.26 74.9708C225.683 74.4757 224.922 74.2281 223.979 74.2281C223.035 74.2281 222.268 74.4757 221.677 74.9708C221.099 75.4518 220.811 76.1521 220.811 77.0717C220.811 78.0054 221.099 78.7199 221.677 79.215C222.268 79.696 223.035 79.9365 223.979 79.9365ZM230.025 81.2947V79.6819H233.848V68.5408L230.236 69.2411V67.883L234.439 66.44H235.622V79.6819H239.656V81.2947H230.025Z" fill="#D8FE53"/>
<path d="M235.811 90.1781H238.956V90.7452H236.424V92.332H238.533V92.8985H236.424V94.5709H239.047V95.1373H235.811V90.1781ZM229.844 90.1781H230.619L232.368 94.2944L234.095 90.1781H234.857V95.1373H234.258V91.2274L232.622 95.1379H232.079L230.443 91.2274V95.1379H229.844V90.1781ZM229.068 92.6592C229.068 93.1408 228.967 93.5729 228.764 93.9554C228.576 94.3276 228.288 94.6393 227.932 94.855C227.575 95.0725 227.169 95.181 226.713 95.181C226.256 95.181 225.85 95.0725 225.492 94.855C225.136 94.6383 224.846 94.327 224.654 93.9554C224.456 93.5729 224.357 93.1408 224.357 92.6586C224.357 92.177 224.456 91.7449 224.654 91.3624C224.846 90.9907 225.136 90.6795 225.492 90.4628C225.85 90.2453 226.256 90.1368 226.713 90.1368C227.169 90.1368 227.575 90.2453 227.932 90.4628C228.288 90.6785 228.576 90.9901 228.764 91.3624C228.967 91.7455 229.068 92.177 229.068 92.6592ZM224.985 92.6592C224.985 93.0365 225.058 93.3748 225.204 93.6719C225.349 93.9649 225.552 94.1965 225.81 94.3663C226.073 94.5314 226.374 94.6139 226.713 94.6139C227.051 94.6139 227.349 94.5314 227.608 94.3663C227.872 94.1955 228.084 93.9554 228.222 93.6719C228.367 93.3748 228.44 93.0371 228.44 92.6592C228.44 92.2813 228.367 91.9459 228.222 91.653C228.087 91.3677 227.874 91.1269 227.608 90.9586C227.341 90.7863 227.03 90.6975 226.713 90.7033C226.374 90.7033 226.073 90.7888 225.81 90.9586C225.547 91.1286 225.337 91.3692 225.204 91.653C225.058 91.9459 224.985 92.2813 224.985 92.6592ZM219.807 90.1716H220.42V92.332H222.972V90.1722H223.586V95.1385H222.972V92.8997H220.42V95.1385H219.807V90.1722V90.1716Z" fill="#C5F526"/>
<path d="M249.671 81.3372C249.234 81.3372 248.861 81.1886 248.551 80.8916C248.242 80.5945 248.087 80.2266 248.087 79.7881C248.087 79.3636 248.242 79.0029 248.551 78.7058C248.699 78.5608 248.875 78.4468 249.067 78.3703C249.259 78.2938 249.464 78.2564 249.671 78.2601C250.107 78.2601 250.48 78.4087 250.79 78.7058C251.1 79.0029 251.255 79.3636 251.255 79.7881C251.255 80.2266 251.1 80.5945 250.79 80.8916C250.642 81.0365 250.467 81.1505 250.275 81.227C250.083 81.3035 249.877 81.341 249.671 81.3372ZM249.671 72.9549C249.234 72.9549 248.861 72.8063 248.551 72.5092C248.242 72.2121 248.087 71.8443 248.087 71.4057C248.087 70.9813 248.242 70.6206 248.551 70.3235C248.699 70.1785 248.875 70.0645 249.067 69.988C249.259 69.9115 249.464 69.874 249.671 69.8778C250.107 69.8778 250.48 70.0264 250.79 70.3235C251.1 70.6206 251.255 70.9813 251.255 71.4057C251.255 71.8443 251.1 72.2121 250.79 72.5092C250.642 72.6542 250.467 72.7682 250.275 72.8447C250.083 72.9212 249.877 72.9586 249.671 72.9549Z" fill="#D8FE53"/>
<path d="M259.429 81.2947V79.6819H263.252V68.5408L259.641 69.2411V67.883L263.844 66.44H265.026V79.6819H269.06V81.2947H259.429ZM275.191 81.5493C274.079 81.5493 273.093 81.2381 272.234 80.6156C271.389 79.9931 270.727 79.1089 270.249 77.963C269.784 76.8171 269.552 75.4518 269.552 73.8673C269.552 72.2828 269.784 70.9176 270.249 69.7717C270.727 68.6257 271.389 67.7415 272.234 67.119C273.093 66.4965 274.079 66.1853 275.191 66.1853C276.317 66.1853 277.303 66.4965 278.148 67.119C278.992 67.7415 279.647 68.6257 280.112 69.7717C280.591 70.9176 280.83 72.2828 280.83 73.8673C280.83 75.4518 280.591 76.8171 280.112 77.963C279.647 79.1089 278.992 79.9931 278.148 80.6156C277.303 81.2381 276.317 81.5493 275.191 81.5493ZM271.368 73.8673C271.368 74.8293 271.467 75.6994 271.664 76.4775C271.875 77.2415 272.164 77.8852 272.53 78.4086L276.627 68.2013C276.187 67.9598 275.692 67.8356 275.191 67.8405C274.445 67.8405 273.783 68.0881 273.206 68.5833C272.628 69.0643 272.178 69.7575 271.854 70.6629C271.53 71.5542 271.368 72.6224 271.368 73.8673ZM275.191 79.9153C275.917 79.9225 276.622 79.6664 277.176 79.1938C277.753 78.6987 278.204 77.9984 278.528 77.0929C278.852 76.1875 279.014 75.1123 279.014 73.8673C279.014 72.9053 278.908 72.0423 278.697 71.2784C278.5 70.5002 278.218 69.8495 277.852 69.326L273.734 79.5546C274.182 79.7946 274.683 79.9185 275.191 79.9153ZM281.237 81.2947V79.6819H285.06V68.5408L281.448 69.2411V67.883L285.651 66.44H286.834V79.6819H290.868V81.2947H281.237Z" fill="#D8FE53"/>
<path d="M282.176 90.1852H285.991V90.7517H284.39V95.1444H283.777V90.7517H282.176V90.1852ZM278.85 93.5234C278.874 93.8588 279.008 94.1276 279.252 94.3309C279.496 94.5296 279.807 94.6286 280.183 94.6286C280.521 94.6286 280.794 94.5555 281.001 94.4088C281.212 94.2579 281.318 94.0498 281.318 93.7857C281.318 93.5917 281.259 93.4379 281.142 93.3247C281.017 93.205 280.864 93.1197 280.697 93.0771C280.457 93.0063 280.212 92.9517 279.964 92.9139C279.471 92.829 279.078 92.6899 278.786 92.4959C278.495 92.3026 278.349 91.9884 278.349 91.5539C278.349 91.2751 278.42 91.0293 278.561 90.8171C278.702 90.5996 278.9 90.4322 279.153 90.3143C279.412 90.1964 279.706 90.1368 280.035 90.1368C280.383 90.1368 280.69 90.2005 280.958 90.3284C281.215 90.4449 281.434 90.6303 281.592 90.8641C281.75 91.098 281.84 91.3712 281.854 91.6536H281.248C281.233 91.5175 281.191 91.3858 281.124 91.2664C281.057 91.147 280.968 91.0423 280.86 90.9586C280.639 90.7841 280.364 90.6963 280.035 90.6963C279.706 90.6963 279.445 90.7699 279.252 90.9161C279.059 91.0576 278.963 91.258 278.963 91.5186C278.963 91.7072 279.019 91.8563 279.132 91.9648C279.245 92.0685 279.391 92.1487 279.569 92.2053C279.748 92.2578 279.993 92.3096 280.302 92.3615C280.796 92.4464 281.191 92.5879 281.487 92.7859C281.783 92.9805 281.932 93.2941 281.932 93.7291C281.932 94.012 281.856 94.2649 281.706 94.4866C281.56 94.7088 281.353 94.8815 281.085 95.0041C280.822 95.1267 280.519 95.188 280.176 95.188C279.79 95.188 279.454 95.1197 279.167 94.9829C278.894 94.8529 278.662 94.6493 278.498 94.3946C278.34 94.131 278.252 93.8309 278.244 93.5234H278.85ZM274.504 90.1852H277.648V90.7517H275.117V92.3391H277.225V92.9056H275.117V94.5779H277.74V95.1444H274.504V90.1852ZM270.424 90.1852V93.0618C270.424 94.1005 270.845 94.6204 271.686 94.6204C272.537 94.6204 272.962 94.1005 272.962 93.0618V90.1852H273.576V93.0264C273.576 93.7344 273.413 94.2732 273.089 94.6416C272.77 95.0053 272.301 95.1869 271.686 95.1869C271.07 95.1869 270.602 95.0053 270.283 94.6416C269.968 94.2732 269.81 93.7344 269.81 93.0264V90.1852H270.424ZM264.384 92.6657C264.384 92.1699 264.48 91.7308 264.673 91.3482C264.855 90.9775 265.142 90.6693 265.498 90.4628C265.855 90.25 266.269 90.1439 266.739 90.1439C267.284 90.1439 267.74 90.2925 268.107 90.5901C268.478 90.8878 268.71 91.2916 268.805 91.8015H268.198C268.104 91.4567 267.928 91.1902 267.67 91.001C267.411 90.8077 267.096 90.7104 266.725 90.7104C266.386 90.7104 266.085 90.7929 265.822 90.958C265.561 91.1274 265.352 91.3685 265.223 91.653C265.082 91.9501 265.012 92.2878 265.012 92.6657C265.012 93.0435 265.082 93.3813 265.223 93.679C265.364 93.9767 265.564 94.2077 265.822 94.3734C266.08 94.5384 266.377 94.621 266.711 94.621C267.011 94.621 267.28 94.5644 267.514 94.4512C267.754 94.3333 267.94 94.1682 268.072 93.9554C268.208 93.7379 268.276 93.4856 268.276 93.1974V93.027H266.795V92.4605H268.875V95.1456H268.367L268.304 94.3592C268.168 94.5809 267.963 94.7748 267.691 94.9399C267.418 95.1049 267.089 95.1875 266.703 95.1875C266.252 95.1875 265.85 95.0813 265.498 94.8691C265.146 94.6574 264.86 94.3506 264.673 93.9837C264.48 93.6006 264.384 93.162 264.384 92.6657Z" fill="#C5F526"/>
<path d="M291.949 326.695C292.297 326.695 292.579 326.412 292.579 326.062C292.579 325.713 292.297 325.43 291.949 325.43C291.602 325.43 291.32 325.713 291.32 326.062C291.32 326.412 291.602 326.695 291.949 326.695Z" fill="#608506"/>
<path d="M310.622 326.695C310.97 326.695 311.251 326.412 311.251 326.062C311.251 325.713 310.97 325.43 310.622 325.43C310.274 325.43 309.992 325.713 309.992 326.062C309.992 326.412 310.274 326.695 310.622 326.695Z" fill="#608506"/>
<path d="M291.949 314.893C292.297 314.893 292.579 314.61 292.579 314.261C292.579 313.911 292.297 313.628 291.949 313.628C291.602 313.628 291.32 313.911 291.32 314.261C291.32 314.61 291.602 314.893 291.949 314.893Z" fill="#608506"/>
<path d="M310.622 314.893C310.97 314.893 311.251 314.61 311.251 314.261C311.251 313.911 310.97 313.628 310.622 313.628C310.274 313.628 309.992 313.911 309.992 314.261C309.992 314.61 310.274 314.893 310.622 314.893Z" fill="#608506"/>
<path d="M294.892 326.695C295.24 326.695 295.522 326.412 295.522 326.062C295.522 325.713 295.24 325.43 294.892 325.43C294.545 325.43 294.263 325.713 294.263 326.062C294.263 326.412 294.545 326.695 294.892 326.695Z" fill="#608506"/>
<path d="M313.555 326.695C313.903 326.695 314.185 326.412 314.185 326.062C314.185 325.713 313.903 325.43 313.555 325.43C313.208 325.43 312.926 325.713 312.926 326.062C312.926 326.412 313.208 326.695 313.555 326.695Z" fill="#608506"/>
<path d="M294.892 314.893C295.24 314.893 295.522 314.61 295.522 314.261C295.522 313.911 295.24 313.628 294.892 313.628C294.545 313.628 294.263 313.911 294.263 314.261C294.263 314.61 294.545 314.893 294.892 314.893Z" fill="#608506"/>
<path d="M313.555 314.893C313.903 314.893 314.185 314.61 314.185 314.261C314.185 313.911 313.903 313.628 313.555 313.628C313.208 313.628 312.926 313.911 312.926 314.261C312.926 314.61 313.208 314.893 313.555 314.893Z" fill="#608506"/>
<path d="M297.826 326.695C298.173 326.695 298.455 326.412 298.455 326.062C298.455 325.713 298.173 325.43 297.826 325.43C297.478 325.43 297.196 325.713 297.196 326.062C297.196 326.412 297.478 326.695 297.826 326.695Z" fill="#608506"/>
<path d="M316.498 326.695C316.846 326.695 317.128 326.412 317.128 326.062C317.128 325.713 316.846 325.43 316.498 325.43C316.15 325.43 315.869 325.713 315.869 326.062C315.869 326.412 316.15 326.695 316.498 326.695Z" fill="#608506"/>
<path d="M297.826 314.893C298.173 314.893 298.455 314.61 298.455 314.261C298.455 313.911 298.173 313.628 297.826 313.628C297.478 313.628 297.196 313.911 297.196 314.261C297.196 314.61 297.478 314.893 297.826 314.893Z" fill="#608506"/>
<path d="M316.502 314.893C316.85 314.893 317.132 314.61 317.132 314.261C317.132 313.911 316.85 313.628 316.502 313.628C316.154 313.628 315.873 313.911 315.873 314.261C315.873 314.61 316.154 314.893 316.502 314.893Z" fill="#608506"/>
<path d="M300.759 326.695C301.107 326.695 301.388 326.412 301.388 326.062C301.388 325.713 301.107 325.43 300.759 325.43C300.411 325.43 300.129 325.713 300.129 326.062C300.129 326.412 300.411 326.695 300.759 326.695Z" fill="#608506"/>
<path d="M319.435 326.695C319.783 326.695 320.065 326.412 320.065 326.062C320.065 325.713 319.783 325.43 319.435 325.43C319.088 325.43 318.806 325.713 318.806 326.062C318.806 326.412 319.088 326.695 319.435 326.695Z" fill="#608506"/>
<path d="M300.759 314.893C301.107 314.893 301.388 314.61 301.388 314.261C301.388 313.911 301.107 313.628 300.759 313.628C300.411 313.628 300.129 313.911 300.129 314.261C300.129 314.61 300.411 314.893 300.759 314.893Z" fill="#608506"/>
<path d="M319.435 314.893C319.783 314.893 320.065 314.61 320.065 314.261C320.065 313.911 319.783 313.628 319.435 313.628C319.088 313.628 318.806 313.911 318.806 314.261C318.806 314.61 319.088 314.893 319.435 314.893Z" fill="#608506"/>
<path d="M303.701 326.695C304.049 326.695 304.331 326.412 304.331 326.062C304.331 325.713 304.049 325.43 303.701 325.43C303.353 325.43 303.072 325.713 303.072 326.062C303.072 326.412 303.353 326.695 303.701 326.695Z" fill="#608506"/>
<path d="M322.373 326.695C322.721 326.695 323.003 326.412 323.003 326.062C323.003 325.713 322.721 325.43 322.373 325.43C322.026 325.43 321.744 325.713 321.744 326.062C321.744 326.412 322.026 326.695 322.373 326.695Z" fill="#608506"/>
<path d="M303.701 314.893C304.049 314.893 304.331 314.61 304.331 314.261C304.331 313.911 304.049 313.628 303.701 313.628C303.353 313.628 303.072 313.911 303.072 314.261C303.072 314.61 303.353 314.893 303.701 314.893Z" fill="#608506"/>
<path d="M322.373 314.893C322.721 314.893 323.003 314.61 323.003 314.261C323.003 313.911 322.721 313.628 322.373 313.628C322.026 313.628 321.744 313.911 321.744 314.261C321.744 314.61 322.026 314.893 322.373 314.893Z" fill="#608506"/>
<path d="M291.949 329.652C292.297 329.652 292.579 329.369 292.579 329.019C292.579 328.67 292.297 328.387 291.949 328.387C291.602 328.387 291.32 328.67 291.32 329.019C291.32 329.369 291.602 329.652 291.949 329.652Z" fill="#608506"/>
<path d="M310.622 329.652C310.97 329.652 311.251 329.369 311.251 329.019C311.251 328.67 310.97 328.387 310.622 328.387C310.274 328.387 309.992 328.67 309.992 329.019C309.992 329.369 310.274 329.652 310.622 329.652Z" fill="#608506"/>
<path d="M291.949 317.846C292.297 317.846 292.579 317.563 292.579 317.213C292.579 316.864 292.297 316.581 291.949 316.581C291.602 316.581 291.32 316.864 291.32 317.213C291.32 317.563 291.602 317.846 291.949 317.846Z" fill="#608506"/>
<path d="M310.622 317.846C310.97 317.846 311.251 317.563 311.251 317.213C311.251 316.864 310.97 316.581 310.622 316.581C310.274 316.581 309.992 316.864 309.992 317.213C309.992 317.563 310.274 317.846 310.622 317.846Z" fill="#608506"/>
<path d="M294.892 329.652C295.24 329.652 295.522 329.369 295.522 329.019C295.522 328.67 295.24 328.387 294.892 328.387C294.545 328.387 294.263 328.67 294.263 329.019C294.263 329.369 294.545 329.652 294.892 329.652Z" fill="#608506"/>
<path d="M313.555 329.652C313.903 329.652 314.185 329.369 314.185 329.019C314.185 328.67 313.903 328.387 313.555 328.387C313.208 328.387 312.926 328.67 312.926 329.019C312.926 329.369 313.208 329.652 313.555 329.652Z" fill="#608506"/>
<path d="M294.892 317.846C295.24 317.846 295.522 317.563 295.522 317.213C295.522 316.864 295.24 316.581 294.892 316.581C294.545 316.581 294.263 316.864 294.263 317.213C294.263 317.563 294.545 317.846 294.892 317.846Z" fill="#608506"/>
<path d="M313.555 317.846C313.903 317.846 314.185 317.563 314.185 317.213C314.185 316.864 313.903 316.581 313.555 316.581C313.208 316.581 312.926 316.864 312.926 317.213C312.926 317.563 313.208 317.846 313.555 317.846Z" fill="#608506"/>
<path d="M297.826 329.652C298.173 329.652 298.455 329.369 298.455 329.019C298.455 328.67 298.173 328.387 297.826 328.387C297.478 328.387 297.196 328.67 297.196 329.019C297.196 329.369 297.478 329.652 297.826 329.652Z" fill="#608506"/>
<path d="M316.498 329.652C316.846 329.652 317.128 329.369 317.128 329.019C317.128 328.67 316.846 328.387 316.498 328.387C316.15 328.387 315.869 328.67 315.869 329.019C315.869 329.369 316.15 329.652 316.498 329.652Z" fill="#608506"/>
<path d="M297.826 317.846C298.173 317.846 298.455 317.563 298.455 317.213C298.455 316.864 298.173 316.581 297.826 316.581C297.478 316.581 297.196 316.864 297.196 317.213C297.196 317.563 297.478 317.846 297.826 317.846Z" fill="#608506"/>
<path d="M316.498 317.846C316.846 317.846 317.128 317.563 317.128 317.213C317.128 316.864 316.846 316.581 316.498 316.581C316.15 316.581 315.869 316.864 315.869 317.213C315.869 317.563 316.15 317.846 316.498 317.846Z" fill="#608506"/>
<path d="M300.759 329.652C301.107 329.652 301.388 329.369 301.388 329.019C301.388 328.67 301.107 328.387 300.759 328.387C300.411 328.387 300.129 328.67 300.129 329.019C300.129 329.369 300.411 329.652 300.759 329.652Z" fill="#608506"/>
<path d="M319.435 329.652C319.783 329.652 320.065 329.369 320.065 329.019C320.065 328.67 319.783 328.387 319.435 328.387C319.088 328.387 318.806 328.67 318.806 329.019C318.806 329.369 319.088 329.652 319.435 329.652Z" fill="#608506"/>
<path d="M300.759 317.846C301.107 317.846 301.388 317.563 301.388 317.213C301.388 316.864 301.107 316.581 300.759 316.581C300.411 316.581 300.129 316.864 300.129 317.213C300.129 317.563 300.411 317.846 300.759 317.846Z" fill="#608506"/>
<path d="M319.435 317.846C319.783 317.846 320.065 317.563 320.065 317.213C320.065 316.864 319.783 316.581 319.435 316.581C319.088 316.581 318.806 316.864 318.806 317.213C318.806 317.563 319.088 317.846 319.435 317.846Z" fill="#608506"/>
<path d="M303.701 329.652C304.049 329.652 304.331 329.369 304.331 329.019C304.331 328.67 304.049 328.387 303.701 328.387C303.353 328.387 303.072 328.67 303.072 329.019C303.072 329.369 303.353 329.652 303.701 329.652Z" fill="#608506"/>
<path d="M322.373 329.652C322.721 329.652 323.003 329.369 323.003 329.019C323.003 328.67 322.721 328.387 322.373 328.387C322.026 328.387 321.744 328.67 321.744 329.019C321.744 329.369 322.026 329.652 322.373 329.652Z" fill="#608506"/>
<path d="M303.701 317.846C304.049 317.846 304.331 317.563 304.331 317.213C304.331 316.864 304.049 316.581 303.701 316.581C303.353 316.581 303.072 316.864 303.072 317.213C303.072 317.563 303.353 317.846 303.701 317.846Z" fill="#608506"/>
<path d="M322.373 317.846C322.721 317.846 323.003 317.563 323.003 317.213C323.003 316.864 322.721 316.581 322.373 316.581C322.026 316.581 321.744 316.864 321.744 317.213C321.744 317.563 322.026 317.846 322.373 317.846Z" fill="#608506"/>
<path d="M291.949 332.604C292.297 332.604 292.579 332.321 292.579 331.972C292.579 331.623 292.297 331.339 291.949 331.339C291.602 331.339 291.32 331.623 291.32 331.972C291.32 332.321 291.602 332.604 291.949 332.604Z" fill="#608506"/>
<path d="M310.622 332.604C310.97 332.604 311.251 332.321 311.251 331.972C311.251 331.623 310.97 331.339 310.622 331.339C310.274 331.339 309.992 331.623 309.992 331.972C309.992 332.321 310.274 332.604 310.622 332.604Z" fill="#608506"/>
<path d="M291.949 320.796C292.297 320.796 292.579 320.512 292.579 320.163C292.579 319.814 292.297 319.531 291.949 319.531C291.602 319.531 291.32 319.814 291.32 320.163C291.32 320.512 291.602 320.796 291.949 320.796Z" fill="#608506"/>
<path d="M310.622 320.796C310.97 320.796 311.251 320.512 311.251 320.163C311.251 319.814 310.97 319.531 310.622 319.531C310.274 319.531 309.992 319.814 309.992 320.163C309.992 320.512 310.274 320.796 310.622 320.796Z" fill="#608506"/>
<path d="M294.892 332.604C295.24 332.604 295.522 332.321 295.522 331.972C295.522 331.623 295.24 331.339 294.892 331.339C294.545 331.339 294.263 331.623 294.263 331.972C294.263 332.321 294.545 332.604 294.892 332.604Z" fill="#608506"/>
<path d="M313.555 332.604C313.903 332.604 314.185 332.321 314.185 331.972C314.185 331.623 313.903 331.339 313.555 331.339C313.208 331.339 312.926 331.623 312.926 331.972C312.926 332.321 313.208 332.604 313.555 332.604Z" fill="#608506"/>
<path d="M294.892 320.796C295.24 320.796 295.522 320.512 295.522 320.163C295.522 319.814 295.24 319.531 294.892 319.531C294.545 319.531 294.263 319.814 294.263 320.163C294.263 320.512 294.545 320.796 294.892 320.796Z" fill="#608506"/>
<path d="M313.555 320.796C313.903 320.796 314.185 320.512 314.185 320.163C314.185 319.814 313.903 319.531 313.555 319.531C313.208 319.531 312.926 319.814 312.926 320.163C312.926 320.512 313.208 320.796 313.555 320.796Z" fill="#608506"/>
<path d="M297.826 332.604C298.173 332.604 298.455 332.321 298.455 331.972C298.455 331.623 298.173 331.339 297.826 331.339C297.478 331.339 297.196 331.623 297.196 331.972C297.196 332.321 297.478 332.604 297.826 332.604Z" fill="#608506"/>
<path d="M316.498 332.604C316.846 332.604 317.128 332.321 317.128 331.972C317.128 331.623 316.846 331.339 316.498 331.339C316.15 331.339 315.869 331.623 315.869 331.972C315.869 332.321 316.15 332.604 316.498 332.604Z" fill="#608506"/>
<path d="M297.826 320.796C298.173 320.796 298.455 320.512 298.455 320.163C298.455 319.814 298.173 319.531 297.826 319.531C297.478 319.531 297.196 319.814 297.196 320.163C297.196 320.512 297.478 320.796 297.826 320.796Z" fill="#608506"/>
<path d="M316.498 320.796C316.846 320.796 317.128 320.512 317.128 320.163C317.128 319.814 316.846 319.531 316.498 319.531C316.15 319.531 315.869 319.814 315.869 320.163C315.869 320.512 316.15 320.796 316.498 320.796Z" fill="#608506"/>
<path d="M300.759 332.604C301.107 332.604 301.388 332.321 301.388 331.972C301.388 331.623 301.107 331.339 300.759 331.339C300.411 331.339 300.129 331.623 300.129 331.972C300.129 332.321 300.411 332.604 300.759 332.604Z" fill="#608506"/>
<path d="M319.435 332.604C319.783 332.604 320.065 332.321 320.065 331.972C320.065 331.623 319.783 331.339 319.435 331.339C319.088 331.339 318.806 331.623 318.806 331.972C318.806 332.321 319.088 332.604 319.435 332.604Z" fill="#608506"/>
<path d="M300.759 320.796C301.107 320.796 301.388 320.512 301.388 320.163C301.388 319.814 301.107 319.531 300.759 319.531C300.411 319.531 300.129 319.814 300.129 320.163C300.129 320.512 300.411 320.796 300.759 320.796Z" fill="#608506"/>
<path d="M319.435 320.796C319.783 320.796 320.065 320.512 320.065 320.163C320.065 319.814 319.783 319.531 319.435 319.531C319.088 319.531 318.806 319.814 318.806 320.163C318.806 320.512 319.088 320.796 319.435 320.796Z" fill="#608506"/>
<path d="M303.701 332.604C304.049 332.604 304.331 332.321 304.331 331.972C304.331 331.623 304.049 331.339 303.701 331.339C303.353 331.339 303.072 331.623 303.072 331.972C303.072 332.321 303.353 332.604 303.701 332.604Z" fill="#608506"/>
<path d="M322.373 332.604C322.721 332.604 323.003 332.321 323.003 331.972C323.003 331.623 322.721 331.339 322.373 331.339C322.026 331.339 321.744 331.623 321.744 331.972C321.744 332.321 322.026 332.604 322.373 332.604Z" fill="#608506"/>
<path d="M303.701 320.796C304.049 320.796 304.331 320.512 304.331 320.163C304.331 319.814 304.049 319.531 303.701 319.531C303.353 319.531 303.072 319.814 303.072 320.163C303.072 320.512 303.353 320.796 303.701 320.796Z" fill="#608506"/>
<path d="M322.373 320.796C322.721 320.796 323.003 320.512 323.003 320.163C323.003 319.814 322.721 319.531 322.373 319.531C322.026 319.531 321.744 319.814 321.744 320.163C321.744 320.512 322.026 320.796 322.373 320.796Z" fill="#608506"/>
<path d="M291.949 335.554C292.297 335.554 292.579 335.271 292.579 334.922C292.579 334.572 292.297 334.289 291.949 334.289C291.602 334.289 291.32 334.572 291.32 334.922C291.32 335.271 291.602 335.554 291.949 335.554Z" fill="#608506"/>
<path d="M310.622 335.554C310.97 335.554 311.251 335.271 311.251 334.922C311.251 334.572 310.97 334.289 310.622 334.289C310.274 334.289 309.992 334.572 309.992 334.922C309.992 335.271 310.274 335.554 310.622 335.554Z" fill="#608506"/>
<path d="M291.949 323.749C292.297 323.749 292.579 323.466 292.579 323.116C292.579 322.767 292.297 322.484 291.949 322.484C291.602 322.484 291.32 322.767 291.32 323.116C291.32 323.466 291.602 323.749 291.949 323.749Z" fill="#608506"/>
<path d="M310.622 323.749C310.97 323.749 311.251 323.466 311.251 323.116C311.251 322.767 310.97 322.484 310.622 322.484C310.274 322.484 309.992 322.767 309.992 323.116C309.992 323.466 310.274 323.749 310.622 323.749Z" fill="#608506"/>
<path d="M294.892 335.554C295.24 335.554 295.522 335.271 295.522 334.922C295.522 334.572 295.24 334.289 294.892 334.289C294.545 334.289 294.263 334.572 294.263 334.922C294.263 335.271 294.545 335.554 294.892 335.554Z" fill="#608506"/>
<path d="M313.555 335.554C313.903 335.554 314.185 335.271 314.185 334.922C314.185 334.572 313.903 334.289 313.555 334.289C313.208 334.289 312.926 334.572 312.926 334.922C312.926 335.271 313.208 335.554 313.555 335.554Z" fill="#608506"/>
<path d="M294.892 323.749C295.24 323.749 295.522 323.466 295.522 323.116C295.522 322.767 295.24 322.484 294.892 322.484C294.545 322.484 294.263 322.767 294.263 323.116C294.263 323.466 294.545 323.749 294.892 323.749Z" fill="#608506"/>
<path d="M313.555 323.749C313.903 323.749 314.185 323.466 314.185 323.116C314.185 322.767 313.903 322.484 313.555 322.484C313.208 322.484 312.926 322.767 312.926 323.116C312.926 323.466 313.208 323.749 313.555 323.749Z" fill="#608506"/>
<path d="M297.826 335.554C298.173 335.554 298.455 335.271 298.455 334.922C298.455 334.572 298.173 334.289 297.826 334.289C297.478 334.289 297.196 334.572 297.196 334.922C297.196 335.271 297.478 335.554 297.826 335.554Z" fill="#608506"/>
<path d="M316.498 335.554C316.846 335.554 317.128 335.271 317.128 334.922C317.128 334.572 316.846 334.289 316.498 334.289C316.15 334.289 315.869 334.572 315.869 334.922C315.869 335.271 316.15 335.554 316.498 335.554Z" fill="#608506"/>
<path d="M297.826 323.749C298.173 323.749 298.455 323.466 298.455 323.116C298.455 322.767 298.173 322.484 297.826 322.484C297.478 322.484 297.196 322.767 297.196 323.116C297.196 323.466 297.478 323.749 297.826 323.749Z" fill="#608506"/>
<path d="M316.498 323.749C316.846 323.749 317.128 323.466 317.128 323.116C317.128 322.767 316.846 322.484 316.498 322.484C316.15 322.484 315.869 322.767 315.869 323.116C315.869 323.466 316.15 323.749 316.498 323.749Z" fill="#608506"/>
<path d="M300.759 335.554C301.107 335.554 301.388 335.271 301.388 334.922C301.388 334.572 301.107 334.289 300.759 334.289C300.411 334.289 300.129 334.572 300.129 334.922C300.129 335.271 300.411 335.554 300.759 335.554Z" fill="#608506"/>
<path d="M319.435 335.554C319.783 335.554 320.065 335.271 320.065 334.922C320.065 334.572 319.783 334.289 319.435 334.289C319.088 334.289 318.806 334.572 318.806 334.922C318.806 335.271 319.088 335.554 319.435 335.554Z" fill="#608506"/>
<path d="M300.759 323.749C301.107 323.749 301.388 323.466 301.388 323.116C301.388 322.767 301.107 322.484 300.759 322.484C300.411 322.484 300.129 322.767 300.129 323.116C300.129 323.466 300.411 323.749 300.759 323.749Z" fill="#608506"/>
<path d="M319.435 323.749C319.783 323.749 320.065 323.466 320.065 323.116C320.065 322.767 319.783 322.484 319.435 322.484C319.088 322.484 318.806 322.767 318.806 323.116C318.806 323.466 319.088 323.749 319.435 323.749Z" fill="#608506"/>
<path d="M303.701 335.554C304.049 335.554 304.331 335.271 304.331 334.922C304.331 334.572 304.049 334.289 303.701 334.289C303.353 334.289 303.072 334.572 303.072 334.922C303.072 335.271 303.353 335.554 303.701 335.554Z" fill="#608506"/>
<path d="M322.373 335.554C322.721 335.554 323.003 335.271 323.003 334.922C323.003 334.572 322.721 334.289 322.373 334.289C322.026 334.289 321.744 334.572 321.744 334.922C321.744 335.271 322.026 335.554 322.373 335.554Z" fill="#608506"/>
<path d="M303.701 323.749C304.049 323.749 304.331 323.466 304.331 323.116C304.331 322.767 304.049 322.484 303.701 322.484C303.353 322.484 303.072 322.767 303.072 323.116C303.072 323.466 303.353 323.749 303.701 323.749Z" fill="#608506"/>
<path d="M322.373 323.749C322.721 323.749 323.003 323.466 323.003 323.116C323.003 322.767 322.721 322.484 322.373 322.484C322.026 322.484 321.744 322.767 321.744 323.116C321.744 323.466 322.026 323.749 322.373 323.749Z" fill="#608506"/>
<path d="M291.949 338.507C292.297 338.507 292.579 338.224 292.579 337.875C292.579 337.526 292.297 337.242 291.949 337.242C291.602 337.242 291.32 337.526 291.32 337.875C291.32 338.224 291.602 338.507 291.949 338.507Z" fill="#608506"/>
<path d="M310.622 338.507C310.97 338.507 311.251 338.224 311.251 337.875C311.251 337.526 310.97 337.242 310.622 337.242C310.274 337.242 309.992 337.526 309.992 337.875C309.992 338.224 310.274 338.507 310.622 338.507Z" fill="#608506"/>
<path d="M294.892 338.507C295.24 338.507 295.522 338.224 295.522 337.875C295.522 337.526 295.24 337.242 294.892 337.242C294.545 337.242 294.263 337.526 294.263 337.875C294.263 338.224 294.545 338.507 294.892 338.507Z" fill="#608506"/>
<path d="M313.555 338.507C313.903 338.507 314.185 338.224 314.185 337.875C314.185 337.526 313.903 337.242 313.555 337.242C313.208 337.242 312.926 337.526 312.926 337.875C312.926 338.224 313.208 338.507 313.555 338.507Z" fill="#608506"/>
<path d="M297.826 338.507C298.173 338.507 298.455 338.224 298.455 337.875C298.455 337.526 298.173 337.242 297.826 337.242C297.478 337.242 297.196 337.526 297.196 337.875C297.196 338.224 297.478 338.507 297.826 338.507Z" fill="#608506"/>
<path d="M316.502 338.507C316.85 338.507 317.132 338.224 317.132 337.875C317.132 337.526 316.85 337.242 316.502 337.242C316.154 337.242 315.873 337.526 315.873 337.875C315.873 338.224 316.154 338.507 316.502 338.507Z" fill="#608506"/>
<path d="M300.759 338.507C301.107 338.507 301.388 338.224 301.388 337.875C301.388 337.526 301.107 337.242 300.759 337.242C300.411 337.242 300.129 337.526 300.129 337.875C300.129 338.224 300.411 338.507 300.759 338.507Z" fill="#608506"/>
<path d="M319.435 338.507C319.783 338.507 320.065 338.224 320.065 337.875C320.065 337.526 319.783 337.242 319.435 337.242C319.088 337.242 318.806 337.526 318.806 337.875C318.806 338.224 319.088 338.507 319.435 338.507Z" fill="#608506"/>
<path d="M303.701 338.507C304.049 338.507 304.331 338.224 304.331 337.875C304.331 337.526 304.049 337.242 303.701 337.242C303.353 337.242 303.072 337.526 303.072 337.875C303.072 338.224 303.353 338.507 303.701 338.507Z" fill="#608506"/>
<path d="M322.373 338.507C322.721 338.507 323.003 338.224 323.003 337.875C323.003 337.526 322.721 337.242 322.373 337.242C322.026 337.242 321.744 337.526 321.744 337.875C321.744 338.224 322.026 338.507 322.373 338.507Z" fill="#608506"/>
<path d="M291.949 341.457C292.297 341.457 292.579 341.174 292.579 340.825C292.579 340.475 292.297 340.192 291.949 340.192C291.602 340.192 291.32 340.475 291.32 340.825C291.32 341.174 291.602 341.457 291.949 341.457Z" fill="#608506"/>
<path d="M310.622 341.457C310.97 341.457 311.251 341.174 311.251 340.825C311.251 340.475 310.97 340.192 310.622 340.192C310.274 340.192 309.992 340.475 309.992 340.825C309.992 341.174 310.274 341.457 310.622 341.457Z" fill="#608506"/>
<path d="M294.892 341.457C295.24 341.457 295.522 341.174 295.522 340.825C295.522 340.475 295.24 340.192 294.892 340.192C294.545 340.192 294.263 340.475 294.263 340.825C294.263 341.174 294.545 341.457 294.892 341.457Z" fill="#608506"/>
<path d="M313.555 341.457C313.903 341.457 314.185 341.174 314.185 340.825C314.185 340.475 313.903 340.192 313.555 340.192C313.208 340.192 312.926 340.475 312.926 340.825C312.926 341.174 313.208 341.457 313.555 341.457Z" fill="#608506"/>
<path d="M297.826 341.457C298.173 341.457 298.455 341.174 298.455 340.825C298.455 340.475 298.173 340.192 297.826 340.192C297.478 340.192 297.196 340.475 297.196 340.825C297.196 341.174 297.478 341.457 297.826 341.457Z" fill="#608506"/>
<path d="M316.502 341.457C316.85 341.457 317.132 341.174 317.132 340.825C317.132 340.475 316.85 340.192 316.502 340.192C316.154 340.192 315.873 340.475 315.873 340.825C315.873 341.174 316.154 341.457 316.502 341.457Z" fill="#608506"/>
<path d="M300.759 341.457C301.107 341.457 301.388 341.174 301.388 340.825C301.388 340.475 301.107 340.192 300.759 340.192C300.411 340.192 300.129 340.475 300.129 340.825C300.129 341.174 300.411 341.457 300.759 341.457Z" fill="#608506"/>
<path d="M319.435 341.457C319.783 341.457 320.065 341.174 320.065 340.825C320.065 340.475 319.783 340.192 319.435 340.192C319.088 340.192 318.806 340.475 318.806 340.825C318.806 341.174 319.088 341.457 319.435 341.457Z" fill="#608506"/>
<path d="M303.701 341.457C304.049 341.457 304.331 341.174 304.331 340.825C304.331 340.475 304.049 340.192 303.701 340.192C303.353 340.192 303.072 340.475 303.072 340.825C303.072 341.174 303.353 341.457 303.701 341.457Z" fill="#608506"/>
<path d="M322.373 341.457C322.721 341.457 323.003 341.174 323.003 340.825C323.003 340.475 322.721 340.192 322.373 340.192C322.026 340.192 321.744 340.475 321.744 340.825C321.744 341.174 322.026 341.457 322.373 341.457Z" fill="#608506"/>
<path d="M291.949 344.411C292.297 344.411 292.579 344.127 292.579 343.778C292.579 343.429 292.297 343.146 291.949 343.146C291.602 343.146 291.32 343.429 291.32 343.778C291.32 344.127 291.602 344.411 291.949 344.411Z" fill="#608506"/>
<path d="M310.622 344.411C310.97 344.411 311.251 344.127 311.251 343.778C311.251 343.429 310.97 343.146 310.622 343.146C310.274 343.146 309.992 343.429 309.992 343.778C309.992 344.127 310.274 344.411 310.622 344.411Z" fill="#608506"/>
<path d="M310.622 359.166C310.97 359.166 311.251 358.882 311.251 358.533C311.251 358.184 310.97 357.901 310.622 357.901C310.274 357.901 309.992 358.184 309.992 358.533C309.992 358.882 310.274 359.166 310.622 359.166Z" fill="#608506"/>
<path d="M294.892 344.411C295.24 344.411 295.522 344.127 295.522 343.778C295.522 343.429 295.24 343.146 294.892 343.146C294.545 343.146 294.263 343.429 294.263 343.778C294.263 344.127 294.545 344.411 294.892 344.411Z" fill="#608506"/>
<path d="M313.555 344.411C313.903 344.411 314.185 344.127 314.185 343.778C314.185 343.429 313.903 343.146 313.555 343.146C313.208 343.146 312.926 343.429 312.926 343.778C312.926 344.127 313.208 344.411 313.555 344.411Z" fill="#608506"/>
<path d="M313.555 359.166C313.903 359.166 314.185 358.882 314.185 358.533C314.185 358.184 313.903 357.901 313.555 357.901C313.208 357.901 312.926 358.184 312.926 358.533C312.926 358.882 313.208 359.166 313.555 359.166Z" fill="#608506"/>
<path d="M297.826 344.411C298.173 344.411 298.455 344.127 298.455 343.778C298.455 343.429 298.173 343.146 297.826 343.146C297.478 343.146 297.196 343.429 297.196 343.778C297.196 344.127 297.478 344.411 297.826 344.411Z" fill="#608506"/>
<path d="M316.498 344.411C316.846 344.411 317.128 344.127 317.128 343.778C317.128 343.429 316.846 343.146 316.498 343.146C316.15 343.146 315.869 343.429 315.869 343.778C315.869 344.127 316.15 344.411 316.498 344.411Z" fill="#608506"/>
<path d="M316.498 359.166C316.846 359.166 317.128 358.882 317.128 358.533C317.128 358.184 316.846 357.901 316.498 357.901C316.15 357.901 315.869 358.184 315.869 358.533C315.869 358.882 316.15 359.166 316.498 359.166Z" fill="#608506"/>
<path d="M300.759 344.411C301.107 344.411 301.388 344.127 301.388 343.778C301.388 343.429 301.107 343.146 300.759 343.146C300.411 343.146 300.129 343.429 300.129 343.778C300.129 344.127 300.411 344.411 300.759 344.411Z" fill="#608506"/>
<path d="M319.435 344.411C319.783 344.411 320.065 344.127 320.065 343.778C320.065 343.429 319.783 343.146 319.435 343.146C319.088 343.146 318.806 343.429 318.806 343.778C318.806 344.127 319.088 344.411 319.435 344.411Z" fill="#608506"/>
<path d="M319.435 359.166C319.783 359.166 320.065 358.882 320.065 358.533C320.065 358.184 319.783 357.901 319.435 357.901C319.088 357.901 318.806 358.184 318.806 358.533C318.806 358.882 319.088 359.166 319.435 359.166Z" fill="#608506"/>
<path d="M303.701 344.411C304.049 344.411 304.331 344.127 304.331 343.778C304.331 343.429 304.049 343.146 303.701 343.146C303.353 343.146 303.072 343.429 303.072 343.778C303.072 344.127 303.353 344.411 303.701 344.411Z" fill="#608506"/>
<path d="M322.373 344.411C322.721 344.411 323.003 344.127 323.003 343.778C323.003 343.429 322.721 343.146 322.373 343.146C322.026 343.146 321.744 343.429 321.744 343.778C321.744 344.127 322.026 344.411 322.373 344.411Z" fill="#608506"/>
<path d="M322.373 359.166C322.721 359.166 323.003 358.882 323.003 358.533C323.003 358.184 322.721 357.901 322.373 357.901C322.026 357.901 321.744 358.184 321.744 358.533C321.744 358.882 322.026 359.166 322.373 359.166Z" fill="#608506"/>
<path d="M291.949 347.357C292.297 347.357 292.579 347.073 292.579 346.724C292.579 346.375 292.297 346.092 291.949 346.092C291.602 346.092 291.32 346.375 291.32 346.724C291.32 347.073 291.602 347.357 291.949 347.357Z" fill="#608506"/>
<path d="M310.622 347.357C310.97 347.357 311.251 347.073 311.251 346.724C311.251 346.375 310.97 346.092 310.622 346.092C310.274 346.092 309.992 346.375 309.992 346.724C309.992 347.073 310.274 347.357 310.622 347.357Z" fill="#608506"/>
<path d="M310.622 362.115C310.97 362.115 311.251 361.832 311.251 361.483C311.251 361.133 310.97 360.85 310.622 360.85C310.274 360.85 309.992 361.133 309.992 361.483C309.992 361.832 310.274 362.115 310.622 362.115Z" fill="#608506"/>
<path d="M294.892 347.357C295.24 347.357 295.522 347.073 295.522 346.724C295.522 346.375 295.24 346.092 294.892 346.092C294.545 346.092 294.263 346.375 294.263 346.724C294.263 347.073 294.545 347.357 294.892 347.357Z" fill="#608506"/>
<path d="M313.555 347.357C313.903 347.357 314.185 347.073 314.185 346.724C314.185 346.375 313.903 346.092 313.555 346.092C313.208 346.092 312.926 346.375 312.926 346.724C312.926 347.073 313.208 347.357 313.555 347.357Z" fill="#608506"/>
<path d="M313.555 362.115C313.903 362.115 314.185 361.832 314.185 361.483C314.185 361.133 313.903 360.85 313.555 360.85C313.208 360.85 312.926 361.133 312.926 361.483C312.926 361.832 313.208 362.115 313.555 362.115Z" fill="#608506"/>
<path d="M297.826 347.357C298.173 347.357 298.455 347.073 298.455 346.724C298.455 346.375 298.173 346.092 297.826 346.092C297.478 346.092 297.196 346.375 297.196 346.724C297.196 347.073 297.478 347.357 297.826 347.357Z" fill="#608506"/>
<path d="M316.502 347.357C316.85 347.357 317.132 347.073 317.132 346.724C317.132 346.375 316.85 346.092 316.502 346.092C316.154 346.092 315.873 346.375 315.873 346.724C315.873 347.073 316.154 347.357 316.502 347.357Z" fill="#608506"/>
<path d="M316.498 362.115C316.846 362.115 317.128 361.832 317.128 361.483C317.128 361.133 316.846 360.85 316.498 360.85C316.15 360.85 315.869 361.133 315.869 361.483C315.869 361.832 316.15 362.115 316.498 362.115Z" fill="#608506"/>
<path d="M300.759 347.357C301.107 347.357 301.388 347.073 301.388 346.724C301.388 346.375 301.107 346.092 300.759 346.092C300.411 346.092 300.129 346.375 300.129 346.724C300.129 347.073 300.411 347.357 300.759 347.357Z" fill="#608506"/>
<path d="M319.435 347.357C319.783 347.357 320.065 347.073 320.065 346.724C320.065 346.375 319.783 346.092 319.435 346.092C319.088 346.092 318.806 346.375 318.806 346.724C318.806 347.073 319.088 347.357 319.435 347.357Z" fill="#608506"/>
<path d="M319.435 362.115C319.783 362.115 320.065 361.832 320.065 361.483C320.065 361.133 319.783 360.85 319.435 360.85C319.088 360.85 318.806 361.133 318.806 361.483C318.806 361.832 319.088 362.115 319.435 362.115Z" fill="#608506"/>
<path d="M303.701 347.357C304.049 347.357 304.331 347.073 304.331 346.724C304.331 346.375 304.049 346.092 303.701 346.092C303.353 346.092 303.072 346.375 303.072 346.724C303.072 347.073 303.353 347.357 303.701 347.357Z" fill="#608506"/>
<path d="M322.373 347.357C322.721 347.357 323.003 347.073 323.003 346.724C323.003 346.375 322.721 346.092 322.373 346.092C322.026 346.092 321.744 346.375 321.744 346.724C321.744 347.073 322.026 347.357 322.373 347.357Z" fill="#608506"/>
<path d="M322.373 362.115C322.721 362.115 323.003 361.832 323.003 361.483C323.003 361.133 322.721 360.85 322.373 360.85C322.026 360.85 321.744 361.133 321.744 361.483C321.744 361.832 322.026 362.115 322.373 362.115Z" fill="#608506"/>
<path d="M291.949 350.306C292.297 350.306 292.579 350.023 292.579 349.674C292.579 349.325 292.297 349.041 291.949 349.041C291.602 349.041 291.32 349.325 291.32 349.674C291.32 350.023 291.602 350.306 291.949 350.306Z" fill="#608506"/>
<path d="M310.622 350.306C310.97 350.306 311.251 350.023 311.251 349.674C311.251 349.325 310.97 349.041 310.622 349.041C310.274 349.041 309.992 349.325 309.992 349.674C309.992 350.023 310.274 350.306 310.622 350.306Z" fill="#608506"/>
<path d="M310.622 365.068C310.97 365.068 311.251 364.785 311.251 364.436C311.251 364.087 310.97 363.803 310.622 363.803C310.274 363.803 309.992 364.087 309.992 364.436C309.992 364.785 310.274 365.068 310.622 365.068Z" fill="#608506"/>
<path d="M294.892 350.306C295.24 350.306 295.522 350.023 295.522 349.674C295.522 349.325 295.24 349.041 294.892 349.041C294.545 349.041 294.263 349.325 294.263 349.674C294.263 350.023 294.545 350.306 294.892 350.306Z" fill="#608506"/>
<path d="M313.555 350.306C313.903 350.306 314.185 350.023 314.185 349.674C314.185 349.325 313.903 349.041 313.555 349.041C313.208 349.041 312.926 349.325 312.926 349.674C312.926 350.023 313.208 350.306 313.555 350.306Z" fill="#608506"/>
<path d="M313.555 365.068C313.903 365.068 314.185 364.785 314.185 364.436C314.185 364.087 313.903 363.803 313.555 363.803C313.208 363.803 312.926 364.087 312.926 364.436C312.926 364.785 313.208 365.068 313.555 365.068Z" fill="#608506"/>
<path d="M297.826 350.306C298.173 350.306 298.455 350.023 298.455 349.674C298.455 349.325 298.173 349.041 297.826 349.041C297.478 349.041 297.196 349.325 297.196 349.674C297.196 350.023 297.478 350.306 297.826 350.306Z" fill="#608506"/>
<path d="M316.498 350.306C316.846 350.306 317.128 350.023 317.128 349.674C317.128 349.325 316.846 349.041 316.498 349.041C316.15 349.041 315.869 349.325 315.869 349.674C315.869 350.023 316.15 350.306 316.498 350.306Z" fill="#608506"/>
<path d="M316.498 365.068C316.846 365.068 317.128 364.785 317.128 364.436C317.128 364.087 316.846 363.803 316.498 363.803C316.15 363.803 315.869 364.087 315.869 364.436C315.869 364.785 316.15 365.068 316.498 365.068Z" fill="#608506"/>
<path d="M300.759 350.306C301.107 350.306 301.388 350.023 301.388 349.674C301.388 349.325 301.107 349.041 300.759 349.041C300.411 349.041 300.129 349.325 300.129 349.674C300.129 350.023 300.411 350.306 300.759 350.306Z" fill="#608506"/>
<path d="M319.435 350.306C319.783 350.306 320.065 350.023 320.065 349.674C320.065 349.325 319.783 349.041 319.435 349.041C319.088 349.041 318.806 349.325 318.806 349.674C318.806 350.023 319.088 350.306 319.435 350.306Z" fill="#608506"/>
<path d="M319.435 365.068C319.783 365.068 320.065 364.785 320.065 364.436C320.065 364.087 319.783 363.803 319.435 363.803C319.088 363.803 318.806 364.087 318.806 364.436C318.806 364.785 319.088 365.068 319.435 365.068Z" fill="#608506"/>
<path d="M303.701 350.306C304.049 350.306 304.331 350.023 304.331 349.674C304.331 349.325 304.049 349.041 303.701 349.041C303.353 349.041 303.072 349.325 303.072 349.674C303.072 350.023 303.353 350.306 303.701 350.306Z" fill="#608506"/>
<path d="M322.373 350.306C322.721 350.306 323.003 350.023 323.003 349.674C323.003 349.325 322.721 349.041 322.373 349.041C322.026 349.041 321.744 349.325 321.744 349.674C321.744 350.023 322.026 350.306 322.373 350.306Z" fill="#608506"/>
<path d="M322.373 365.068C322.721 365.068 323.003 364.785 323.003 364.436C323.003 364.087 322.721 363.803 322.373 363.803C322.026 363.803 321.744 364.087 321.744 364.436C321.744 364.785 322.026 365.068 322.373 365.068Z" fill="#608506"/>
<path d="M291.949 353.26C292.297 353.26 292.579 352.976 292.579 352.627C292.579 352.278 292.297 351.995 291.949 351.995C291.602 351.995 291.32 352.278 291.32 352.627C291.32 352.976 291.602 353.26 291.949 353.26Z" fill="#608506"/>
<path d="M310.622 353.26C310.97 353.26 311.251 352.976 311.251 352.627C311.251 352.278 310.97 351.995 310.622 351.995C310.274 351.995 309.992 352.278 309.992 352.627C309.992 352.976 310.274 353.26 310.622 353.26Z" fill="#608506"/>
<path d="M310.622 368.018C310.97 368.018 311.251 367.735 311.251 367.386C311.251 367.036 310.97 366.753 310.622 366.753C310.274 366.753 309.992 367.036 309.992 367.386C309.992 367.735 310.274 368.018 310.622 368.018Z" fill="#608506"/>
<path d="M291.949 356.209C292.297 356.209 292.579 355.926 292.579 355.576C292.579 355.227 292.297 354.944 291.949 354.944C291.602 354.944 291.32 355.227 291.32 355.576C291.32 355.926 291.602 356.209 291.949 356.209Z" fill="#608506"/>
<path d="M310.622 356.209C310.97 356.209 311.251 355.926 311.251 355.576C311.251 355.227 310.97 354.944 310.622 354.944C310.274 354.944 309.992 355.227 309.992 355.576C309.992 355.926 310.274 356.209 310.622 356.209Z" fill="#608506"/>
<path d="M310.622 370.968C310.97 370.968 311.251 370.685 311.251 370.336C311.251 369.986 310.97 369.703 310.622 369.703C310.274 369.703 309.992 369.986 309.992 370.336C309.992 370.685 310.274 370.968 310.622 370.968Z" fill="#608506"/>
<path d="M294.892 353.26C295.24 353.26 295.522 352.976 295.522 352.627C295.522 352.278 295.24 351.995 294.892 351.995C294.545 351.995 294.263 352.278 294.263 352.627C294.263 352.976 294.545 353.26 294.892 353.26Z" fill="#608506"/>
<path d="M313.555 353.26C313.903 353.26 314.185 352.976 314.185 352.627C314.185 352.278 313.903 351.995 313.555 351.995C313.208 351.995 312.926 352.278 312.926 352.627C312.926 352.976 313.208 353.26 313.555 353.26Z" fill="#608506"/>
<path d="M313.555 368.018C313.903 368.018 314.185 367.735 314.185 367.386C314.185 367.036 313.903 366.753 313.555 366.753C313.208 366.753 312.926 367.036 312.926 367.386C312.926 367.735 313.208 368.018 313.555 368.018Z" fill="#608506"/>
<path d="M294.892 356.209C295.24 356.209 295.522 355.926 295.522 355.576C295.522 355.227 295.24 354.944 294.892 354.944C294.545 354.944 294.263 355.227 294.263 355.576C294.263 355.926 294.545 356.209 294.892 356.209Z" fill="#608506"/>
<path d="M313.555 356.209C313.903 356.209 314.185 355.926 314.185 355.576C314.185 355.227 313.903 354.944 313.555 354.944C313.208 354.944 312.926 355.227 312.926 355.576C312.926 355.926 313.208 356.209 313.555 356.209Z" fill="#608506"/>
<path d="M313.555 370.968C313.903 370.968 314.185 370.685 314.185 370.336C314.185 369.986 313.903 369.703 313.555 369.703C313.208 369.703 312.926 369.986 312.926 370.336C312.926 370.685 313.208 370.968 313.555 370.968Z" fill="#608506"/>
<path d="M297.826 353.26C298.173 353.26 298.455 352.976 298.455 352.627C298.455 352.278 298.173 351.995 297.826 351.995C297.478 351.995 297.196 352.278 297.196 352.627C297.196 352.976 297.478 353.26 297.826 353.26Z" fill="#608506"/>
<path d="M316.498 353.26C316.846 353.26 317.128 352.976 317.128 352.627C317.128 352.278 316.846 351.995 316.498 351.995C316.15 351.995 315.869 352.278 315.869 352.627C315.869 352.976 316.15 353.26 316.498 353.26Z" fill="#608506"/>
<path d="M316.502 368.018C316.85 368.018 317.132 367.735 317.132 367.386C317.132 367.036 316.85 366.753 316.502 366.753C316.154 366.753 315.873 367.036 315.873 367.386C315.873 367.735 316.154 368.018 316.502 368.018Z" fill="#608506"/>
<path d="M297.826 356.209C298.173 356.209 298.455 355.926 298.455 355.576C298.455 355.227 298.173 354.944 297.826 354.944C297.478 354.944 297.196 355.227 297.196 355.576C297.196 355.926 297.478 356.209 297.826 356.209Z" fill="#608506"/>
<path d="M316.498 356.209C316.846 356.209 317.128 355.926 317.128 355.576C317.128 355.227 316.846 354.944 316.498 354.944C316.15 354.944 315.869 355.227 315.869 355.576C315.869 355.926 316.15 356.209 316.498 356.209Z" fill="#608506"/>
<path d="M316.502 370.968C316.85 370.968 317.132 370.685 317.132 370.336C317.132 369.986 316.85 369.703 316.502 369.703C316.154 369.703 315.873 369.986 315.873 370.336C315.873 370.685 316.154 370.968 316.502 370.968Z" fill="#608506"/>
<path d="M300.759 353.26C301.107 353.26 301.388 352.976 301.388 352.627C301.388 352.278 301.107 351.995 300.759 351.995C300.411 351.995 300.129 352.278 300.129 352.627C300.129 352.976 300.411 353.26 300.759 353.26Z" fill="#608506"/>
<path d="M319.435 353.26C319.783 353.26 320.065 352.976 320.065 352.627C320.065 352.278 319.783 351.995 319.435 351.995C319.088 351.995 318.806 352.278 318.806 352.627C318.806 352.976 319.088 353.26 319.435 353.26Z" fill="#608506"/>
<path d="M319.435 368.018C319.783 368.018 320.065 367.735 320.065 367.386C320.065 367.036 319.783 366.753 319.435 366.753C319.088 366.753 318.806 367.036 318.806 367.386C318.806 367.735 319.088 368.018 319.435 368.018Z" fill="#608506"/>
<path d="M300.759 356.209C301.107 356.209 301.388 355.926 301.388 355.576C301.388 355.227 301.107 354.944 300.759 354.944C300.411 354.944 300.129 355.227 300.129 355.576C300.129 355.926 300.411 356.209 300.759 356.209Z" fill="#608506"/>
<path d="M319.435 356.209C319.783 356.209 320.065 355.926 320.065 355.576C320.065 355.227 319.783 354.944 319.435 354.944C319.088 354.944 318.806 355.227 318.806 355.576C318.806 355.926 319.088 356.209 319.435 356.209Z" fill="#608506"/>
<path d="M319.435 370.968C319.783 370.968 320.065 370.685 320.065 370.336C320.065 369.986 319.783 369.703 319.435 369.703C319.088 369.703 318.806 369.986 318.806 370.336C318.806 370.685 319.088 370.968 319.435 370.968Z" fill="#608506"/>
<path d="M303.701 353.26C304.049 353.26 304.331 352.976 304.331 352.627C304.331 352.278 304.049 351.995 303.701 351.995C303.353 351.995 303.072 352.278 303.072 352.627C303.072 352.976 303.353 353.26 303.701 353.26Z" fill="#608506"/>
<path d="M322.373 353.26C322.721 353.26 323.003 352.976 323.003 352.627C323.003 352.278 322.721 351.995 322.373 351.995C322.026 351.995 321.744 352.278 321.744 352.627C321.744 352.976 322.026 353.26 322.373 353.26Z" fill="#608506"/>
<path d="M322.373 368.018C322.721 368.018 323.003 367.735 323.003 367.386C323.003 367.036 322.721 366.753 322.373 366.753C322.026 366.753 321.744 367.036 321.744 367.386C321.744 367.735 322.026 368.018 322.373 368.018Z" fill="#608506"/>
<path d="M303.701 356.209C304.049 356.209 304.331 355.926 304.331 355.576C304.331 355.227 304.049 354.944 303.701 354.944C303.353 354.944 303.072 355.227 303.072 355.576C303.072 355.926 303.353 356.209 303.701 356.209Z" fill="#608506"/>
<path d="M322.373 356.209C322.721 356.209 323.003 355.926 323.003 355.576C323.003 355.227 322.721 354.944 322.373 354.944C322.026 354.944 321.744 355.227 321.744 355.576C321.744 355.926 322.026 356.209 322.373 356.209Z" fill="#608506"/>
<path d="M322.373 370.968C322.721 370.968 323.003 370.685 323.003 370.336C323.003 369.986 322.721 369.703 322.373 369.703C322.026 369.703 321.744 369.986 321.744 370.336C321.744 370.685 322.026 370.968 322.373 370.968Z" fill="#608506"/>
<path d="M250.84 339.484H183.96C182.988 339.484 182.2 340.276 182.2 341.253C182.2 342.229 182.988 343.021 183.96 343.021H250.84C251.812 343.021 252.6 342.229 252.6 341.253C252.6 340.276 251.812 339.484 250.84 339.484Z" fill="#608506"/>
<path d="M220.92 328.874H183.96C182.988 328.874 182.2 329.665 182.2 330.642C182.2 331.619 182.988 332.41 183.96 332.41H220.92C221.892 332.41 222.68 331.619 222.68 330.642C222.68 329.665 221.892 328.874 220.92 328.874Z" fill="#608506"/>
<path d="M245.56 360.705H183.96C182.988 360.705 182.2 361.497 182.2 362.474C182.2 363.45 182.988 364.242 183.96 364.242H245.56C246.532 364.242 247.32 363.45 247.32 362.474C247.32 361.497 246.532 360.705 245.56 360.705Z" fill="#608506"/>
<path d="M284.28 371.316H183.96C182.988 371.316 182.2 372.108 182.2 373.084C182.2 374.061 182.988 374.853 183.96 374.853H284.28C285.252 374.853 286.04 374.061 286.04 373.084C286.04 372.108 285.252 371.316 284.28 371.316Z" fill="#608506"/>
<path d="M321.24 381.926H183.96C182.988 381.926 182.2 382.718 182.2 383.695C182.2 384.671 182.988 385.463 183.96 385.463H321.24C322.212 385.463 323 384.671 323 383.695C323 382.718 322.212 381.926 321.24 381.926Z" fill="#608506"/>
</g>
<defs>
<filter id="filter0_i_186_3253" x="103" y="83.0631" width="86.24" height="63.6632" filterUnits="userSpaceOnUse" color-interpolation-filters="sRGB">
<feFlood flood-opacity="0" result="BackgroundImageFix"/>
<feBlend mode="normal" in="SourceGraphic" in2="BackgroundImageFix" result="shape"/>
<feColorMatrix in="SourceAlpha" type="matrix" values="0 0 0 0 0 0 0 0 0 0 0 0 0 0 0 0 0 0 127 0" result="hardAlpha"/>
<feOffset/>
<feGaussianBlur stdDeviation="3"/>
<feComposite in2="hardAlpha" operator="arithmetic" k2="-1" k3="1"/>
<feColorMatrix type="matrix" values="0 0 0 0 0.639216 0 0 0 0 0.941176 0 0 0 0 0.996078 0 0 0 0.15 0"/>
<feBlend mode="normal" in2="shape" result="effect1_innerShadow_186_3253"/>
</filter>
<filter id="filter1_d_186_3253" x="229.52" y="249.137" width="21.168" height="21.1831" filterUnits="userSpaceOnUse" color-interpolation-filters="sRGB">
<feFlood flood-opacity="0" result="BackgroundImageFix"/>
<feColorMatrix in="SourceAlpha" type="matrix" values="0 0 0 0 0 0 0 0 0 0 0 0 0 0 0 0 0 0 127 0" result="hardAlpha"/>
<feOffset/>
<feGaussianBlur stdDeviation="4.5"/>
<feComposite in2="hardAlpha" operator="out"/>
<feColorMatrix type="matrix" values="0 0 0 0 0.101961 0 0 0 0 0.870588 0 0 0 0 0.960784 0 0 0 1 0"/>
<feBlend mode="normal" in2="BackgroundImageFix" result="effect1_dropShadow_186_3253"/>
<feBlend mode="normal" in="SourceGraphic" in2="effect1_dropShadow_186_3253" result="shape"/>
</filter>
<filter id="filter2_d_186_3253" x="258.028" y="249.137" width="21.168" height="21.1831" filterUnits="userSpaceOnUse" color-interpolation-filters="sRGB">
<feFlood flood-opacity="0" result="BackgroundImageFix"/>
<feColorMatrix in="SourceAlpha" type="matrix" values="0 0 0 0 0 0 0 0 0 0 0 0 0 0 0 0 0 0 127 0" result="hardAlpha"/>
<feOffset/>
<feGaussianBlur stdDeviation="4.5"/>
<feComposite in2="hardAlpha" operator="out"/>
<feColorMatrix type="matrix" values="0 0 0 0 0.101961 0 0 0 0 0.870588 0 0 0 0 0.960784 0 0 0 1 0"/>
<feBlend mode="normal" in2="BackgroundImageFix" result="effect1_dropShadow_186_3253"/>
<feBlend mode="normal" in="SourceGraphic" in2="effect1_dropShadow_186_3253" result="shape"/>
</filter>
<filter id="filter3_d_186_3253" x="239.021" y="268.233" width="21.168" height="21.1831" filterUnits="userSpaceOnUse" color-interpolation-filters="sRGB">
<feFlood flood-opacity="0" result="BackgroundImageFix"/>
<feColorMatrix in="SourceAlpha" type="matrix" values="0 0 0 0 0 0 0 0 0 0 0 0 0 0 0 0 0 0 127 0" result="hardAlpha"/>
<feOffset/>
<feGaussianBlur stdDeviation="4.5"/>
<feComposite in2="hardAlpha" operator="out"/>
<feColorMatrix type="matrix" values="0 0 0 0 0.101961 0 0 0 0 0.870588 0 0 0 0 0.960784 0 0 0 1 0"/>
<feBlend mode="normal" in2="BackgroundImageFix" result="effect1_dropShadow_186_3253"/>
<feBlend mode="normal" in="SourceGraphic" in2="effect1_dropShadow_186_3253" result="shape"/>
</filter>
<filter id="filter4_d_186_3253" x="229.52" y="277.784" width="21.168" height="21.1831" filterUnits="userSpaceOnUse" color-interpolation-filters="sRGB">
<feFlood flood-opacity="0" result="BackgroundImageFix"/>
<feColorMatrix in="SourceAlpha" type="matrix" values="0 0 0 0 0 0 0 0 0 0 0 0 0 0 0 0 0 0 127 0" result="hardAlpha"/>
<feOffset/>
<feGaussianBlur stdDeviation="4.5"/>
<feComposite in2="hardAlpha" operator="out"/>
<feColorMatrix type="matrix" values="0 0 0 0 0.101961 0 0 0 0 0.870588 0 0 0 0 0.960784 0 0 0 1 0"/>
<feBlend mode="normal" in2="BackgroundImageFix" result="effect1_dropShadow_186_3253"/>
<feBlend mode="normal" in="SourceGraphic" in2="effect1_dropShadow_186_3253" result="shape"/>
</filter>
<filter id="filter5_d_186_3253" x="258.028" y="277.784" width="21.168" height="21.1831" filterUnits="userSpaceOnUse" color-interpolation-filters="sRGB">
<feFlood flood-opacity="0" result="BackgroundImageFix"/>
<feColorMatrix in="SourceAlpha" type="matrix" values="0 0 0 0 0 0 0 0 0 0 0 0 0 0 0 0 0 0 127 0" result="hardAlpha"/>
<feOffset/>
<feGaussianBlur stdDeviation="4.5"/>
<feComposite in2="hardAlpha" operator="out"/>
<feColorMatrix type="matrix" values="0 0 0 0 0.847059 0 0 0 0 0.996078 0 0 0 0 0.32549 0 0 0 1 0"/>
<feBlend mode="normal" in2="BackgroundImageFix" result="effect1_dropShadow_186_3253"/>
<feBlend mode="normal" in="SourceGraphic" in2="effect1_dropShadow_186_3253" result="shape"/>
</filter>
<filter id="filter6_i_186_3253" x="222.351" y="186.452" width="64.0171" height="72.6326" filterUnits="userSpaceOnUse" color-interpolation-filters="sRGB">
<feFlood flood-opacity="0" result="BackgroundImageFix"/>
<feBlend mode="normal" in="SourceGraphic" in2="BackgroundImageFix" result="shape"/>
<feColorMatrix in="SourceAlpha" type="matrix" values="0 0 0 0 0 0 0 0 0 0 0 0 0 0 0 0 0 0 127 0" result="hardAlpha"/>
<feOffset/>
<feGaussianBlur stdDeviation="6"/>
<feComposite in2="hardAlpha" operator="arithmetic" k2="-1" k3="1"/>
<feColorMatrix type="matrix" values="0 0 0 0 0.847059 0 0 0 0 0.996078 0 0 0 0 0.32549 0 0 0 1 0"/>
<feBlend mode="normal" in2="shape" result="effect1_innerShadow_186_3253"/>
</filter>
<filter id="filter7_i_186_3253" x="326.52" y="83.0631" width="84.48" height="63.6632" filterUnits="userSpaceOnUse" color-interpolation-filters="sRGB">
<feFlood flood-opacity="0" result="BackgroundImageFix"/>
<feBlend mode="normal" in="SourceGraphic" in2="BackgroundImageFix" result="shape"/>
<feColorMatrix in="SourceAlpha" type="matrix" values="0 0 0 0 0 0 0 0 0 0 0 0 0 0 0 0 0 0 127 0" result="hardAlpha"/>
<feOffset/>
<feGaussianBlur stdDeviation="3"/>
<feComposite in2="hardAlpha" operator="arithmetic" k2="-1" k3="1"/>
<feColorMatrix type="matrix" values="0 0 0 0 0.639216 0 0 0 0 0.941176 0 0 0 0 0.996078 0 0 0 0.15 0"/>
<feBlend mode="normal" in2="shape" result="effect1_innerShadow_186_3253"/>
</filter>
<filter id="filter8_i_186_3253" x="206.84" y="53" width="95.0371" height="53.1434" filterUnits="userSpaceOnUse" color-interpolation-filters="sRGB">
<feFlood flood-opacity="0" result="BackgroundImageFix"/>
<feBlend mode="normal" in="SourceGraphic" in2="BackgroundImageFix" result="shape"/>
<feColorMatrix in="SourceAlpha" type="matrix" values="0 0 0 0 0 0 0 0 0 0 0 0 0 0 0 0 0 0 127 0" result="hardAlpha"/>
<feOffset/>
<feGaussianBlur stdDeviation="3"/>
<feComposite in2="hardAlpha" operator="arithmetic" k2="-1" k3="1"/>
<feColorMatrix type="matrix" values="0 0 0 0 0.639216 0 0 0 0 0.941176 0 0 0 0 0.996078 0 0 0 0.15 0"/>
<feBlend mode="normal" in2="shape" result="effect1_innerShadow_186_3253"/>
</filter>
<linearGradient id="paint0_linear_186_3253" x1="257" y1="0" x2="257" y2="442" gradientUnits="userSpaceOnUse">
<stop stop-color="#24251D"/>
<stop offset="1" stop-color="#171812"/>
</linearGradient>
<clipPath id="clip0_186_3253">
<rect width="308" height="336" fill="white" transform="translate(103 53)"/>
</clipPath>
</defs>
</svg>
