<svg width="122" height="120" viewBox="0 0 122 120" fill="none" xmlns="http://www.w3.org/2000/svg">
<rect width="120" height="120" transform="translate(1)" fill="#171812"/>
<path d="M83.8176 80.975L71.1926 46.25L73.1001 41H75.0001C75.7957 41 76.5588 40.6839 77.1214 40.1213C77.684 39.5587 78.0001 38.7956 78.0001 38C78.0001 37.2044 77.684 36.4413 77.1214 35.8787C76.5588 35.3161 75.7957 35 75.0001 35H51.0001C50.2322 35.0055 49.4956 35.3052 48.9421 35.8374C48.3886 36.3697 48.0602 37.0939 48.0247 37.861C47.9891 38.6281 48.249 39.3796 48.7509 39.9607C49.2528 40.5419 49.9585 40.9085 50.7226 40.985L36.1826 80.985C35.9112 81.7323 35.9476 82.5567 36.2837 83.2772C36.6198 83.9976 37.2281 84.5552 37.9751 84.8275C38.3038 84.9452 38.6509 85.0036 39.0001 85C39.616 85.0001 40.2171 84.8106 40.7216 84.4573C41.2261 84.1039 41.6096 83.6039 41.8201 83.025L44.0001 77H53.6251L52.1801 80.975C51.9089 81.7226 51.9456 82.5473 52.2822 83.2678C52.6188 83.9883 53.2277 84.5457 53.9751 84.8175C54.3032 84.9386 54.6503 85.0004 55.0001 85C55.616 85.0001 56.2171 84.8106 56.7216 84.4573C57.2261 84.1039 57.6096 83.6039 57.8201 83.025L62.1926 71H73.8076L78.1801 83.025C78.3905 83.6039 78.7741 84.1039 79.2786 84.4573C79.7831 84.8106 80.3841 85.0001 81.0001 85C81.3499 85.0004 81.6969 84.9386 82.0251 84.8175C82.772 84.5452 83.3804 83.9876 83.7164 83.2672C84.0525 82.5467 84.0889 81.7223 83.8176 80.975ZM60.1726 59H50.5551L52.7501 53H62.3651L60.1726 59ZM64.5351 47H54.9201L57.1026 41H66.7176L64.5351 47ZM46.1926 71L48.3751 65H58.0001L55.8176 71H46.1926ZM64.3751 65L68.0001 55.0275L71.6251 65H64.3751Z" fill="#D8FE53"/>
<path d="M22.3999 120L0.399904 98L0.399902 120L22.3999 120Z" fill="#D8FE53"/>
<path d="M99.3999 0L121.4 22L121.4 -3.8466e-06L99.3999 0Z" fill="#D8FE53"/>
</svg>
