<svg width="40" height="40" viewBox="0 0 40 40" fill="none" xmlns="http://www.w3.org/2000/svg">
<rect width="40" height="40" rx="8" fill="#A6DB07"/>
<path fill-rule="evenodd" clip-rule="evenodd" d="M11.2932 14.9012L14.1413 12.0532C14.5313 11.6632 15.1643 11.6632 15.5553 12.0532L28.7073 25.2052C29.0973 25.5952 29.0973 26.2282 28.7073 26.6192L25.8593 29.4672C25.4693 29.8572 24.8363 29.8572 24.4453 29.4672L11.2932 16.3152C10.9022 15.9242 10.9022 15.2912 11.2932 14.9012Z" stroke="black" stroke-width="1.5" stroke-linecap="round" stroke-linejoin="round"/>
<path d="M22.1299 18.6304L20.6299 20.1304" stroke="black" stroke-width="1.5" stroke-linecap="round" stroke-linejoin="round"/>
<path d="M24.7197 21.2202L23.7197 22.2202" stroke="black" stroke-width="1.5013" stroke-linecap="round" stroke-linejoin="round"/>
<path d="M27.0996 23.6001L25.5996 25.1001" stroke="black" stroke-width="1.5013" stroke-linecap="round" stroke-linejoin="round"/>
<path d="M19.75 16.2501L18.75 17.2401" stroke="black" stroke-width="1.5013" stroke-linecap="round" stroke-linejoin="round"/>
<path d="M17.1602 13.6602L15.6602 15.1602" stroke="black" stroke-width="1.5" stroke-linecap="round" stroke-linejoin="round"/>
<path d="M20.3535 16.8524L24.8155 12.3904C25.5915 11.6144 26.8535 11.6184 27.6345 12.3994L28.3505 13.1154C29.1315 13.8964 29.1355 15.1584 28.3595 15.9344L23.8975 20.3964" stroke="black" stroke-width="1.5" stroke-linecap="round" stroke-linejoin="round"/>
<path d="M16.0924 21.1143L12.0624 25.1443C11.9364 25.2703 11.8464 25.4283 11.8014 25.6013L11.0594 28.4723C10.8674 29.2143 11.5434 29.8893 12.2854 29.6953L15.1504 28.9483C15.3224 28.9033 15.4794 28.8133 15.6054 28.6873L19.6364 24.6563" stroke="black" stroke-width="1.5" stroke-linecap="round" stroke-linejoin="round"/>
<path d="M23.1201 14.0903L26.6601 17.6303" stroke="black" stroke-width="1.5" stroke-linecap="round" stroke-linejoin="round"/>
</svg>
