<svg width="514" height="442" viewBox="0 0 514 442" fill="none" xmlns="http://www.w3.org/2000/svg">
<rect x="0.5" y="0.5" width="513" height="441" rx="15.5" fill="url(#paint0_linear_186_2796)"/>
<rect x="0.5" y="0.5" width="513" height="441" rx="15.5" stroke="#3D3E31"/>
<g clip-path="url(#clip0_186_2796)">
<mask id="mask0_186_2796" style="mask-type:luminance" maskUnits="userSpaceOnUse" x="158" y="40" width="198" height="362">
<path d="M356 40H158V402H356V40Z" fill="white"/>
</mask>
<g mask="url(#mask0_186_2796)">
<mask id="mask1_186_2796" style="mask-type:alpha" maskUnits="userSpaceOnUse" x="158" y="40" width="198" height="362">
<mask id="mask2_186_2796" style="mask-type:luminance" maskUnits="userSpaceOnUse" x="158" y="40" width="198" height="362">
<path d="M158 40H356V402H158V40Z" fill="white"/>
</mask>
<g mask="url(#mask2_186_2796)">
<path d="M158 40H356V402H158V40Z" fill="url(#paint1_linear_186_2796)"/>
</g>
</mask>
<g mask="url(#mask1_186_2796)">
<mask id="mask3_186_2796" style="mask-type:luminance" maskUnits="userSpaceOnUse" x="158" y="40" width="198" height="362">
<path d="M158 40H356V402H158V40Z" fill="white"/>
</mask>
<g mask="url(#mask3_186_2796)">
<mask id="mask4_186_2796" style="mask-type:luminance" maskUnits="userSpaceOnUse" x="158" y="40" width="198" height="362">
<path d="M158 40H356V402H158V40Z" fill="white"/>
</mask>
<g mask="url(#mask4_186_2796)">
<mask id="mask5_186_2796" style="mask-type:luminance" maskUnits="userSpaceOnUse" x="158" y="40" width="198" height="362">
<path d="M158 40H356V402H158V40Z" fill="white"/>
</mask>
<g mask="url(#mask5_186_2796)">
<path d="M187.881 41.9204C189.365 41.9204 190.681 41.4418 191.829 40.4844C192.977 39.499 193.873 38.1053 194.517 36.3033C195.161 34.5013 195.483 32.3616 195.483 29.8839C195.483 27.9693 195.273 26.2518 194.853 24.7314C194.461 23.1828 193.901 21.8877 193.173 20.8459L184.983 41.2024C185.879 41.681 186.845 41.9204 187.881 41.9204ZM180.279 29.8839C180.279 31.7984 180.475 33.53 180.867 35.0786C181.287 36.599 181.861 37.88 182.589 38.9218L190.737 18.6076C189.869 18.1289 188.917 17.8896 187.881 17.8896C186.397 17.8896 185.081 18.3824 183.933 19.3678C182.785 20.3251 181.889 21.7046 181.245 23.5066C180.601 25.2804 180.279 27.4061 180.279 29.8839ZM187.881 45.1723C185.669 45.1723 183.709 44.5529 182.001 43.3141C180.321 42.0753 179.005 40.3155 178.053 38.0349C177.129 35.7543 176.667 33.0373 176.667 29.8839C176.667 26.7304 177.129 24.0134 178.053 21.7328C179.005 19.4522 180.321 17.6925 182.001 16.4537C183.709 15.2148 185.669 14.5954 187.881 14.5954C190.121 14.5954 192.081 15.2149 193.761 16.4537C195.441 17.6925 196.743 19.4522 197.667 21.7328C198.619 24.0134 199.095 26.7304 199.095 29.8839C199.095 33.0373 198.619 35.7543 197.667 38.0349C196.743 40.3155 195.441 42.0753 193.761 43.3141C192.081 44.5529 190.121 45.1723 187.881 45.1723Z" fill="#EAFF95"/>
<path d="M227.721 44.6655V41.4558H235.323V19.2833L228.141 20.677V17.9741L236.499 15.1022H238.851V41.4558H246.873V44.6655H227.721Z" fill="#EAFF95"/>
<path d="M277.221 44.6655V41.4558H284.823V19.2833L277.641 20.677V17.9741L285.999 15.1022H288.351V41.4558H296.373V44.6655H277.221Z" fill="#EAFF95"/>
<path d="M336.381 41.9204C337.865 41.9204 339.181 41.4418 340.329 40.4844C341.477 39.499 342.373 38.1053 343.017 36.3033C343.661 34.5013 343.983 32.3616 343.983 29.8839C343.983 27.9693 343.773 26.2518 343.353 24.7314C342.961 23.1828 342.401 21.8877 341.673 20.8459L333.483 41.2024C334.379 41.681 335.345 41.9204 336.381 41.9204ZM328.779 29.8839C328.779 31.7984 328.975 33.53 329.367 35.0786C329.787 36.599 330.361 37.88 331.089 38.9218L339.237 18.6076C338.369 18.1289 337.417 17.8896 336.381 17.8896C334.897 17.8896 333.581 18.3824 332.433 19.3678C331.285 20.3251 330.389 21.7046 329.745 23.5066C329.101 25.2804 328.779 27.4061 328.779 29.8839ZM336.381 45.1723C334.169 45.1723 332.209 44.5529 330.501 43.3141C328.821 42.0753 327.505 40.3155 326.553 38.0349C325.629 35.7543 325.167 33.0373 325.167 29.8839C325.167 26.7304 325.629 24.0134 326.553 21.7328C327.505 19.4522 328.821 17.6925 330.501 16.4537C332.209 15.2148 334.169 14.5954 336.381 14.5954C338.621 14.5954 340.581 15.2149 342.261 16.4537C343.941 17.6925 345.243 19.4522 346.167 21.7328C347.119 24.0134 347.595 26.7304 347.595 29.8839C347.595 33.0373 347.119 35.7543 346.167 38.0349C345.243 40.3155 343.941 42.0753 342.261 43.3141C340.581 44.5529 338.621 45.1723 336.381 45.1723Z" fill="#EAFF95"/>
</g>
<mask id="mask6_186_2796" style="mask-type:luminance" maskUnits="userSpaceOnUse" x="158" y="40" width="198" height="362">
<path d="M158 40H356V402H158V40Z" fill="white"/>
</mask>
<g mask="url(#mask6_186_2796)">
<path d="M178.221 101.982V98.7725H185.823V76.6L178.641 77.9937V75.2908L186.999 72.4189H189.351V98.7725H197.373V101.982H178.221Z" fill="#EAFF95"/>
<path d="M237.381 99.237C238.865 99.237 240.181 98.7585 241.329 97.8011C242.477 96.8157 243.373 95.422 244.017 93.62C244.661 91.818 244.983 89.6783 244.983 87.2005C244.983 85.286 244.773 83.5685 244.353 82.0481C243.961 80.4995 243.401 79.2044 242.673 78.1626L234.483 98.5191C235.379 98.9977 236.345 99.237 237.381 99.237ZM229.779 87.2005C229.779 89.1151 229.975 90.8466 230.367 92.3952C230.787 93.9156 231.361 95.1967 232.089 96.2385L240.237 75.9242C239.369 75.4456 238.417 75.2063 237.381 75.2063C235.897 75.2063 234.581 75.6991 233.433 76.6844C232.285 77.6417 231.389 79.0213 230.745 80.8233C230.101 82.5971 229.779 84.7228 229.779 87.2005ZM237.381 102.489C235.169 102.489 233.209 101.87 231.501 100.631C229.821 99.392 228.505 97.6322 227.553 95.3516C226.629 93.071 226.167 90.354 226.167 87.2005C226.167 84.0471 226.629 81.3301 227.553 79.0495C228.505 76.7689 229.821 75.0091 231.501 73.7703C233.209 72.5315 235.169 71.9121 237.381 71.9121C239.621 71.9121 241.581 72.5316 243.261 73.7703C244.941 75.0092 246.243 76.7689 247.167 79.0495C248.119 81.3301 248.595 84.0471 248.595 87.2005C248.595 90.354 248.119 93.071 247.167 95.3516C246.243 97.6322 244.941 99.392 243.261 100.631C241.581 101.87 239.621 102.489 237.381 102.489Z" fill="#EAFF95"/>
<path d="M277.221 101.982V98.7725H284.823V76.6L277.641 77.9937V75.2908L285.999 72.4189H288.351V98.7725H296.373V101.982H277.221Z" fill="#EAFF95"/>
<path d="M336.381 99.237C337.865 99.237 339.181 98.7585 340.329 97.8011C341.477 96.8157 342.373 95.422 343.017 93.62C343.661 91.818 343.983 89.6783 343.983 87.2005C343.983 85.286 343.773 83.5685 343.353 82.0481C342.961 80.4995 342.401 79.2044 341.673 78.1626L333.483 98.5191C334.379 98.9977 335.345 99.237 336.381 99.237ZM328.779 87.2005C328.779 89.1151 328.975 90.8466 329.367 92.3952C329.787 93.9156 330.361 95.1967 331.089 96.2385L339.237 75.9242C338.369 75.4456 337.417 75.2063 336.381 75.2063C334.897 75.2063 333.581 75.6991 332.433 76.6844C331.285 77.6417 330.389 79.0213 329.745 80.8233C329.101 82.5971 328.779 84.7228 328.779 87.2005ZM336.381 102.489C334.169 102.489 332.209 101.87 330.501 100.631C328.821 99.392 327.505 97.6322 326.553 95.3516C325.629 93.071 325.167 90.354 325.167 87.2005C325.167 84.0471 325.629 81.3301 326.553 79.0495C327.505 76.7689 328.821 75.0091 330.501 73.7703C332.209 72.5315 334.169 71.9121 336.381 71.9121C338.621 71.9121 340.581 72.5316 342.261 73.7703C343.941 75.0092 345.243 76.7689 346.167 79.0495C347.119 81.3301 347.595 84.0471 347.595 87.2005C347.595 90.354 347.119 93.071 346.167 95.3516C345.243 97.6322 343.941 99.392 342.261 100.631C340.581 101.87 338.621 102.489 336.381 102.489Z" fill="#EAFF95"/>
</g>
<mask id="mask7_186_2796" style="mask-type:luminance" maskUnits="userSpaceOnUse" x="158" y="40" width="198" height="362">
<path d="M158 40H356V402H158V40Z" fill="white"/>
</mask>
<g mask="url(#mask7_186_2796)">
<path d="M187.881 156.554C189.365 156.554 190.681 156.075 191.829 155.118C192.977 154.132 193.873 152.739 194.517 150.937C195.161 149.135 195.483 146.995 195.483 144.517C195.483 142.603 195.273 140.885 194.853 139.365C194.461 137.816 193.901 136.521 193.173 135.479L184.983 155.836C185.879 156.314 186.845 156.554 187.881 156.554ZM180.279 144.517C180.279 146.432 180.475 148.163 180.867 149.712C181.287 151.232 181.861 152.513 182.589 153.555L190.737 133.241C189.869 132.762 188.917 132.523 187.881 132.523C186.397 132.523 185.081 133.016 183.933 134.001C182.785 134.958 181.889 136.338 181.245 138.14C180.601 139.914 180.279 142.039 180.279 144.517ZM187.881 159.806C185.669 159.806 183.709 159.186 182.001 157.947C180.321 156.709 179.005 154.949 178.053 152.668C177.129 150.388 176.667 147.671 176.667 144.517C176.667 141.364 177.129 138.647 178.053 136.366C179.005 134.086 180.321 132.326 182.001 131.087C183.709 129.848 185.669 129.229 187.881 129.229C190.121 129.229 192.081 129.848 193.761 131.087C195.441 132.326 196.743 134.086 197.667 136.366C198.619 138.647 199.095 141.364 199.095 144.517C199.095 147.671 198.619 150.388 197.667 152.668C196.743 154.949 195.441 156.709 193.761 157.947C192.081 159.186 190.121 159.806 187.881 159.806Z" fill="#EAFF95"/>
<path d="M227.721 159.299V156.089H235.323V133.917L228.141 135.31V132.607L236.499 129.736H238.851V156.089H246.873V159.299H227.721Z" fill="#EAFF95"/>
<path d="M277.221 159.299V156.089H284.823V133.917L277.641 135.31V132.607L285.999 129.736H288.351V156.089H296.373V159.299H277.221Z" fill="#EAFF95"/>
<path d="M336.381 156.554C337.865 156.554 339.181 156.075 340.329 155.118C341.477 154.132 342.373 152.739 343.017 150.937C343.661 149.135 343.983 146.995 343.983 144.517C343.983 142.603 343.773 140.885 343.353 139.365C342.961 137.816 342.401 136.521 341.673 135.479L333.483 155.836C334.379 156.314 335.345 156.554 336.381 156.554ZM328.779 144.517C328.779 146.432 328.975 148.163 329.367 149.712C329.787 151.232 330.361 152.513 331.089 153.555L339.237 133.241C338.369 132.762 337.417 132.523 336.381 132.523C334.897 132.523 333.581 133.016 332.433 134.001C331.285 134.958 330.389 136.338 329.745 138.14C329.101 139.914 328.779 142.039 328.779 144.517ZM336.381 159.806C334.169 159.806 332.209 159.186 330.501 157.947C328.821 156.709 327.505 154.949 326.553 152.668C325.629 150.388 325.167 147.671 325.167 144.517C325.167 141.364 325.629 138.647 326.553 136.366C327.505 134.086 328.821 132.326 330.501 131.087C332.209 129.848 334.169 129.229 336.381 129.229C338.621 129.229 340.581 129.848 342.261 131.087C343.941 132.326 345.243 134.086 346.167 136.366C347.119 138.647 347.595 141.364 347.595 144.517C347.595 147.671 347.119 150.388 346.167 152.668C345.243 154.949 343.941 156.709 342.261 157.947C340.581 159.186 338.621 159.806 336.381 159.806Z" fill="#EAFF95"/>
</g>
<mask id="mask8_186_2796" style="mask-type:luminance" maskUnits="userSpaceOnUse" x="158" y="40" width="198" height="362">
<path d="M158 40H356V402H158V40Z" fill="white"/>
</mask>
<g mask="url(#mask8_186_2796)">
<path d="M178.221 216.616V213.406H185.823V191.233L178.641 192.627V189.924L186.999 187.052H189.351V213.406H197.373V216.616H178.221Z" fill="#EAFF95"/>
<path d="M237.381 213.87C238.865 213.87 240.181 213.392 241.329 212.434C242.477 211.449 243.373 210.055 244.017 208.253C244.661 206.451 244.983 204.312 244.983 201.834C244.983 199.919 244.773 198.202 244.353 196.681C243.961 195.133 243.401 193.838 242.673 192.796L234.483 213.152C235.379 213.631 236.345 213.87 237.381 213.87ZM229.779 201.834C229.779 203.748 229.975 205.48 230.367 207.029C230.787 208.549 231.361 209.83 232.089 210.872L240.237 190.558C239.369 190.079 238.417 189.84 237.381 189.84C235.897 189.84 234.581 190.332 233.433 191.318C232.285 192.275 231.389 193.655 230.745 195.457C230.101 197.23 229.779 199.356 229.779 201.834ZM237.381 217.122C235.169 217.122 233.209 216.503 231.501 215.264C229.821 214.025 228.505 212.266 227.553 209.985C226.629 207.704 226.167 204.987 226.167 201.834C226.167 198.68 226.629 195.963 227.553 193.683C228.505 191.402 229.821 189.642 231.501 188.404C233.209 187.165 235.169 186.545 237.381 186.545C239.621 186.545 241.581 187.165 243.261 188.404C244.941 189.643 246.243 191.402 247.167 193.683C248.119 195.963 248.595 198.68 248.595 201.834C248.595 204.987 248.119 207.704 247.167 209.985C246.243 212.266 244.941 214.025 243.261 215.264C241.581 216.503 239.621 217.122 237.381 217.122Z" fill="#EAFF95"/>
<path d="M277.221 216.616V213.406H284.823V191.233L277.641 192.627V189.924L285.999 187.052H288.351V213.406H296.373V216.616H277.221Z" fill="#EAFF95"/>
<path d="M336.381 213.87C337.865 213.87 339.181 213.392 340.329 212.434C341.477 211.449 342.373 210.055 343.017 208.253C343.661 206.451 343.983 204.312 343.983 201.834C343.983 199.919 343.773 198.202 343.353 196.681C342.961 195.133 342.401 193.838 341.673 192.796L333.483 213.152C334.379 213.631 335.345 213.87 336.381 213.87ZM328.779 201.834C328.779 203.748 328.975 205.48 329.367 207.029C329.787 208.549 330.361 209.83 331.089 210.872L339.237 190.558C338.369 190.079 337.417 189.84 336.381 189.84C334.897 189.84 333.581 190.332 332.433 191.318C331.285 192.275 330.389 193.655 329.745 195.457C329.101 197.23 328.779 199.356 328.779 201.834ZM336.381 217.122C334.169 217.122 332.209 216.503 330.501 215.264C328.821 214.025 327.505 212.266 326.553 209.985C325.629 207.704 325.167 204.987 325.167 201.834C325.167 198.68 325.629 195.963 326.553 193.683C327.505 191.402 328.821 189.642 330.501 188.404C332.209 187.165 334.169 186.545 336.381 186.545C338.621 186.545 340.581 187.165 342.261 188.404C343.941 189.643 345.243 191.402 346.167 193.683C347.119 195.963 347.595 198.68 347.595 201.834C347.595 204.987 347.119 207.704 346.167 209.985C345.243 212.266 343.941 214.025 342.261 215.264C340.581 216.503 338.621 217.122 336.381 217.122Z" fill="#EAFF95"/>
</g>
<mask id="mask9_186_2796" style="mask-type:luminance" maskUnits="userSpaceOnUse" x="158" y="40" width="198" height="362">
<path d="M158 40H356V402H158V40Z" fill="white"/>
</mask>
<g mask="url(#mask9_186_2796)">
<path d="M178.221 273.932V270.722H185.823V248.55L178.641 249.944V247.241L186.999 244.369H189.351V270.722H197.373V273.932H178.221Z" fill="#EAFF95"/>
<path d="M227.721 273.932V270.722H235.323V248.55L228.141 249.944V247.241L236.499 244.369H238.851V270.722H246.873V273.932H227.721Z" fill="#EAFF95"/>
<path d="M286.881 271.187C288.365 271.187 289.681 270.708 290.829 269.751C291.977 268.766 292.873 267.372 293.517 265.57C294.161 263.768 294.483 261.628 294.483 259.151C294.483 257.236 294.273 255.518 293.853 253.998C293.461 252.449 292.901 251.154 292.173 250.113L283.983 270.469C284.879 270.948 285.845 271.187 286.881 271.187ZM279.279 259.151C279.279 261.065 279.475 262.797 279.867 264.345C280.287 265.866 280.861 267.147 281.589 268.188L289.737 247.874C288.869 247.396 287.917 247.156 286.881 247.156C285.397 247.156 284.081 247.649 282.933 248.634C281.785 249.592 280.889 250.971 280.245 252.773C279.601 254.547 279.279 256.673 279.279 259.151ZM286.881 274.439C284.669 274.439 282.709 273.82 281.001 272.581C279.321 271.342 278.005 269.582 277.053 267.302C276.129 265.021 275.667 262.304 275.667 259.151C275.667 255.997 276.129 253.28 277.053 250.999C278.005 248.719 279.321 246.959 281.001 245.72C282.709 244.481 284.669 243.862 286.881 243.862C289.121 243.862 291.081 244.482 292.761 245.72C294.441 246.959 295.743 248.719 296.667 250.999C297.619 253.28 298.095 255.997 298.095 259.151C298.095 262.304 297.619 265.021 296.667 267.302C295.743 269.582 294.441 271.342 292.761 272.581C291.081 273.82 289.121 274.439 286.881 274.439Z" fill="#EAFF95"/>
<path d="M326.721 273.932V270.722H334.323V248.55L327.141 249.944V247.241L335.499 244.369H337.851V270.722H345.873V273.932H326.721Z" fill="#EAFF95"/>
</g>
<mask id="mask10_186_2796" style="mask-type:luminance" maskUnits="userSpaceOnUse" x="158" y="40" width="198" height="362">
<path d="M158 40H356V402H158V40Z" fill="white"/>
</mask>
<g mask="url(#mask10_186_2796)">
<path d="M178.221 331.249V328.039H185.823V305.867L178.641 307.26V304.557L186.999 301.685H189.351V328.039H197.373V331.249H178.221Z" fill="#EAFF95"/>
<path d="M227.721 331.249V328.039H235.323V305.867L228.141 307.26V304.557L236.499 301.685H238.851V328.039H246.873V331.249H227.721Z" fill="#EAFF95"/>
<path d="M286.881 328.504C288.365 328.504 289.681 328.025 290.829 327.068C291.977 326.082 292.873 324.689 293.517 322.887C294.161 321.085 294.483 318.945 294.483 316.467C294.483 314.553 294.273 312.835 293.853 311.315C293.461 309.766 292.901 308.471 292.173 307.429L283.983 327.786C284.879 328.264 285.845 328.504 286.881 328.504ZM279.279 316.467C279.279 318.382 279.475 320.113 279.867 321.662C280.287 323.182 280.861 324.463 281.589 325.505L289.737 305.191C288.869 304.712 287.917 304.473 286.881 304.473C285.397 304.473 284.081 304.966 282.933 305.951C281.785 306.908 280.889 308.288 280.245 310.09C279.601 311.864 279.279 313.989 279.279 316.467ZM286.881 331.756C284.669 331.756 282.709 331.136 281.001 329.897C279.321 328.659 278.005 326.899 277.053 324.618C276.129 322.338 275.667 319.621 275.667 316.467C275.667 313.314 276.129 310.597 277.053 308.316C278.005 306.036 279.321 304.276 281.001 303.037C282.709 301.798 284.669 301.179 286.881 301.179C289.121 301.179 291.081 301.798 292.761 303.037C294.441 304.276 295.743 306.036 296.667 308.316C297.619 310.597 298.095 313.314 298.095 316.467C298.095 319.621 297.619 322.338 296.667 324.618C295.743 326.899 294.441 328.659 292.761 329.897C291.081 331.136 289.121 331.756 286.881 331.756Z" fill="#EAFF95"/>
<path d="M326.721 331.249V328.039H334.323V305.867L327.141 307.26V304.557L335.499 301.685H337.851V328.039H345.873V331.249H326.721Z" fill="#EAFF95"/>
</g>
<mask id="mask11_186_2796" style="mask-type:luminance" maskUnits="userSpaceOnUse" x="158" y="40" width="198" height="362">
<path d="M158 40H356V402H158V40Z" fill="white"/>
</mask>
<g mask="url(#mask11_186_2796)">
<path d="M178.221 388.566V385.356H185.823V363.183L178.641 364.577V361.874L186.999 359.002H189.351V385.356H197.373V388.566H178.221Z" fill="#EAFF95"/>
<path d="M227.721 388.566V385.356H235.323V363.183L228.141 364.577V361.874L236.499 359.002H238.851V385.356H246.873V388.566H227.721Z" fill="#EAFF95"/>
<path d="M286.881 385.82C288.365 385.82 289.681 385.342 290.829 384.384C291.977 383.399 292.873 382.005 293.517 380.203C294.161 378.401 294.483 376.262 294.483 373.784C294.483 371.869 294.273 370.152 293.853 368.631C293.461 367.083 292.901 365.788 292.173 364.746L283.983 385.102C284.879 385.581 285.845 385.82 286.881 385.82ZM279.279 373.784C279.279 375.698 279.475 377.43 279.867 378.979C280.287 380.499 280.861 381.78 281.589 382.822L289.737 362.508C288.869 362.029 287.917 361.79 286.881 361.79C285.397 361.79 284.081 362.282 282.933 363.268C281.785 364.225 280.889 365.605 280.245 367.407C279.601 369.18 279.279 371.306 279.279 373.784ZM286.881 389.072C284.669 389.072 282.709 388.453 281.001 387.214C279.321 385.975 278.005 384.215 277.053 381.935C276.129 379.654 275.667 376.937 275.667 373.784C275.667 370.63 276.129 367.913 277.053 365.633C278.005 363.352 279.321 361.592 281.001 360.354C282.709 359.115 284.669 358.495 286.881 358.495C289.121 358.495 291.081 359.115 292.761 360.354C294.441 361.592 295.743 363.352 296.667 365.633C297.619 367.913 298.095 370.63 298.095 373.784C298.095 376.937 297.619 379.654 296.667 381.935C295.743 384.215 294.441 385.975 292.761 387.214C291.081 388.453 289.121 389.072 286.881 389.072Z" fill="#EAFF95"/>
<path d="M326.721 388.566V385.356H334.323V363.183L327.141 364.577V361.874L335.499 359.002H337.851V385.356H345.873V388.566H326.721Z" fill="#EAFF95"/>
</g>
</g>
</g>
</g>
</g>
</g>
<defs>
<linearGradient id="paint0_linear_186_2796" x1="257" y1="0" x2="257" y2="442" gradientUnits="userSpaceOnUse">
<stop stop-color="#24251D"/>
<stop offset="1" stop-color="#171812"/>
</linearGradient>
<linearGradient id="paint1_linear_186_2796" x1="257" y1="63.3792" x2="257" y2="377.867" gradientUnits="userSpaceOnUse">
<stop stop-color="white" stop-opacity="0"/>
<stop offset="0.52" stop-color="white"/>
<stop offset="1" stop-color="#D9D9D9" stop-opacity="0"/>
</linearGradient>
<clipPath id="clip0_186_2796">
<rect width="198" height="362" fill="white" transform="translate(158 40)"/>
</clipPath>
</defs>
</svg>
