<svg width="24" height="24" viewBox="0 0 24 24" fill="none" xmlns="http://www.w3.org/2000/svg">
<path d="M15.553 15.553C16.2086 14.8974 16.7287 14.119 17.0835 13.2624C17.4383 12.4058 17.621 11.4877 17.621 10.5605C17.621 9.63331 17.4383 8.7152 17.0835 7.85859C16.7287 7.00197 16.2086 6.22363 15.553 5.56801C14.8974 4.91238 14.119 4.39231 13.2624 4.03749C12.4058 3.68267 11.4877 3.50005 10.5605 3.50005C9.63331 3.50005 8.71519 3.68267 7.85858 4.03749C7.00196 4.39231 6.22362 4.91238 5.568 5.56801C4.24391 6.8921 3.50004 8.68796 3.50004 10.5605C3.50004 12.4331 4.24391 14.2289 5.568 15.553C6.89209 16.8771 8.68795 17.621 10.5605 17.621C12.433 17.621 14.2289 16.8771 15.553 15.553ZM15.553 15.553L20 20" stroke="white" stroke-width="1.5" stroke-linecap="round" stroke-linejoin="round"/>
</svg>
