<svg width="514" height="442" viewBox="0 0 514 442" fill="none" xmlns="http://www.w3.org/2000/svg">
<rect x="0.5" y="0.5" width="513" height="441" rx="15.5" fill="url(#paint0_linear_186_3521)"/>
<rect x="0.5" y="0.5" width="513" height="441" rx="15.5" stroke="#3D3E31"/>
<g clip-path="url(#clip0_186_3521)">
<path opacity="0.1" d="M378.52 284.433H386.208V288.284H378.52V291.222H386.208V295.058H378.52V298.011H386.208V301.847H378.52V304.786H386.208V308.635H378.52V311.575H386.208V315.424H378.52V317.561H343.256V315.424H335.57V311.575H343.256V308.635H335.57V304.786H343.256V301.847H335.57V298.011H343.256V295.058H335.57V291.222H343.256V288.284H335.57V284.433H343.256V282.297H378.52V284.433ZM378.52 243.034V245.973H386.208V249.823H378.52V252.762H386.208V256.612H378.52V259.55H386.208V263.401H378.52V266.339H386.208V270.175H378.52V272.311H343.256V270.175H335.57V266.339H343.256V263.401H335.57V259.55H343.256V256.612H335.57V252.762H343.256V249.823H335.57V245.973H343.256V243.034H335.57V239.197H343.256V237.062H378.52V239.197H386.208V243.034H378.52ZM177.709 287.221V290.159H185.409V294.009H177.709V296.948H185.409V300.798H177.709V303.736H185.409V307.574H177.709V310.525H185.409V314.362H177.709V317.301H185.409V321.151H177.709V324.089H185.409V327.94H177.709V330.878H185.409V334.729H177.709V337.667H185.409V341.504H177.709V344.401H145.805V341.504H138.119V337.667H145.805V334.729H138.119V330.878H145.805V327.94H138.119V324.089H145.805V321.151H138.119V317.301H145.805V314.362H138.119V310.525H145.805V307.574H138.119V303.736H145.805V300.798H138.119V296.948H145.805V294.009H138.119V290.159H145.805V287.221H138.119V283.37H145.805V280.473H157.492C157.513 281.599 157.975 282.673 158.779 283.462C159.583 284.251 160.665 284.693 161.791 284.693C162.918 284.693 163.999 284.251 164.803 283.462C165.607 282.673 166.069 281.599 166.09 280.473H177.763V283.37H185.464V287.221H177.709ZM378.52 110.211V113.15H386.208V116.987H378.52V119.939H386.208V123.776H378.52V126.713H386.208V130.564H378.52V133.501H386.208V137.353H378.52V139.488H343.256V137.353H335.57V133.503H343.256V130.564H335.57V126.714H343.256V123.776H335.57V119.939H343.256V116.987H335.57V113.15H343.256V110.211H335.57V106.361H343.256V104.227H378.52V106.363H386.208V110.213L378.52 110.211ZM272.1 119.692V122.632H279.788V126.481H272.1V129.42H279.788V133.269H272.1V136.209H279.788V140.058H272.1V142.998H279.788V146.848H272.1V149.785H279.788V153.622H272.1V156.561H279.788V160.411H272.1V163.349H279.788V167.2H272.1V170.138H279.788V173.988H272.1V176.927H279.788V180.777H272.1V183.717H279.788V187.553H272.1V190.504H279.788V194.341H272.1V197.28H279.788V201.13H272.1V204.069H279.788V207.919H272.1V210.857H279.788V214.708H272.1V217.646H279.788V221.483H272.1V223.809H269.774V231.497H265.937V223.809H262.999V231.497H259.148V223.809H256.21V231.497H252.36V223.809H249.421V231.497H245.571V223.809H242.632V231.497H238.797V223.809H235.845V231.497H232.007V223.809H229.07V231.497H225.219V223.809H222.28V231.497H218.431V223.809H215.491V231.497H211.642V223.809H208.702V231.497H204.866V223.809H201.915V231.497H198.078V223.809H195.139V231.497H191.289V223.809H188.349V231.497H184.499V223.809H181.56V231.497H177.71V223.809H174.772V231.497H170.921V223.809H167.981V231.497H164.149V223.809H161.823V221.483H154.134V217.646H161.821V214.708H154.134V210.857H161.821V207.919H154.134V204.069H161.821V201.132H154.134V197.28H161.821V194.343H154.134V190.506H161.821V187.554H154.134V183.716H161.821V180.779H154.134V176.927H161.821V173.99H154.134V170.138H161.821V167.201H154.134V163.348H161.821V160.411H154.134V156.559H161.821V153.622H154.134V149.785H161.821V146.845H154.134V142.996H161.821V140.058H154.134V136.211H161.821V133.271H154.134V129.422H161.821V126.482H154.134V122.633H161.821V119.69H154.134V115.858H161.821V113.532H164.147V105.843H167.984V113.53H170.921V105.843H174.773V113.53H177.71V105.843H181.562V113.53H184.499V105.843H188.351V113.53H191.287V105.843H195.139V113.53H198.076V105.843H201.913V113.53H204.865V105.843H208.702V113.53H211.642V105.843H215.491V113.53H218.431V105.843H222.28V113.53H225.219V105.843H229.068V113.53H232.008V105.843H235.844V113.53H238.795V105.843H242.632V113.53H245.571V105.843H249.421V113.53H252.36V105.843H256.21V113.53H259.148V105.843H262.999V113.53H265.937V105.843H269.774V113.53H272.1V115.856H279.788V119.692H272.1Z" fill="#F8F8F5"/>
<g filter="url(#filter0_i_186_3521)">
<path d="M267.804 112.17H163.398C162.619 112.17 161.872 112.48 161.322 113.03C160.771 113.581 160.461 114.328 160.461 115.107V219.512C160.461 220.291 160.771 221.038 161.322 221.589C161.872 222.14 162.619 222.449 163.398 222.449H267.804C268.582 222.449 269.329 222.14 269.88 221.589C270.431 221.038 270.74 220.291 270.74 219.512V115.107C270.74 114.328 270.431 113.581 269.88 113.03C269.329 112.48 268.582 112.17 267.804 112.17Z" fill="#213102"/>
</g>
<path d="M163.398 112.537H267.804C269.224 112.537 270.373 113.687 270.373 115.107V219.512C270.373 220.194 270.103 220.848 269.621 221.33C269.139 221.812 268.485 222.082 267.804 222.082H163.398C162.717 222.082 162.063 221.812 161.581 221.33C161.099 220.848 160.829 220.194 160.829 219.512V115.107C160.829 113.687 161.978 112.537 163.398 112.537Z" stroke="#D8FE53" stroke-width="0.5"/>
<path d="M166.623 222.451H162.773V230.138H166.623V222.451ZM173.415 222.448H169.564V230.135H173.415V222.448ZM180.201 222.448H176.35V230.135H180.201V222.448ZM186.992 222.448H183.142V230.135H186.992V222.448ZM193.778 222.451H189.928V230.138H193.778V222.451ZM200.552 222.451H196.705V230.138H200.554L200.552 222.451ZM207.338 222.451H203.489V230.138H207.338V222.451ZM214.13 222.451H210.281V230.138H214.13V222.451ZM220.921 222.451H217.072V230.138H220.921V222.451ZM227.708 222.448H223.857V230.135H227.707L227.708 222.448ZM234.477 222.451H230.626V230.138H234.477V222.451ZM241.274 222.451H237.424V230.138H241.274V222.451ZM248.066 222.451H244.215V230.138H248.066V222.451ZM254.846 222.451H250.995V230.138H254.846V222.451ZM261.637 222.451H257.787V230.138H261.637V222.451ZM268.417 222.448H264.567V230.135H268.417V222.448ZM160.461 118.345V114.496H152.774V118.345H160.461ZM160.461 125.135V121.285H152.774V125.135H160.461ZM160.461 131.912V128.061H152.774V131.911L160.461 131.912ZM160.461 138.698V134.848H152.774V138.698H160.461ZM160.45 145.49V141.64H152.764V145.49H160.45ZM160.461 152.279V148.428H152.774V152.279H160.461ZM160.461 159.064V155.214H152.774V159.064H160.461ZM160.461 165.838V161.988H152.774V165.838H160.461ZM160.461 172.63V168.781H152.774V172.632L160.461 172.63ZM160.45 179.416V175.567H152.764V179.416H160.45ZM160.461 186.208V182.359H152.774V186.208H160.461ZM160.461 192.996V189.149H152.774V192.998L160.461 192.996ZM160.461 199.785V195.936H152.774V199.785H160.461ZM160.461 206.558V202.707H152.774V206.558H160.461ZM160.45 213.349V209.499H152.764V213.349H160.45ZM160.461 220.135V216.285H152.774V220.135H160.461ZM264.577 112.17H268.428V104.483H264.577V112.17ZM257.769 112.17H261.62V104.483H257.769V112.17ZM250.984 112.17H254.833V104.483H250.984V112.17ZM244.214 112.17H248.064V104.483H244.214V112.17ZM237.422 112.17H241.273V104.483H237.422V112.17ZM230.631 112.17H234.481V104.483H230.631V112.17ZM223.839 112.17H227.689V104.483H223.839V112.17ZM217.059 112.17H220.909V104.483H217.058L217.059 112.17ZM210.285 112.17H214.135V104.483H210.285V112.17ZM203.493 112.17H207.344V104.483H203.493V112.17ZM196.702 112.17H200.552V104.483H196.702V112.17ZM189.916 112.17H193.766V104.483H189.916V112.17ZM183.13 112.17H186.979V104.483H183.13V112.17ZM176.337 112.17H180.187V104.483H176.338L176.337 112.17ZM169.563 112.17H173.413V104.483H169.563V112.17ZM162.777 112.17H166.627V104.483H162.777V112.17ZM270.723 216.274V220.125H278.409V216.274H270.723ZM270.745 209.483V213.333H278.432V209.483H270.745ZM270.745 202.709V206.559H278.432V202.709H270.745ZM270.745 195.92V199.77H278.432V195.92H270.745ZM270.723 189.131V192.982H278.409V189.131H270.723ZM270.723 182.346V186.196H278.409V182.346H270.723ZM270.745 175.554V179.404H278.432V175.554H270.745ZM270.745 168.78V172.63H278.432V168.78H270.745ZM270.745 161.991V165.84H278.432V161.991H270.745ZM270.723 155.202V159.051H278.409V155.202H270.723ZM270.723 148.411V152.26H278.409V148.411H270.723ZM270.745 141.626V145.477H278.432V141.626H270.745ZM270.745 134.849V138.7H278.432V134.849H270.745ZM270.745 128.061V131.911H278.432V128.061H270.745ZM270.723 121.272V125.122H278.409V121.272H270.723ZM270.723 114.483V118.334H278.409V114.483H270.723Z" fill="#41580F"/>
<path d="M286.173 117.093H278.432V115.733H285.615L302.404 98.9307L303.37 99.8969L286.173 117.093Z" fill="#213102"/>
<path d="M287.643 123.886H278.432V122.525H287.085L310.825 98.7838L311.777 99.7501L287.643 123.886ZM290.948 218.885H278.432V217.526H290.377L300.812 207.104H348.741V208.465H301.37L290.948 218.885Z" fill="#213102"/>
<path d="M286.744 212.095H278.432V210.735H286.173L302.145 194.778H348.741V196.137H302.703L286.744 212.095Z" fill="#213102"/>
<path d="M367.714 203.51H348.735V212.054H367.714V203.51Z" fill="#D8FE53"/>
<path opacity="0.2" d="M352.735 203.51H348.735V212.054H352.735V203.51ZM367.712 203.51H363.712V212.054H367.712V203.51Z" fill="#F8F8F5"/>
<path d="M367.714 191.186H348.735V199.729H367.714V191.186Z" fill="#D8FE53"/>
<path opacity="0.2" d="M352.735 191.186H348.735V199.729H352.735V191.186ZM367.712 191.186H363.712V199.729H367.712V191.186Z" fill="#F8F8F5"/>
<path d="M116.366 158.032V130.578H107.823V158.032H116.366Z" fill="#D8FE53"/>
<path opacity="0.2" d="M116.384 136.357V130.563H107.84V136.359L116.384 136.357ZM116.384 158.032V152.237H107.84V158.034L116.384 158.032Z" fill="#F8F8F5"/>
<path d="M116.366 219.946V192.491H107.823V219.946H116.366Z" fill="#D8FE53"/>
<path opacity="0.2" d="M116.384 198.272V192.476H107.84V198.272H116.384ZM116.384 219.944V214.148H107.84V219.944H116.384Z" fill="#F8F8F5"/>
<path d="M367.714 178.874H348.735V187.418H367.714V178.873V178.874Z" fill="#D8FE53"/>
<path opacity="0.2" d="M352.735 178.874H348.735V187.418H352.735V178.873V178.874ZM367.712 178.874H363.712V187.418H367.712V178.873V178.874Z" fill="#F8F8F5"/>
<path d="M367.714 166.549H348.735V175.093H367.714V166.549Z" fill="#D8FE53"/>
<path opacity="0.2" d="M352.735 166.549H348.735V175.093H352.735V166.549ZM367.712 166.549H363.712V175.093H367.712V166.549Z" fill="#F8F8F5"/>
<path d="M367.714 154.221H348.735V162.766H367.714V154.221Z" fill="#D8FE53"/>
<path opacity="0.2" d="M352.735 154.221H348.735V162.766H352.735V154.221ZM367.712 154.221H363.712V162.766H367.712V154.221Z" fill="#F8F8F5"/>
<path d="M173.628 279.113C175.13 279.113 176.349 280.332 176.349 281.834V340.335C176.349 341.837 175.13 343.056 173.628 343.056H147.166C146.444 343.056 145.753 342.769 145.243 342.259C144.733 341.748 144.446 341.056 144.446 340.335V281.834C144.446 280.332 145.665 279.113 147.166 279.113H156.132C156.131 279.964 156.383 280.796 156.855 281.504C157.327 282.212 157.999 282.763 158.785 283.089C159.571 283.414 160.436 283.499 161.271 283.333C162.105 283.166 162.871 282.755 163.472 282.153C163.871 281.754 164.188 281.28 164.403 280.758C164.619 280.237 164.73 279.678 164.73 279.113H173.629H173.628Z" fill="#213102"/>
<path d="M144.393 285.864V282.013H136.707V285.864H144.393ZM144.388 292.652V288.802H136.703V292.652H144.388ZM144.388 299.441V295.591H136.703V299.441H144.388ZM144.388 306.23V302.38H136.703V306.23H144.388ZM144.388 313.019V309.168H136.703V313.019H144.388ZM144.393 319.79V315.939H136.707V319.79H144.393ZM144.388 326.581V322.731H136.703V326.581H144.388ZM144.393 333.37V329.52H136.707V333.37H144.393ZM144.388 340.159V336.309H136.703V340.159H144.388ZM184.032 285.864V282.013H176.344V285.864H184.032ZM184.032 292.652V288.802H176.344V292.652H184.032ZM184.032 299.441V295.591H176.344V299.441H184.032ZM184.048 306.212V302.362H176.362V306.212H184.048ZM184.048 313.004V309.154H176.362V313.004H184.048ZM184.032 319.79V315.939H176.344V319.79H184.032ZM184.032 326.581V322.731H176.344V326.581H184.032ZM184.032 333.37V329.52H176.344V333.37H184.032ZM184.048 340.146V336.295H176.362V340.146H184.048Z" fill="#41580F"/>
<path d="M371.712 235.702H347.333C346.618 235.702 345.911 235.843 345.25 236.117C344.59 236.39 343.99 236.791 343.485 237.296C342.98 237.802 342.579 238.402 342.306 239.062C342.033 239.722 341.892 240.43 341.892 241.144V265.524C341.892 266.967 342.465 268.351 343.486 269.371C344.506 270.391 345.89 270.965 347.333 270.965H371.712C372.427 270.965 373.135 270.824 373.795 270.551C374.455 270.278 375.055 269.877 375.56 269.372C376.066 268.866 376.467 268.267 376.74 267.606C377.014 266.946 377.154 266.239 377.154 265.524V241.144C377.154 239.701 376.581 238.317 375.561 237.296C374.54 236.276 373.156 235.702 371.712 235.702Z" fill="#213102"/>
<path d="M377.14 264.964V268.815H384.827V264.964H377.14ZM377.157 258.189V262.039H384.845V258.189H377.157ZM377.157 251.4V255.251H384.845V251.4H377.157ZM377.157 244.611V248.462H384.845V244.611H377.157ZM377.14 237.823V241.673H384.827V237.823H377.14ZM334.193 264.964V268.815H341.88V264.964H334.193ZM334.211 258.179V262.028H341.898V258.179H334.211ZM334.211 251.4V255.251H341.898V251.4H334.211ZM334.193 244.611V248.462H341.88V244.611H334.193ZM334.193 237.823V241.673H341.88V237.823H334.193Z" fill="#41580F"/>
<path d="M371.712 102.866H347.333C345.89 102.866 344.506 103.44 343.486 104.461C342.465 105.481 341.892 106.865 341.892 108.308V132.686C341.892 134.129 342.465 135.513 343.486 136.534C344.506 137.554 345.89 138.128 347.333 138.128H371.712C373.156 138.128 374.54 137.555 375.561 136.534C376.581 135.514 377.154 134.13 377.154 132.686V108.308C377.154 106.865 376.581 105.481 375.561 104.46C374.54 103.439 373.156 102.866 371.712 102.866Z" fill="#213102"/>
<path d="M377.157 132.143V135.992H384.845V132.143H377.157ZM377.14 125.353V129.203H384.827V125.353H377.14ZM377.14 118.564V122.414H384.827V118.564H377.14ZM377.14 111.775V115.626H384.827V111.775H377.14ZM377.157 105.001V108.852H384.845V105.001H377.157ZM334.193 132.143V135.992H341.88V132.143H334.193ZM334.193 125.353V129.203H341.88V125.353H334.193ZM334.193 118.564V122.414H341.88V118.564H334.193ZM334.193 111.775V115.626H341.88V111.775H334.193ZM334.211 104.987V108.837H341.898V104.987H334.211Z" fill="#41580F"/>
<path d="M371.712 280.937H347.333C345.89 280.937 344.506 281.511 343.486 282.531C342.465 283.552 341.892 284.936 341.892 286.379V310.759C341.892 311.473 342.033 312.181 342.306 312.841C342.579 313.501 342.98 314.101 343.485 314.607C343.99 315.112 344.59 315.513 345.25 315.787C345.911 316.06 346.618 316.201 347.333 316.201H371.712C373.156 316.201 374.54 315.627 375.561 314.607C376.581 313.586 377.154 312.202 377.154 310.759V286.379C377.154 284.936 376.581 283.552 375.561 282.531C374.54 281.51 373.156 280.937 371.712 280.937Z" fill="#213102"/>
<path d="M377.157 310.217V314.067H384.845V310.217H377.157ZM377.157 303.425V307.275H384.845V303.425H377.157ZM377.14 296.639V300.49H384.827V296.639H377.14ZM377.14 289.848V293.698H384.827V289.848H377.14ZM377.157 283.059V286.909H384.845V283.059H377.157ZM334.211 310.217V314.067H341.898V310.217H334.211ZM334.193 303.425V307.275H341.88V303.425H334.193ZM334.193 296.639V300.49H341.88V296.639H334.193ZM334.193 289.848V293.698H341.88V289.848H334.193ZM334.211 283.059V286.909H341.898V283.059H334.211Z" fill="#41580F"/>
<path d="M282.363 205.16H278.432V203.798H281.805L303.138 182.453H348.741V183.814H303.709L282.363 205.16ZM288.717 171.758H278.432V170.397H288.159L300.73 157.812H348.741V159.173H301.301L288.717 171.758ZM290.051 185.404H278.432V184.043H289.493L303.138 170.398H348.741V171.759H303.709L290.051 185.404ZM304.039 100.415C303.532 100.418 303.036 100.27 302.613 99.9897C302.191 99.7096 301.861 99.3102 301.665 98.8422C301.47 98.3743 301.418 97.8588 301.517 97.3614C301.615 96.8639 301.859 96.4069 302.217 96.0484C302.576 95.6898 303.033 95.4459 303.53 95.3477C304.028 95.2494 304.543 95.3011 305.011 95.4964C305.479 95.6916 305.879 96.0216 306.159 96.4443C306.439 96.867 306.587 97.3633 306.584 97.8704C306.585 98.2046 306.519 98.5357 306.391 98.8445C306.263 99.1533 306.076 99.434 305.839 99.6703C305.603 99.9067 305.322 100.094 305.014 100.222C304.705 100.35 304.374 100.415 304.039 100.415ZM304.039 96.6736C303.802 96.671 303.57 96.7389 303.371 96.8688C303.172 96.9987 303.017 97.1847 302.924 97.4032C302.832 97.6216 302.806 97.8627 302.851 98.0957C302.896 98.3287 303.008 98.5432 303.175 98.7119C303.342 98.8806 303.555 98.9959 303.788 99.0431C304.02 99.0904 304.262 99.0675 304.481 98.9773C304.701 98.8871 304.888 98.7338 305.02 98.5367C305.152 98.3396 305.223 98.1077 305.223 97.8704C305.225 97.6348 305.157 97.4038 305.028 97.2069C304.898 97.01 304.713 96.8561 304.496 96.7646C304.351 96.7045 304.196 96.6735 304.039 96.6736ZM312.457 100.537C311.782 100.537 311.134 100.269 310.657 99.7918C310.18 99.3145 309.912 98.6672 309.912 97.9923C309.912 97.3173 310.18 96.6701 310.657 96.1928C311.134 95.7155 311.782 95.4474 312.457 95.4474C313.132 95.4474 313.779 95.7155 314.256 96.1928C314.733 96.6701 315.002 97.3173 315.002 97.9923C315.002 98.6672 314.733 99.3145 314.256 99.7918C313.779 100.269 313.132 100.537 312.457 100.537ZM312.457 96.8087C312.281 96.808 312.108 96.8464 311.949 96.9211C311.791 96.9958 311.651 97.1049 311.539 97.2404C311.428 97.376 311.349 97.5346 311.306 97.7048C311.264 97.875 311.26 98.0525 311.295 98.2243C311.329 98.3962 311.4 98.5584 311.505 98.6992C311.609 98.84 311.743 98.9559 311.897 99.0384C312.052 99.1209 312.223 99.168 312.398 99.1763C312.573 99.1846 312.747 99.1538 312.909 99.0863C313.125 98.9961 313.31 98.8442 313.44 98.6496C313.57 98.455 313.64 98.2264 313.64 97.9923C313.641 97.8367 313.611 97.6826 313.551 97.5389C313.492 97.3952 313.404 97.2647 313.294 97.1553C313.072 96.9334 312.771 96.8088 312.457 96.8087ZM402.675 129.883C402.341 129.883 402.01 129.817 401.702 129.689C401.393 129.561 401.113 129.374 400.877 129.138C400.641 128.901 400.453 128.621 400.326 128.312C400.198 128.004 400.132 127.673 400.132 127.339C400.132 127.005 400.198 126.674 400.326 126.366C400.454 126.057 400.642 125.777 400.878 125.541C401.114 125.305 401.395 125.117 401.703 124.99C402.012 124.862 402.342 124.796 402.676 124.796C403.351 124.796 403.998 125.065 404.475 125.542C404.952 126.019 405.219 126.666 405.219 127.34C405.219 128.015 404.951 128.662 404.474 129.139C403.997 129.615 403.35 129.883 402.675 129.883ZM402.675 126.156C402.441 126.157 402.213 126.227 402.019 126.356C401.825 126.486 401.673 126.67 401.582 126.886C401.514 127.048 401.482 127.223 401.49 127.399C401.497 127.575 401.544 127.747 401.626 127.902C401.708 128.058 401.824 128.193 401.965 128.298C402.107 128.404 402.269 128.476 402.442 128.51C402.615 128.545 402.793 128.54 402.963 128.497C403.134 128.454 403.293 128.374 403.428 128.262C403.564 128.15 403.673 128.009 403.748 127.849C403.822 127.69 403.86 127.516 403.859 127.34C403.866 127.18 403.841 127.02 403.785 126.87C403.728 126.72 403.643 126.583 403.533 126.467C403.422 126.351 403.289 126.259 403.141 126.196C402.994 126.133 402.835 126.1 402.675 126.1V126.156ZM402.679 110.656C402.13 110.658 401.594 110.483 401.152 110.157C400.71 109.83 400.384 109.37 400.224 108.845C400.064 108.319 400.077 107.755 400.262 107.238C400.447 106.72 400.793 106.276 401.25 105.971C401.708 105.666 402.251 105.516 402.8 105.543C403.349 105.571 403.874 105.775 404.298 106.124C404.722 106.474 405.022 106.951 405.154 107.484C405.286 108.018 405.243 108.58 405.03 109.087C404.838 109.552 404.512 109.95 404.094 110.23C403.675 110.509 403.183 110.657 402.679 110.656ZM402.679 106.916C402.442 106.913 402.209 106.98 402.01 107.11C401.811 107.24 401.656 107.426 401.563 107.645C401.472 107.863 401.446 108.104 401.491 108.337C401.536 108.57 401.648 108.785 401.814 108.954C401.94 109.08 402.091 109.176 402.258 109.236C402.425 109.296 402.603 109.319 402.779 109.302C402.955 109.285 403.126 109.229 403.278 109.139C403.431 109.048 403.561 108.925 403.66 108.778C403.78 108.599 403.849 108.391 403.861 108.175C403.872 107.96 403.825 107.746 403.724 107.555C403.624 107.364 403.474 107.204 403.29 107.092C403.106 106.979 402.895 106.919 402.679 106.916ZM416.709 96.6736C416.334 96.671 415.963 96.5854 415.625 96.4229C415.286 96.2604 414.988 96.0251 414.751 95.7337C414.514 95.4424 414.345 95.1023 414.255 94.7377C414.165 94.3731 414.156 93.9932 414.23 93.6251C414.355 93.0062 414.705 92.4557 415.213 92.0807C415.72 91.7057 416.35 91.5328 416.978 91.5958C417.606 91.6588 418.188 91.9531 418.611 92.4215C419.034 92.8899 419.268 93.499 419.267 94.1302C419.264 94.8062 418.993 95.4533 418.513 95.93C418.034 96.4066 417.385 96.674 416.709 96.6736ZM416.709 92.9466C416.475 92.9462 416.246 93.0153 416.052 93.1453C415.857 93.2752 415.706 93.4601 415.617 93.6765C415.548 93.8386 415.516 94.0139 415.524 94.1898C415.531 94.3657 415.578 94.5377 415.66 94.6933C415.743 94.8489 415.859 94.9842 416 95.0894C416.141 95.1945 416.304 95.2669 416.477 95.3012C416.649 95.3355 416.828 95.3309 416.998 95.2877C417.169 95.2446 417.328 95.1639 417.464 95.0516C417.599 94.9393 417.708 94.7983 417.782 94.6386C417.857 94.479 417.894 94.3048 417.893 94.1287C417.889 93.8159 417.764 93.5168 417.542 93.2956C417.321 93.0744 417.022 92.9501 416.709 92.9466ZM134.295 213.962C133.792 213.963 133.3 213.814 132.881 213.534C132.463 213.255 132.137 212.857 131.945 212.392C131.736 211.887 131.695 211.329 131.827 210.799C131.96 210.27 132.259 209.797 132.681 209.45C133.103 209.103 133.625 208.902 134.171 208.875C134.716 208.848 135.256 208.997 135.71 209.301C136.164 209.604 136.508 210.045 136.692 210.56C136.876 211.074 136.89 211.633 136.731 212.156C136.572 212.679 136.25 213.136 135.811 213.461C135.373 213.786 134.841 213.962 134.295 213.962ZM134.295 210.235C134.061 210.236 133.833 210.305 133.639 210.435C133.444 210.565 133.293 210.749 133.202 210.965C133.105 211.199 133.085 211.459 133.146 211.706C133.208 211.953 133.347 212.174 133.544 212.335C133.74 212.497 133.984 212.591 134.238 212.603C134.492 212.616 134.743 212.546 134.955 212.405C135.166 212.264 135.327 212.058 135.412 211.819C135.498 211.579 135.504 211.318 135.43 211.075C135.356 210.832 135.206 210.619 135.001 210.467C134.797 210.316 134.549 210.234 134.295 210.235ZM134.295 228.219C133.792 228.22 133.3 228.071 132.881 227.792C132.463 227.512 132.137 227.114 131.945 226.649C131.736 226.145 131.695 225.587 131.827 225.057C131.96 224.527 132.259 224.054 132.681 223.707C133.103 223.361 133.625 223.159 134.171 223.132C134.716 223.105 135.256 223.255 135.71 223.558C136.164 223.861 136.508 224.303 136.692 224.817C136.876 225.331 136.89 225.891 136.731 226.413C136.572 226.936 136.25 227.394 135.811 227.719C135.373 228.044 134.841 228.219 134.295 228.219ZM134.295 224.492C134.061 224.493 133.833 224.563 133.639 224.692C133.444 224.822 133.293 225.006 133.202 225.222C133.105 225.457 133.085 225.717 133.146 225.964C133.208 226.21 133.347 226.431 133.544 226.593C133.74 226.754 133.984 226.848 134.238 226.861C134.492 226.873 134.743 226.804 134.955 226.662C135.166 226.521 135.327 226.316 135.412 226.076C135.498 225.837 135.504 225.576 135.43 225.332C135.356 225.089 135.206 224.876 135.001 224.725C134.797 224.573 134.549 224.492 134.295 224.492ZM176.353 266.558C175.85 266.557 175.359 266.407 174.941 266.128C174.523 265.848 174.197 265.451 174.004 264.987C173.794 264.482 173.753 263.923 173.886 263.393C174.019 262.863 174.318 262.39 174.741 262.043C175.163 261.696 175.686 261.495 176.232 261.468C176.777 261.441 177.317 261.591 177.771 261.895C178.226 262.199 178.57 262.64 178.754 263.155C178.938 263.67 178.951 264.23 178.792 264.752C178.633 265.275 178.31 265.733 177.871 266.058C177.432 266.383 176.9 266.558 176.353 266.558ZM176.353 262.829C176.119 262.829 175.89 262.898 175.695 263.028C175.5 263.158 175.348 263.344 175.259 263.561C175.192 263.722 175.161 263.897 175.169 264.072C175.178 264.247 175.225 264.418 175.308 264.573C175.39 264.727 175.506 264.861 175.647 264.965C175.788 265.07 175.951 265.141 176.123 265.174C176.285 265.208 176.454 265.208 176.616 265.172C176.779 265.137 176.932 265.068 177.066 264.969C177.2 264.871 177.312 264.745 177.394 264.601C177.477 264.456 177.527 264.296 177.544 264.13C177.56 263.965 177.541 263.798 177.489 263.64C177.436 263.482 177.351 263.337 177.239 263.214C177.126 263.092 176.989 262.994 176.837 262.928C176.684 262.861 176.52 262.828 176.353 262.829ZM188.956 266.558C188.453 266.557 187.961 266.407 187.543 266.128C187.125 265.848 186.799 265.451 186.606 264.987C186.397 264.482 186.356 263.924 186.489 263.394C186.622 262.864 186.921 262.392 187.343 262.045C187.766 261.699 188.288 261.498 188.833 261.471C189.379 261.444 189.918 261.594 190.372 261.898C190.826 262.201 191.17 262.643 191.354 263.157C191.537 263.671 191.551 264.231 191.392 264.753C191.233 265.275 190.911 265.733 190.472 266.058C190.033 266.383 189.502 266.558 188.956 266.558ZM188.956 262.829C188.721 262.829 188.492 262.898 188.298 263.028C188.103 263.159 187.952 263.344 187.863 263.561C187.796 263.722 187.765 263.897 187.773 264.072C187.781 264.247 187.828 264.418 187.911 264.572C187.993 264.727 188.109 264.861 188.25 264.965C188.391 265.069 188.553 265.141 188.725 265.174C188.888 265.208 189.056 265.208 189.219 265.172C189.381 265.137 189.534 265.068 189.668 264.969C189.802 264.871 189.914 264.745 189.997 264.601C190.079 264.456 190.13 264.296 190.146 264.13C190.162 263.965 190.144 263.798 190.091 263.64C190.038 263.482 189.953 263.337 189.841 263.214C189.729 263.092 189.592 262.994 189.439 262.928C189.287 262.861 189.122 262.828 188.956 262.829ZM208.385 278.176C207.882 278.176 207.39 278.026 206.972 277.747C206.553 277.467 206.227 277.07 206.034 276.605C205.825 276.101 205.784 275.542 205.917 275.013C206.049 274.483 206.349 274.01 206.771 273.664C207.193 273.318 207.716 273.116 208.261 273.09C208.806 273.063 209.346 273.213 209.8 273.516C210.254 273.82 210.598 274.261 210.782 274.775C210.965 275.289 210.979 275.849 210.82 276.371C210.661 276.894 210.339 277.351 209.9 277.676C209.461 278.001 208.931 278.177 208.385 278.176ZM208.385 274.448C208.151 274.447 207.921 274.516 207.726 274.647C207.532 274.777 207.38 274.962 207.291 275.179C207.201 275.395 207.177 275.633 207.223 275.863C207.269 276.093 207.382 276.303 207.548 276.468C207.671 276.593 207.821 276.688 207.986 276.747C208.151 276.806 208.327 276.828 208.501 276.811C208.675 276.794 208.843 276.738 208.994 276.648C209.144 276.558 209.272 276.435 209.369 276.289C209.499 276.095 209.568 275.866 209.568 275.631C209.565 275.32 209.439 275.022 209.217 274.803C208.996 274.584 208.697 274.461 208.385 274.461V274.448ZM218.25 278.176C217.874 278.176 217.503 278.092 217.163 277.931C216.823 277.769 216.523 277.535 216.285 277.244C216.046 276.954 215.875 276.614 215.784 276.249C215.692 275.884 215.682 275.504 215.755 275.135C215.852 274.64 216.093 274.186 216.449 273.829C216.805 273.472 217.259 273.229 217.753 273.13C218.248 273.032 218.76 273.083 219.225 273.277C219.691 273.471 220.088 273.799 220.366 274.219C220.622 274.602 220.769 275.047 220.791 275.507C220.814 275.967 220.711 276.425 220.494 276.831C220.277 277.237 219.954 277.577 219.559 277.814C219.164 278.051 218.711 278.176 218.25 278.176ZM218.25 274.448C218.016 274.448 217.787 274.517 217.592 274.647C217.398 274.777 217.246 274.963 217.158 275.179C217.09 275.341 217.059 275.515 217.068 275.69C217.076 275.865 217.123 276.036 217.205 276.191C217.288 276.345 217.404 276.479 217.545 276.584C217.685 276.688 217.848 276.759 218.02 276.793C218.191 276.827 218.368 276.822 218.538 276.78C218.707 276.737 218.866 276.657 219.001 276.546C219.136 276.435 219.245 276.295 219.32 276.137C219.395 275.979 219.433 275.806 219.434 275.631C219.43 275.32 219.304 275.022 219.082 274.803C218.861 274.584 218.562 274.461 218.25 274.461V274.448ZM228.092 278.176C227.589 278.174 227.098 278.023 226.682 277.742C226.265 277.46 225.941 277.062 225.751 276.596C225.544 276.091 225.505 275.532 225.64 275.003C225.775 274.474 226.076 274.002 226.5 273.657C226.924 273.313 227.447 273.113 227.993 273.089C228.538 273.065 229.077 273.217 229.53 273.522C229.982 273.828 230.325 274.271 230.506 274.786C230.688 275.301 230.699 275.861 230.537 276.383C230.376 276.905 230.051 277.361 229.611 277.684C229.171 278.007 228.638 278.179 228.092 278.176ZM228.092 274.448C227.918 274.451 227.746 274.493 227.59 274.569C227.434 274.646 227.296 274.756 227.187 274.892C227.077 275.027 226.999 275.185 226.958 275.355C226.916 275.524 226.912 275.7 226.946 275.871C226.981 276.042 227.054 276.203 227.159 276.343C227.263 276.483 227.398 276.598 227.552 276.679C227.707 276.761 227.877 276.807 228.052 276.815C228.226 276.823 228.401 276.792 228.562 276.724C228.777 276.634 228.961 276.482 229.09 276.288C229.219 276.093 229.288 275.865 229.289 275.631C229.284 275.318 229.156 275.019 228.932 274.799C228.707 274.58 228.405 274.458 228.092 274.461V274.448ZM307.363 309.819C306.86 309.819 306.368 309.669 305.949 309.39C305.531 309.111 305.205 308.714 305.012 308.249C304.802 307.745 304.761 307.186 304.893 306.657C305.026 306.127 305.325 305.654 305.747 305.307C306.169 304.961 306.691 304.759 307.236 304.732C307.782 304.705 308.321 304.854 308.775 305.158C309.229 305.461 309.574 305.902 309.758 306.416C309.942 306.93 309.956 307.49 309.798 308.012C309.639 308.535 309.317 308.992 308.879 309.318C308.44 309.643 307.909 309.819 307.363 309.819ZM307.363 306.092C307.049 306.092 306.748 306.216 306.527 306.438C306.305 306.66 306.18 306.96 306.18 307.274C306.18 307.588 306.305 307.888 306.527 308.11C306.748 308.332 307.049 308.456 307.363 308.456C307.676 308.456 307.977 308.332 308.198 308.11C308.42 307.888 308.545 307.588 308.545 307.274C308.545 306.96 308.42 306.66 308.198 306.438C307.977 306.216 307.676 306.092 307.363 306.092ZM299.254 317.169C298.747 317.169 298.252 317.018 297.831 316.736C297.41 316.455 297.082 316.054 296.889 315.586C296.696 315.118 296.646 314.603 296.746 314.106C296.846 313.609 297.091 313.154 297.45 312.796C297.809 312.439 298.267 312.197 298.764 312.1C299.261 312.003 299.776 312.055 300.243 312.251C300.71 312.447 301.109 312.777 301.388 313.2C301.667 313.623 301.815 314.119 301.812 314.625C301.812 314.96 301.746 315.292 301.617 315.602C301.488 315.911 301.299 316.192 301.061 316.428C300.824 316.665 300.542 316.852 300.232 316.979C299.921 317.106 299.589 317.171 299.254 317.169ZM299.254 313.428C299.076 313.427 298.901 313.466 298.741 313.541C298.58 313.617 298.438 313.727 298.326 313.864C298.213 314.001 298.133 314.161 298.09 314.333C298.047 314.505 298.044 314.685 298.079 314.859C298.114 315.032 298.187 315.195 298.293 315.337C298.398 315.479 298.534 315.596 298.69 315.679C298.846 315.762 299.019 315.81 299.195 315.819C299.372 315.828 299.548 315.798 299.712 315.731C299.93 315.639 300.116 315.486 300.248 315.289C300.379 315.093 300.45 314.862 300.451 314.625C300.45 314.308 300.323 314.004 300.099 313.78C299.875 313.555 299.571 313.429 299.254 313.428ZM118.594 286.489C118.087 286.493 117.59 286.345 117.167 286.065C116.744 285.785 116.414 285.385 116.219 284.917C116.074 284.567 116.008 284.189 116.027 283.81C116.045 283.432 116.147 283.062 116.325 282.728C116.504 282.394 116.754 282.103 117.058 281.877C117.362 281.651 117.713 281.496 118.084 281.422C118.456 281.347 118.84 281.357 119.208 281.45C119.576 281.542 119.918 281.716 120.211 281.957C120.503 282.199 120.738 282.503 120.899 282.846C121.059 283.19 121.141 283.565 121.139 283.944C121.139 284.279 121.074 284.61 120.946 284.919C120.818 285.228 120.631 285.508 120.394 285.745C120.158 285.981 119.877 286.169 119.568 286.296C119.259 286.424 118.928 286.49 118.594 286.489ZM118.594 282.748C118.356 282.744 118.123 282.811 117.924 282.941C117.725 283.072 117.57 283.258 117.478 283.477C117.378 283.714 117.356 283.976 117.416 284.225C117.477 284.475 117.615 284.698 117.812 284.863C118.009 285.027 118.254 285.124 118.51 285.139C118.766 285.154 119.02 285.086 119.235 284.946C119.45 284.806 119.614 284.6 119.702 284.359C119.791 284.119 119.801 283.856 119.729 283.609C119.657 283.363 119.508 283.146 119.304 282.991C119.099 282.836 118.85 282.751 118.594 282.748ZM118.597 320.42C118.093 320.421 117.601 320.272 117.182 319.993C116.764 319.713 116.438 319.315 116.246 318.85C116.037 318.346 115.995 317.787 116.128 317.257C116.26 316.728 116.56 316.255 116.982 315.908C117.404 315.562 117.926 315.36 118.471 315.333C119.017 315.306 119.556 315.455 120.01 315.759C120.464 316.062 120.809 316.504 120.993 317.018C121.177 317.532 121.19 318.092 121.032 318.614C120.873 319.137 120.551 319.594 120.112 319.919C119.673 320.245 119.143 320.42 118.597 320.42ZM118.597 316.693C118.362 316.692 118.133 316.761 117.938 316.891C117.743 317.021 117.591 317.206 117.501 317.423C117.435 317.584 117.405 317.759 117.414 317.934C117.423 318.108 117.47 318.279 117.553 318.433C117.635 318.587 117.751 318.721 117.891 318.826C118.032 318.93 118.193 319.002 118.365 319.036C118.528 319.071 118.697 319.071 118.86 319.037C119.023 319.002 119.177 318.933 119.312 318.835C119.447 318.736 119.559 318.61 119.642 318.465C119.725 318.321 119.776 318.16 119.792 317.994C119.809 317.828 119.79 317.66 119.737 317.502C119.684 317.343 119.598 317.198 119.485 317.075C119.372 316.952 119.234 316.855 119.081 316.789C118.928 316.723 118.764 316.69 118.597 316.693ZM111.603 349.463C111.227 349.462 110.855 349.378 110.516 349.217C110.176 349.056 109.876 348.822 109.637 348.531C109.399 348.241 109.228 347.901 109.136 347.536C109.045 347.171 109.035 346.791 109.108 346.422C109.204 345.927 109.446 345.472 109.802 345.115C110.157 344.758 110.611 344.515 111.106 344.417C111.6 344.319 112.113 344.37 112.578 344.564C113.043 344.758 113.44 345.085 113.719 345.506C113.976 345.888 114.124 346.334 114.147 346.794C114.171 347.255 114.068 347.713 113.851 348.12C113.633 348.527 113.31 348.866 112.914 349.103C112.518 349.34 112.064 349.464 111.603 349.463ZM111.603 345.735C111.368 345.734 111.139 345.804 110.945 345.934C110.75 346.064 110.599 346.249 110.51 346.466C110.442 346.628 110.412 346.802 110.42 346.977C110.428 347.152 110.475 347.323 110.558 347.477C110.64 347.632 110.756 347.766 110.897 347.87C111.038 347.975 111.2 348.046 111.372 348.08C111.535 348.114 111.703 348.113 111.866 348.078C112.028 348.042 112.181 347.973 112.315 347.875C112.449 347.776 112.561 347.651 112.644 347.506C112.726 347.361 112.777 347.201 112.793 347.036C112.809 346.87 112.791 346.703 112.738 346.545C112.685 346.387 112.6 346.242 112.488 346.12C112.376 345.997 112.239 345.899 112.086 345.833C111.934 345.767 111.769 345.733 111.603 345.735ZM121.521 349.463C121.145 349.462 120.773 349.378 120.434 349.217C120.094 349.056 119.794 348.822 119.555 348.531C119.317 348.241 119.146 347.901 119.054 347.536C118.963 347.171 118.953 346.791 119.026 346.422C119.122 345.927 119.364 345.472 119.72 345.115C120.075 344.758 120.529 344.515 121.024 344.417C121.518 344.319 122.031 344.37 122.496 344.564C122.961 344.758 123.358 345.085 123.637 345.506C123.894 345.888 124.042 346.334 124.065 346.794C124.089 347.255 123.986 347.713 123.769 348.12C123.551 348.527 123.228 348.866 122.832 349.103C122.436 349.34 121.983 349.464 121.522 349.463H121.521ZM121.521 345.735C121.286 345.734 121.057 345.803 120.863 345.934C120.668 346.064 120.517 346.249 120.428 346.466C120.361 346.628 120.33 346.802 120.338 346.977C120.346 347.152 120.393 347.323 120.476 347.477C120.558 347.632 120.674 347.766 120.815 347.87C120.956 347.975 121.118 348.046 121.29 348.08C121.453 348.114 121.621 348.113 121.784 348.078C121.946 348.042 122.099 347.973 122.233 347.875C122.367 347.776 122.479 347.651 122.562 347.506C122.644 347.361 122.695 347.201 122.711 347.036C122.727 346.87 122.709 346.703 122.656 346.545C122.603 346.387 122.518 346.242 122.406 346.12C122.294 345.997 122.157 345.899 122.004 345.833C121.852 345.767 121.687 345.733 121.521 345.735ZM404.299 282.802C403.796 282.801 403.304 282.652 402.886 282.373C402.468 282.093 402.141 281.697 401.948 281.232C401.755 280.767 401.704 280.256 401.803 279.762C401.901 279.268 402.144 278.815 402.5 278.46C402.766 278.193 403.087 277.989 403.441 277.861C403.796 277.734 404.174 277.687 404.548 277.724C404.923 277.761 405.284 277.88 405.607 278.074C405.93 278.268 406.205 278.531 406.414 278.844C406.741 279.334 406.887 279.921 406.829 280.506C406.77 281.091 406.511 281.638 406.094 282.053C405.617 282.529 404.973 282.798 404.299 282.802ZM404.299 279.075C404.124 279.075 403.952 279.115 403.794 279.189C403.636 279.264 403.496 279.373 403.385 279.508C403.274 279.644 403.194 279.802 403.152 279.971C403.109 280.141 403.104 280.318 403.138 280.489C403.197 280.775 403.36 281.029 403.596 281.202C403.832 281.375 404.123 281.455 404.414 281.427C404.705 281.398 404.975 281.263 405.172 281.047C405.369 280.832 405.48 280.551 405.483 280.259C405.479 279.946 405.353 279.647 405.132 279.426C404.911 279.205 404.612 279.079 404.299 279.075ZM286.788 372.349H232.75L199.31 338.909H184.032V337.548H199.868L233.308 370.989H286.788V372.349Z" fill="#213102"/>
<path d="M291.38 376.944C290.687 376.944 290 376.807 289.36 376.542C288.72 376.277 288.138 375.888 287.648 375.398C287.158 374.908 286.769 374.326 286.504 373.686C286.239 373.046 286.102 372.359 286.102 371.666C286.102 370.973 286.239 370.287 286.504 369.647C286.769 369.006 287.158 368.425 287.648 367.934C288.138 367.444 288.72 367.056 289.36 366.79C290 366.525 290.687 366.389 291.38 366.389C292.779 366.389 294.122 366.945 295.112 367.934C296.101 368.924 296.657 370.267 296.657 371.666C296.657 373.066 296.101 374.408 295.112 375.398C294.122 376.388 292.779 376.944 291.38 376.944ZM291.38 369.108C290.875 369.108 290.38 369.258 289.958 369.539C289.539 369.821 289.212 370.22 289.019 370.688C288.826 371.155 288.774 371.668 288.872 372.164C288.966 372.639 289.194 373.077 289.528 373.428C289.862 373.779 290.288 374.027 290.758 374.145C291.228 374.263 291.721 374.244 292.181 374.092C292.641 373.941 293.048 373.661 293.355 373.287C293.662 372.913 293.857 372.459 293.916 371.978C293.976 371.498 293.897 371.01 293.69 370.572C293.483 370.134 293.156 369.764 292.747 369.505C292.338 369.246 291.864 369.108 291.38 369.108ZM291.378 364.157C289.975 364.16 288.627 363.606 287.632 362.617C286.637 361.627 286.076 360.282 286.073 358.879C286.069 357.475 286.623 356.128 287.613 355.133C288.603 354.138 289.947 353.577 291.35 353.573C292.754 353.57 294.101 354.124 295.096 355.113C296.091 356.103 296.652 357.448 296.656 358.851C296.66 360.254 296.106 361.602 295.116 362.597C294.126 363.592 292.782 364.153 291.378 364.157ZM291.378 356.306C290.997 356.305 290.621 356.388 290.276 356.55C289.931 356.712 289.627 356.948 289.384 357.242C289.141 357.535 288.967 357.879 288.873 358.248C288.78 358.618 288.769 359.003 288.842 359.377C288.962 360.008 289.315 360.571 289.83 360.956C290.344 361.34 290.985 361.517 291.624 361.453C292.263 361.389 292.855 361.087 293.283 360.608C293.711 360.129 293.944 359.507 293.936 358.864C293.936 358.186 293.667 357.535 293.187 357.055C292.707 356.576 292.057 356.306 291.378 356.306ZM291.378 351.356C290.33 351.359 289.305 351.05 288.433 350.469C287.561 349.889 286.88 349.062 286.478 348.095C286.076 347.127 285.97 346.062 286.174 345.034C286.378 344.006 286.882 343.062 287.623 342.321C288.364 341.58 289.309 341.076 290.337 340.872C291.365 340.669 292.43 340.775 293.398 341.177C294.365 341.579 295.191 342.26 295.772 343.133C296.352 344.005 296.66 345.03 296.657 346.078C296.657 346.771 296.521 347.458 296.256 348.098C295.99 348.739 295.601 349.321 295.111 349.811C294.621 350.301 294.039 350.689 293.398 350.955C292.758 351.22 292.071 351.356 291.378 351.356ZM291.378 343.507C290.998 343.505 290.621 343.587 290.276 343.748C289.931 343.909 289.626 344.145 289.383 344.438C289.14 344.731 288.966 345.075 288.872 345.444C288.778 345.813 288.767 346.198 288.841 346.572C288.939 347.071 289.183 347.531 289.541 347.892C289.901 348.252 290.359 348.497 290.859 348.597C291.358 348.697 291.875 348.648 292.346 348.454C292.817 348.261 293.22 347.931 293.503 347.508C293.786 347.085 293.937 346.587 293.936 346.078C293.939 345.74 293.876 345.404 293.749 345.089C293.622 344.775 293.434 344.489 293.197 344.248C292.959 344.007 292.676 343.814 292.364 343.682C292.052 343.551 291.717 343.481 291.378 343.479V343.507ZM304.017 376.944C302.973 376.943 301.953 376.633 301.085 376.053C300.217 375.474 299.54 374.65 299.139 373.685C298.739 372.721 298.635 371.66 298.839 370.636C299.043 369.612 299.546 368.671 300.285 367.934C300.836 367.381 301.503 366.958 302.238 366.695C302.973 366.431 303.757 366.334 304.534 366.411C305.311 366.487 306.061 366.735 306.73 367.137C307.4 367.538 307.972 368.083 308.405 368.732C308.937 369.527 309.242 370.451 309.289 371.406C309.337 372.361 309.124 373.31 308.673 374.154C308.223 374.997 307.551 375.702 306.731 376.193C305.911 376.685 304.973 376.944 304.017 376.944ZM304.017 369.108C303.639 369.108 303.266 369.192 302.924 369.354C302.582 369.516 302.281 369.751 302.041 370.043C301.801 370.336 301.629 370.677 301.536 371.044C301.444 371.411 301.434 371.793 301.508 372.164C301.606 372.66 301.85 373.117 302.208 373.474C302.565 373.833 303.021 374.077 303.517 374.176C304.014 374.275 304.528 374.224 304.995 374.029C305.621 373.768 306.118 373.27 306.378 372.644C306.637 372.018 306.638 371.314 306.38 370.687C306.119 370.061 305.622 369.563 304.995 369.302C304.685 369.174 304.353 369.108 304.017 369.108ZM304.016 364.157C302.968 364.16 301.943 363.852 301.071 363.273C300.199 362.693 299.518 361.867 299.116 360.9C298.815 360.177 298.679 359.396 298.716 358.614C298.753 357.832 298.964 357.068 299.332 356.377C299.7 355.686 300.217 355.085 300.845 354.618C301.473 354.151 302.197 353.829 302.965 353.675C303.991 353.469 305.056 353.573 306.023 353.974C306.992 354.373 307.82 355.051 308.402 355.922C308.984 356.793 309.295 357.817 309.294 358.864C309.294 360.266 308.739 361.61 307.75 362.602C306.76 363.594 305.417 364.154 304.016 364.157ZM304.016 356.306C303.506 356.305 303.008 356.454 302.583 356.735C302.158 357.017 301.826 357.418 301.628 357.888C301.433 358.358 301.38 358.876 301.478 359.377C301.573 359.854 301.801 360.296 302.136 360.649C302.471 361.002 302.899 361.253 303.371 361.373C303.843 361.492 304.34 361.476 304.802 361.324C305.265 361.173 305.676 360.893 305.986 360.518C306.296 360.142 306.493 359.687 306.555 359.204C306.616 358.721 306.539 358.23 306.333 357.789C306.127 357.348 305.799 356.974 305.389 356.712C304.979 356.449 304.503 356.309 304.016 356.306ZM304.016 351.356C302.968 351.359 301.943 351.051 301.07 350.47C300.198 349.89 299.517 349.063 299.115 348.096C298.712 347.128 298.606 346.063 298.81 345.035C299.014 344.007 299.518 343.062 300.259 342.321C301 341.58 301.944 341.076 302.972 340.872C304 340.669 305.066 340.775 306.033 341.177C307.001 341.579 307.827 342.26 308.408 343.132C308.988 344.005 309.297 345.03 309.294 346.078C309.294 347.478 308.738 348.82 307.748 349.81C306.758 350.8 305.416 351.356 304.016 351.356ZM304.016 343.507C303.507 343.504 303.008 343.653 302.583 343.933C302.159 344.214 301.827 344.615 301.63 345.084C301.432 345.554 301.379 346.072 301.477 346.572C301.575 347.072 301.819 347.531 302.179 347.892C302.538 348.253 302.996 348.5 303.495 348.601C303.994 348.701 304.512 348.651 304.983 348.457C305.454 348.263 305.856 347.933 306.139 347.509C306.422 347.086 306.573 346.588 306.573 346.078C306.581 345.567 306.435 345.066 306.155 344.639C305.875 344.211 305.473 343.878 305.001 343.682C304.689 343.55 304.355 343.481 304.016 343.479V343.507ZM316.602 376.944C315.558 376.944 314.538 376.634 313.67 376.055C312.802 375.475 312.126 374.65 311.726 373.686C311.327 372.722 311.222 371.66 311.426 370.637C311.63 369.613 312.132 368.673 312.87 367.934C313.608 367.196 314.549 366.694 315.573 366.49C316.596 366.286 317.657 366.391 318.622 366.79C319.586 367.19 320.41 367.866 320.99 368.734C321.57 369.602 321.88 370.623 321.88 371.666C321.877 373.065 321.32 374.406 320.331 375.395C319.342 376.384 318.001 376.941 316.602 376.944ZM316.602 369.108C316.097 369.109 315.603 369.259 315.182 369.54C314.762 369.821 314.434 370.22 314.239 370.687C314.096 371.036 314.031 371.413 314.05 371.79C314.07 372.167 314.172 372.535 314.35 372.867C314.529 373.2 314.778 373.489 315.082 373.714C315.385 373.939 315.734 374.094 316.105 374.167C316.475 374.241 316.857 374.232 317.223 374.14C317.589 374.049 317.931 373.877 318.223 373.638C318.515 373.399 318.751 373.098 318.913 372.757C319.075 372.416 319.159 372.044 319.16 371.666C319.156 370.989 318.885 370.341 318.406 369.862C317.928 369.383 317.279 369.113 316.602 369.108ZM316.595 364.157C315.191 364.16 313.844 363.606 312.849 362.617C311.854 361.627 311.293 360.282 311.289 358.879C311.286 357.475 311.84 356.128 312.829 355.133C313.819 354.138 315.164 353.577 316.567 353.573C317.97 353.57 319.318 354.124 320.313 355.113C321.308 356.103 321.869 357.448 321.873 358.851C321.876 360.254 321.322 361.602 320.333 362.597C319.343 363.592 317.998 364.153 316.595 364.157ZM316.595 356.306C316.214 356.305 315.838 356.388 315.493 356.55C315.148 356.712 314.843 356.948 314.601 357.242C314.358 357.535 314.184 357.879 314.09 358.248C313.996 358.618 313.986 359.003 314.059 359.377C314.154 359.854 314.382 360.294 314.716 360.646C315.051 360.999 315.479 361.249 315.951 361.368C316.422 361.487 316.918 361.469 317.38 361.318C317.842 361.167 318.251 360.887 318.561 360.512C318.87 360.138 319.067 359.683 319.129 359.2C319.19 358.718 319.113 358.228 318.907 357.788C318.702 357.347 318.375 356.974 317.966 356.712C317.556 356.45 317.081 356.309 316.595 356.306ZM316.595 351.356C315.9 351.358 315.211 351.223 314.568 350.959C313.926 350.695 313.341 350.306 312.848 349.816C312.355 349.326 311.964 348.744 311.696 348.102C311.429 347.461 311.29 346.773 311.288 346.078C311.286 345.383 311.421 344.695 311.685 344.052C311.949 343.409 312.337 342.825 312.828 342.332C313.318 341.839 313.9 341.447 314.541 341.18C315.183 340.912 315.87 340.773 316.565 340.771C317.969 340.767 319.317 341.321 320.312 342.311C321.307 343.301 321.869 344.645 321.873 346.049C321.876 347.453 321.323 348.8 320.333 349.795C319.343 350.791 317.998 351.352 316.595 351.356ZM316.595 343.507C316.214 343.505 315.838 343.587 315.493 343.748C315.147 343.909 314.842 344.145 314.6 344.438C314.357 344.731 314.182 345.075 314.088 345.444C313.995 345.813 313.984 346.198 314.057 346.572C314.156 347.071 314.399 347.531 314.758 347.892C315.118 348.252 315.576 348.497 316.075 348.597C316.574 348.697 317.092 348.648 317.563 348.454C318.034 348.261 318.436 347.931 318.719 347.508C319.003 347.085 319.154 346.587 319.153 346.078C319.156 345.74 319.092 345.404 318.965 345.089C318.838 344.775 318.651 344.489 318.413 344.248C318.175 344.007 317.893 343.814 317.581 343.682C317.269 343.551 316.934 343.481 316.595 343.479V343.507ZM329.174 376.944C328.13 376.941 327.111 376.629 326.245 376.048C325.378 375.466 324.704 374.641 324.306 373.677C324.009 372.955 323.876 372.177 323.916 371.398C323.956 370.619 324.168 369.859 324.537 369.172C324.906 368.484 325.422 367.887 326.049 367.423C326.675 366.959 327.397 366.639 328.162 366.487C329.186 366.285 330.246 366.39 331.21 366.79C332.174 367.19 332.998 367.866 333.578 368.734C334.255 369.751 334.559 370.971 334.439 372.187C334.318 373.403 333.78 374.54 332.915 375.404C331.922 376.393 330.576 376.947 329.174 376.944ZM329.174 369.108C328.668 369.11 328.175 369.262 327.756 369.544C327.337 369.827 327.011 370.228 326.82 370.696C326.63 371.164 326.582 371.677 326.683 372.172C326.783 372.667 327.027 373.121 327.384 373.478C327.741 373.837 328.197 374.082 328.694 374.181C329.19 374.28 329.705 374.229 330.173 374.035C330.64 373.84 331.04 373.511 331.32 373.089C331.6 372.667 331.748 372.171 331.745 371.665C331.745 371.329 331.679 370.995 331.548 370.684C331.419 370.373 331.23 370.09 330.99 369.853C330.752 369.614 330.469 369.425 330.157 369.297C329.845 369.17 329.511 369.105 329.174 369.108ZM329.166 364.157C328.119 364.157 327.096 363.847 326.225 363.266C325.355 362.684 324.676 361.857 324.276 360.889C323.842 359.84 323.756 358.679 324.032 357.578C324.308 356.477 324.931 355.493 325.809 354.773C326.686 354.053 327.772 353.634 328.906 353.578C330.04 353.523 331.162 353.833 332.106 354.464C333.05 355.095 333.766 356.012 334.149 357.081C334.531 358.15 334.56 359.314 334.231 360.4C333.901 361.487 333.231 362.439 332.319 363.115C331.407 363.791 330.302 364.157 329.166 364.157ZM329.166 356.306C328.785 356.306 328.409 356.39 328.065 356.553C327.721 356.716 327.417 356.953 327.175 357.248C326.934 357.543 326.761 357.887 326.67 358.257C326.578 358.627 326.57 359.012 326.645 359.386C326.746 359.883 326.992 360.342 327.353 360.701C327.714 361.06 328.174 361.303 328.673 361.402C329.215 361.509 329.776 361.439 330.275 361.202C330.773 360.964 331.182 360.573 331.441 360.085C331.7 359.598 331.795 359.04 331.712 358.494C331.629 357.948 331.372 357.444 330.98 357.055C330.498 356.576 329.846 356.307 329.166 356.306ZM329.166 351.356C328.119 351.357 327.095 351.046 326.224 350.464C325.353 349.882 324.674 349.054 324.275 348.086C323.841 347.036 323.756 345.875 324.032 344.774C324.309 343.672 324.932 342.689 325.81 341.969C326.688 341.249 327.774 340.83 328.909 340.775C330.043 340.719 331.165 341.03 332.109 341.661C333.053 342.292 333.769 343.21 334.152 344.28C334.534 345.349 334.562 346.513 334.232 347.6C333.903 348.686 333.232 349.638 332.32 350.315C331.408 350.991 330.302 351.356 329.166 351.356ZM329.166 343.507C328.786 343.506 328.41 343.59 328.066 343.752C327.722 343.915 327.419 344.151 327.178 344.445C326.936 344.739 326.763 345.083 326.671 345.452C326.579 345.821 326.57 346.206 326.645 346.579C326.743 347.078 326.988 347.537 327.347 347.897C327.707 348.256 328.165 348.501 328.664 348.6C329.037 348.674 329.422 348.665 329.791 348.573C330.16 348.481 330.504 348.308 330.798 348.066C331.092 347.825 331.329 347.522 331.491 347.178C331.654 346.834 331.738 346.459 331.738 346.078C331.742 345.566 331.595 345.064 331.313 344.637C331.031 344.209 330.628 343.875 330.156 343.677C329.843 343.547 329.506 343.479 329.166 343.479V343.507ZM341.714 376.944C341.021 376.944 340.335 376.807 339.695 376.542C339.054 376.277 338.473 375.888 337.983 375.398C337.493 374.908 337.104 374.326 336.839 373.686C336.573 373.046 336.437 372.359 336.437 371.666C336.437 370.973 336.573 370.287 336.839 369.647C337.104 369.006 337.493 368.425 337.983 367.934C338.473 367.444 339.054 367.056 339.695 366.79C340.335 366.525 341.021 366.389 341.714 366.389C343.114 366.389 344.457 366.945 345.446 367.934C346.436 368.924 346.992 370.267 346.992 371.666C346.992 373.066 346.436 374.408 345.446 375.398C344.457 376.388 343.114 376.944 341.714 376.944ZM341.714 369.108C341.036 369.108 340.385 369.378 339.905 369.858C339.425 370.338 339.156 370.988 339.156 371.667C339.156 372.346 339.425 372.997 339.905 373.476C340.385 373.956 341.036 374.226 341.714 374.226C342.393 374.226 343.044 373.956 343.524 373.476C344.004 372.997 344.273 372.346 344.273 371.667C344.273 370.988 344.004 370.338 343.524 369.858C343.044 369.378 342.393 369.108 341.714 369.108ZM341.713 364.157C340.666 364.16 339.641 363.852 338.769 363.272C337.897 362.693 337.216 361.867 336.814 360.9C336.514 360.177 336.377 359.396 336.414 358.614C336.452 357.832 336.662 357.068 337.03 356.377C337.398 355.686 337.915 355.085 338.543 354.618C339.171 354.151 339.895 353.829 340.663 353.675C341.69 353.469 342.754 353.573 343.722 353.974C344.69 354.373 345.518 355.051 346.101 355.922C346.683 356.793 346.993 357.817 346.992 358.864C346.993 360.266 346.437 361.61 345.448 362.603C344.458 363.595 343.115 364.154 341.713 364.157ZM341.713 356.306C341.332 356.305 340.956 356.388 340.611 356.55C340.266 356.712 339.961 356.948 339.719 357.242C339.476 357.535 339.302 357.879 339.208 358.248C339.114 358.618 339.104 359.003 339.177 359.377C339.25 359.751 339.406 360.104 339.633 360.41C339.859 360.717 340.152 360.969 340.488 361.148C340.824 361.328 341.196 361.43 341.577 361.448C341.958 361.465 342.338 361.398 342.69 361.25C343.161 361.055 343.563 360.724 343.844 360.299C344.126 359.874 344.275 359.374 344.271 358.864C344.271 358.186 344.001 357.535 343.521 357.056C343.042 356.576 342.391 356.307 341.713 356.306ZM341.713 351.356C340.666 351.358 339.641 351.05 338.769 350.469C337.897 349.889 337.217 349.062 336.815 348.095C336.413 347.128 336.308 346.063 336.512 345.035C336.715 344.008 337.22 343.064 337.961 342.323C338.701 341.583 339.645 341.079 340.673 340.875C341.7 340.671 342.765 340.777 343.732 341.18C344.7 341.582 345.526 342.262 346.106 343.134C346.686 344.006 346.995 345.031 346.992 346.078C346.992 346.771 346.856 347.458 346.59 348.098C346.325 348.739 345.936 349.321 345.446 349.811C344.956 350.301 344.374 350.689 343.733 350.955C343.093 351.22 342.406 351.356 341.713 351.356ZM341.713 343.507C341.203 343.504 340.705 343.653 340.28 343.934C339.854 344.215 339.522 344.615 339.325 345.085C339.129 345.555 339.076 346.073 339.173 346.573C339.271 347.073 339.515 347.533 339.874 347.894C340.234 348.255 340.692 348.502 341.192 348.602C341.691 348.702 342.21 348.652 342.68 348.458C343.151 348.263 343.554 347.933 343.837 347.51C344.12 347.086 344.271 346.588 344.271 346.078C344.277 345.568 344.131 345.067 343.851 344.64C343.571 344.213 343.17 343.88 342.7 343.682C342.388 343.55 342.052 343.481 341.713 343.479V343.507ZM354.334 376.944C353.641 376.944 352.955 376.807 352.315 376.542C351.674 376.277 351.093 375.888 350.603 375.398C350.113 374.908 349.724 374.326 349.459 373.686C349.193 373.046 349.057 372.359 349.057 371.666C349.057 370.973 349.193 370.287 349.459 369.647C349.724 369.006 350.113 368.425 350.603 367.934C351.093 367.444 351.674 367.056 352.315 366.79C352.955 366.525 353.641 366.389 354.334 366.389C355.734 366.389 357.077 366.945 358.066 367.934C359.056 368.924 359.612 370.267 359.612 371.666C359.612 373.066 359.056 374.408 358.066 375.398C357.077 376.388 355.734 376.944 354.334 376.944ZM354.334 369.108C353.829 369.108 353.334 369.258 352.913 369.539C352.494 369.821 352.167 370.22 351.974 370.688C351.78 371.155 351.729 371.668 351.826 372.164C351.925 372.66 352.168 373.117 352.527 373.474C352.884 373.832 353.339 374.076 353.835 374.174C354.206 374.249 354.589 374.241 354.957 374.149C355.324 374.058 355.666 373.886 355.959 373.646C356.252 373.406 356.487 373.104 356.649 372.761C356.81 372.419 356.894 372.045 356.893 371.666C356.893 371.33 356.827 370.997 356.699 370.687C356.57 370.376 356.382 370.094 356.144 369.857C355.906 369.62 355.624 369.431 355.314 369.302C355.003 369.174 354.67 369.108 354.334 369.108ZM354.339 364.157C352.935 364.16 351.588 363.606 350.593 362.617C349.598 361.627 349.037 360.282 349.033 358.879C349.03 357.475 349.584 356.128 350.573 355.133C351.563 354.138 352.908 353.577 354.311 353.573C355.714 353.57 357.062 354.124 358.057 355.113C359.052 356.103 359.613 357.448 359.617 358.851C359.62 360.254 359.066 361.602 358.077 362.597C357.087 363.592 355.742 364.153 354.339 364.157ZM354.339 356.306C353.958 356.305 353.582 356.388 353.237 356.55C352.892 356.712 352.587 356.948 352.345 357.242C352.102 357.535 351.928 357.879 351.834 358.248C351.74 358.618 351.73 359.003 351.803 359.377C351.923 360.008 352.275 360.571 352.79 360.956C353.305 361.34 353.945 361.517 354.585 361.453C355.224 361.389 355.816 361.087 356.244 360.608C356.672 360.129 356.905 359.507 356.897 358.864C356.897 358.186 356.627 357.535 356.148 357.055C355.668 356.576 355.017 356.306 354.339 356.306ZM246.221 84.6204C245.174 84.6204 244.15 84.3097 243.28 83.7276C242.409 83.1454 241.731 82.3181 241.331 81.3503C240.93 80.3825 240.826 79.3177 241.032 78.2907C241.237 77.2637 241.742 76.3207 242.484 75.5811C243.225 74.8415 244.17 74.3385 245.197 74.1358C246.225 73.9331 247.289 74.0398 248.256 74.4424C249.223 74.8449 250.048 75.5253 250.628 76.3974C251.208 77.2695 251.516 78.294 251.514 79.3413C251.513 80.387 251.202 81.4089 250.62 82.2777C250.038 83.1466 249.212 83.8234 248.245 84.2225C247.603 84.4868 246.915 84.6234 246.221 84.6204ZM246.221 76.77C245.713 76.7703 245.217 76.9212 244.794 77.2037C244.372 77.4862 244.043 77.8875 243.848 78.3571C243.654 78.8266 243.603 79.3432 243.703 79.8415C243.802 80.3399 244.046 80.7976 244.406 81.1569C244.765 81.5162 245.223 81.761 245.721 81.8602C246.22 81.9594 246.736 81.9086 247.206 81.7143C247.675 81.52 248.077 81.1908 248.359 80.7684C248.641 80.3461 248.792 79.8494 248.793 79.3413C248.777 78.6691 248.5 78.0297 248.019 77.5594C247.539 77.0891 246.894 76.8253 246.221 76.8243V76.77ZM246.223 71.8212C245.53 71.8195 244.843 71.6812 244.204 71.4143C243.564 71.1474 242.983 70.7571 242.494 70.2657C242.005 69.7742 241.617 69.1913 241.354 68.5501C241.09 67.909 240.955 67.2222 240.957 66.5289C240.959 65.8356 241.097 65.1495 241.364 64.5096C241.631 63.8698 242.021 63.2888 242.513 62.7998C243.004 62.3108 243.587 61.9234 244.228 61.6597C244.869 61.3961 245.556 61.2612 246.249 61.263C247.649 61.2665 248.991 61.826 249.978 62.8185C250.966 63.811 251.519 65.1552 251.515 66.5553C251.512 67.9554 250.952 69.2968 249.96 70.2844C248.967 71.2719 247.623 71.8247 246.223 71.8212ZM246.223 63.9855C245.718 63.989 245.225 64.1415 244.806 64.4239C244.388 64.7063 244.061 65.106 243.869 65.5729C243.677 66.0405 243.628 66.5545 243.728 67.0499C243.829 67.5453 244.074 67.9997 244.433 68.3557C244.791 68.7128 245.246 68.9556 245.742 69.0534C246.238 69.1512 246.752 69.0995 247.219 68.9049C247.685 68.7103 248.083 68.3821 248.364 67.9617C248.644 67.5413 248.794 67.0474 248.794 66.5421C248.794 66.2053 248.727 65.8719 248.597 65.561C248.467 65.2501 248.278 64.9679 248.039 64.7304C247.8 64.4929 247.517 64.3049 247.205 64.1771C246.893 64.0492 246.56 63.9841 246.223 63.9855ZM258.806 84.6234C257.762 84.6097 256.745 84.2875 255.884 83.6971C255.022 83.1068 254.355 82.2748 253.965 81.3058C253.575 80.3369 253.481 79.2744 253.694 78.252C253.907 77.2296 254.418 76.2931 255.162 75.5604C255.906 74.8276 256.85 74.3315 257.876 74.1343C258.902 73.9371 259.962 74.0477 260.925 74.4523C261.888 74.8568 262.71 75.5372 263.287 76.4076C263.864 77.2781 264.17 78.2999 264.168 79.3442C264.167 80.0442 264.027 80.737 263.756 81.3825C263.486 82.0279 263.089 82.6132 262.591 83.1042C262.092 83.5952 261.5 83.9823 260.851 84.2428C260.201 84.5033 259.506 84.6337 258.806 84.6234ZM258.806 76.7729C258.301 76.7856 257.81 76.9473 257.396 77.2379C256.983 77.5284 256.664 77.9347 256.48 78.4059C256.343 78.7578 256.284 79.1358 256.31 79.5128C256.335 79.8899 256.443 80.2567 256.626 80.5873C256.809 80.9178 257.063 81.2039 257.369 81.4253C257.675 81.6466 258.027 81.7978 258.398 81.8679C258.769 81.9381 259.151 81.9255 259.517 81.8312C259.883 81.7368 260.224 81.563 260.515 81.322C260.806 81.0811 261.04 80.7789 261.201 80.4371C261.362 80.0952 261.446 79.7221 261.447 79.3442C261.435 78.8339 261.272 78.3384 260.979 77.9206C260.686 77.5028 260.275 77.1816 259.799 76.9976C259.482 76.8759 259.145 76.818 258.806 76.8273V76.7729ZM258.808 71.8212C258.115 71.8104 257.43 71.6632 256.794 71.388C256.158 71.1128 255.582 70.715 255.1 70.2173C254.617 69.7196 254.238 69.1317 253.982 68.4873C253.727 67.8428 253.601 67.1544 253.612 66.4613C253.623 65.7683 253.77 65.0841 254.045 64.4479C254.321 63.8117 254.718 63.236 255.216 62.7535C255.714 62.2711 256.302 61.8914 256.946 61.6362C257.591 61.3809 258.279 61.2551 258.972 61.2659C260.372 61.2877 261.706 61.8647 262.68 62.8698C263.654 63.875 264.189 65.2261 264.168 66.6258C264.146 68.0255 263.569 69.3593 262.564 70.3336C261.558 71.3079 260.207 71.8431 258.808 71.8212ZM258.808 63.984C258.306 64.0005 257.82 64.1642 257.41 64.4548C257 64.7454 256.685 65.1501 256.504 65.6184C256.322 66.087 256.283 66.5987 256.391 67.0896C256.498 67.5804 256.749 68.0285 257.11 68.3777C257.471 68.7265 257.927 68.9614 258.42 69.0532C258.914 69.145 259.424 69.0896 259.886 68.894C260.348 68.6984 260.743 68.3711 261.021 67.9529C261.298 67.5347 261.447 67.0441 261.448 66.5421C261.448 66.1993 261.379 65.8599 261.245 65.5443C261.111 65.2286 260.915 64.943 260.669 64.7045C260.423 64.4659 260.131 64.2792 259.811 64.1555C259.492 64.0317 259.15 63.9734 258.808 63.984ZM271.394 84.6204C270.346 84.6233 269.321 84.3151 268.448 83.7347C267.576 83.1544 266.895 82.3281 266.493 81.3605C266.09 80.3929 265.984 79.3277 266.188 78.2997C266.391 77.2718 266.896 76.3274 267.636 75.5863C268.377 74.8452 269.322 74.3408 270.349 74.1369C271.377 73.933 272.443 74.0388 273.41 74.441C274.378 74.8431 275.204 75.5235 275.785 76.3959C276.366 77.2683 276.674 78.2934 276.672 79.3413C276.672 80.0346 276.536 80.7213 276.271 81.3621C276.007 82.0028 275.618 82.585 275.128 83.0754C274.637 83.5657 274.055 83.9546 273.415 84.2197C272.774 84.4848 272.087 84.621 271.394 84.6204ZM271.394 76.77C270.757 76.7694 270.142 77.0054 269.668 77.4323C269.195 77.8592 268.897 78.4467 268.832 79.0807C268.767 79.7148 268.94 80.3504 269.317 80.8644C269.694 81.3784 270.248 81.7341 270.873 81.8626C271.246 81.9379 271.631 81.9293 272.001 81.8375C272.37 81.7456 272.715 81.5728 273.009 81.3315C273.304 81.0902 273.541 80.7865 273.704 80.4423C273.867 80.0981 273.951 79.722 273.951 79.3413C273.937 78.6711 273.662 78.0327 273.185 77.5624C272.707 77.0921 272.064 76.8272 271.394 76.8243V76.77ZM271.39 71.8212C269.99 71.8212 268.647 71.2652 267.658 70.2754C266.668 69.2857 266.112 67.9433 266.112 66.5436C266.112 65.1438 266.668 63.8014 267.658 62.8117C268.647 61.8219 269.99 61.2659 271.39 61.2659C272.789 61.2659 274.132 61.8219 275.121 62.8117C276.111 63.8014 276.667 65.1438 276.667 66.5436C276.667 67.9433 276.111 69.2857 275.121 70.2754C274.132 71.2652 272.789 71.8212 271.39 71.8212ZM271.39 63.9855C270.757 63.9899 270.149 64.2282 269.682 64.6545C269.215 65.0807 268.922 65.6647 268.86 66.2939C268.798 66.9232 268.971 67.5531 269.346 68.0623C269.721 68.5715 270.271 68.9239 270.89 69.0517C271.429 69.1606 271.988 69.0929 272.486 68.8587C272.983 68.6245 273.391 68.2362 273.65 67.7514C273.909 67.2667 274.005 66.7114 273.923 66.1679C273.842 65.6244 273.587 65.1217 273.197 64.7344C272.96 64.4969 272.678 64.3086 272.368 64.1801C272.058 64.0516 271.725 63.9854 271.39 63.9855ZM283.979 84.6204C282.931 84.623 281.906 84.3145 281.033 83.734C280.161 83.1535 279.481 82.3271 279.079 81.3595C278.676 80.3919 278.57 79.3267 278.774 78.2988C278.978 77.271 279.482 76.3268 280.223 75.5858C280.964 74.8449 281.908 74.3405 282.936 74.1368C283.964 73.933 285.029 74.0389 285.997 74.4411C286.964 74.8433 287.791 75.5237 288.371 76.396C288.952 77.2684 289.26 78.2934 289.258 79.3413C289.258 80.7414 288.702 82.0842 287.712 83.0742C286.722 84.0642 285.379 84.6204 283.979 84.6204ZM283.979 76.77C283.598 76.7674 283.221 76.8495 282.876 77.0104C282.531 77.1713 282.226 77.407 281.983 77.7003C281.74 77.9937 281.565 78.3373 281.472 78.7065C281.378 79.0756 281.368 79.461 281.441 79.8347C281.541 80.3331 281.785 80.791 282.144 81.1507C282.504 81.5104 282.961 81.7558 283.46 81.8559C283.958 81.9561 284.475 81.9066 284.945 81.7136C285.415 81.5207 285.818 81.1929 286.102 80.7716C286.386 80.3484 286.537 79.8506 286.537 79.3413C286.523 78.6709 286.248 78.0325 285.77 77.5623C285.292 77.0921 284.649 76.8272 283.979 76.8243V76.77ZM283.98 71.8212C282.58 71.8212 281.238 71.2652 280.248 70.2754C279.259 69.2857 278.702 67.9433 278.702 66.5436C278.702 65.1438 279.259 63.8014 280.248 62.8117C281.238 61.8219 282.58 61.2659 283.98 61.2659C285.38 61.2659 286.722 61.8219 287.712 62.8117C288.702 63.8014 289.258 65.1438 289.258 66.5436C289.258 67.9433 288.702 69.2857 287.712 70.2754C286.722 71.2652 285.38 71.8212 283.98 71.8212ZM283.98 63.9855C283.348 63.9899 282.74 64.2282 282.273 64.6545C281.806 65.0807 281.513 65.6647 281.451 66.2939C281.389 66.9232 281.562 67.5531 281.937 68.0623C282.312 68.5715 282.862 68.9239 283.481 69.0517C283.852 69.125 284.234 69.1152 284.601 69.0231C284.968 68.9309 285.31 68.7587 285.602 68.5188C285.894 68.2789 286.13 67.9772 286.292 67.6354C286.454 67.2936 286.538 66.9203 286.538 66.5421C286.537 65.8642 286.267 65.2143 285.788 64.7351C285.308 64.2558 284.658 63.9863 283.98 63.9855ZM354.339 351.356C353.291 351.359 352.266 351.05 351.394 350.469C350.521 349.889 349.841 349.062 349.439 348.095C349.036 347.127 348.931 346.062 349.134 345.034C349.338 344.006 349.843 343.062 350.584 342.321C351.325 341.58 352.269 341.076 353.297 340.872C354.325 340.669 355.391 340.775 356.358 341.177C357.326 341.579 358.152 342.26 358.732 343.133C359.313 344.005 359.621 345.03 359.618 346.078C359.618 346.771 359.481 347.458 359.216 348.098C358.951 348.739 358.562 349.321 358.072 349.811C357.581 350.301 357 350.689 356.359 350.955C355.719 351.22 355.032 351.356 354.339 351.356ZM354.339 343.507C353.958 343.505 353.582 343.587 353.237 343.748C352.891 343.909 352.587 344.145 352.344 344.438C352.101 344.731 351.926 345.075 351.832 345.444C351.739 345.813 351.728 346.198 351.801 346.572C351.9 347.071 352.144 347.531 352.502 347.892C352.862 348.252 353.32 348.497 353.819 348.597C354.318 348.697 354.836 348.648 355.307 348.454C355.778 348.261 356.18 347.931 356.463 347.508C356.747 347.085 356.898 346.587 356.897 346.078C356.9 345.74 356.836 345.404 356.709 345.089C356.582 344.775 356.395 344.489 356.157 344.248C355.92 344.007 355.637 343.814 355.325 343.682C355.013 343.551 354.678 343.481 354.339 343.479V343.507Z" fill="#213102"/>
<path d="M287.509 359.411H234.342L207.05 332.121H184.032V330.759H207.621L234.9 358.051H287.509V359.411ZM287.509 346.688H265.265L230.355 311.765H184.032V310.405H230.913L265.836 345.328H287.509V346.688ZM200.016 284.621H184.032V283.262H199.46L206.642 276.065L207.608 277.031L200.016 284.621Z" fill="#213102"/>
<path d="M203.771 291.401H184.032V290.04H203.2L216.695 276.558L217.649 277.524L203.771 291.401ZM334.194 285.836H259.423L231.968 258.381V230.138H233.33V257.823L259.994 284.475H334.194V285.836Z" fill="#213102"/>
<path d="M334.192 267.578H269.732L252.154 250.001V230.138H253.515V249.43L270.303 266.217H334.192V267.578Z" fill="#213102"/>
<path d="M334.193 260.816H274.263L259.026 245.579V230.138H260.386V245.021L274.835 259.456H334.193V260.816ZM329.921 342.144H328.561V334.988L319.773 326.2V312.54L327.65 304.676H334.194V306.037H328.208L321.134 313.111V325.642L329.921 334.417V342.144ZM393.415 292.462H384.845V291.102H392.857L402.844 281.116L403.795 282.081L393.415 292.462ZM136.709 283.263H119.976V284.624H136.709V283.263ZM113.237 346.269L112.271 345.303L126.814 330.759H136.705V332.12H127.386L113.237 346.269ZM123.098 346.062L122.131 345.096L129.302 337.927H136.703V339.287H129.873L123.098 346.062ZM136.709 317.191H119.976V318.55H136.709V317.191ZM206.82 298.203H184.032V296.842H206.261L226.219 276.871L227.186 277.837L206.818 298.203H206.82ZM112.789 192.478H111.428V184.846L119.523 176.751H152.773V178.112H120.08L112.789 185.404V192.478ZM163.996 256.463H140.339L111.428 227.554V220.125H112.789V226.996L140.896 255.104H163.425L170.717 247.811V230.138H172.078V248.382L163.996 256.463ZM112.789 130.564H111.428V123.489L119.183 115.736H152.773V117.096H119.742L112.791 124.06L112.789 130.564ZM152.773 171.295H119.864L111.428 162.86V158.032H112.789V162.305L120.421 169.937H152.773V171.295ZM152.771 210.735H135.59V212.095H152.771V210.735Z" fill="#213102"/>
<path d="M136.151 224.765L135.199 223.812L141.47 217.527H152.777V218.887H142.042L136.151 224.765ZM177.761 263.496L176.81 262.531L191.163 248.177V230.138H192.522V248.75L177.761 263.496ZM190.608 263.333L189.641 262.367L197.953 254.068V230.138H199.314V254.627L190.608 263.333ZM393.456 159.244H367.717V157.882H392.885L400.707 150.06V145.665L389.783 134.754H384.845V133.394H390.355L402.069 145.093V150.631L393.456 159.244ZM401.483 126.602H384.845V127.962H401.483V126.602ZM390.572 121.176H384.845V119.815H390.014L401.007 108.822L401.973 109.775L390.572 121.176ZM392.463 260.788H384.845V259.428H391.905L395.388 255.945V219.28L384.559 208.465H367.717V207.104H385.13L396.748 218.722V256.516L392.463 260.788Z" fill="#213102"/>
<path d="M393.346 267.521H384.843V266.161H392.775L401.577 257.359V216.994L380.721 196.137H368.123V194.778H381.279L402.938 216.436V257.93L393.346 267.521ZM391.195 365.885H374.881L368.555 359.544H358.257V358.184H369.113L375.454 364.524H391.195V365.885ZM391.211 370.988H359.524V372.348H391.211V370.988ZM342.437 342.144H341.077V334.715L353.117 322.675H390.381L396.353 316.703V309.941L392.49 306.077H384.843V304.717H393.048L397.713 309.369V317.274L390.952 324.035H353.675L342.437 335.273V342.144ZM391.195 359.452H378.923L366.229 346.745H358.257V345.384H366.8L379.494 358.09H391.195V359.452ZM417.386 87.2343H416.026V92.1463H417.386V87.2343ZM410.224 96.6736C409.848 96.6731 409.477 96.5894 409.137 96.4285C408.798 96.2675 408.498 96.0333 408.259 95.7427C408.021 95.4521 407.85 95.1123 407.758 94.7477C407.666 94.3831 407.657 94.0027 407.729 93.6338C407.845 93.0079 408.192 92.4482 408.701 92.0655C409.209 91.6829 409.843 91.5052 410.477 91.5676C411.11 91.63 411.697 91.928 412.121 92.4025C412.546 92.8771 412.776 93.4937 412.768 94.1302C412.768 94.8047 412.5 95.4516 412.023 95.9286C411.546 96.4056 410.899 96.6736 410.224 96.6736ZM410.224 92.9466C409.91 92.9466 409.609 93.0713 409.387 93.2933C409.165 93.5152 409.041 93.8163 409.041 94.1302C409.041 94.4441 409.165 94.7451 409.387 94.9671C409.609 95.1891 409.91 95.3138 410.224 95.3138C410.538 95.3138 410.84 95.189 411.062 94.9669C411.284 94.7448 411.409 94.4435 411.409 94.1294C411.409 93.8153 411.284 93.5141 411.062 93.292C410.84 93.0699 410.538 92.9466 410.224 92.9466Z" fill="#213102"/>
<path d="M410.904 87.2343H409.545V92.1463H410.904V87.2343ZM352.013 96.6736C351.338 96.6734 350.691 96.4051 350.214 95.9277C349.736 95.4503 349.469 94.8029 349.469 94.128C349.469 93.453 349.737 92.8058 350.215 92.3287C350.692 91.8516 351.339 91.5837 352.014 91.5839C352.349 91.584 352.679 91.6499 352.988 91.7779C353.297 91.9058 353.577 92.0934 353.814 92.3297C354.05 92.5661 354.237 92.8467 354.365 93.1555C354.493 93.4643 354.559 93.7953 354.558 94.1294C354.558 94.4636 354.492 94.7945 354.364 95.1033C354.236 95.412 354.049 95.6925 353.813 95.9287C353.576 96.165 353.296 96.3523 352.987 96.4801C352.678 96.6079 352.347 96.6737 352.013 96.6736ZM352.013 92.9466C351.779 92.9473 351.551 93.0169 351.357 93.1467C351.162 93.2765 351.01 93.4608 350.92 93.6764C350.832 93.8927 350.809 94.1303 350.855 94.3595C350.901 94.5887 351.013 94.7991 351.179 94.9644C351.344 95.1297 351.554 95.2424 351.784 95.2883C352.013 95.3343 352.25 95.3115 352.467 95.2227C352.683 95.1336 352.868 94.9821 352.998 94.7875C353.128 94.593 353.197 94.3641 353.196 94.1302C353.195 93.8165 353.071 93.516 352.85 93.2932C352.627 93.0724 352.327 92.948 352.013 92.9466Z" fill="#213102"/>
<path d="M352.694 87.2343H351.333V92.1463H352.694V87.2343ZM135.631 350.197C135.128 350.196 134.637 350.047 134.219 349.767C133.801 349.488 133.475 349.09 133.282 348.626C133.073 348.122 133.032 347.564 133.165 347.035C133.298 346.506 133.597 346.033 134.019 345.687C134.441 345.341 134.963 345.14 135.508 345.114C136.053 345.087 136.592 345.236 137.046 345.54C137.499 345.843 137.843 346.284 138.027 346.798C138.21 347.312 138.224 347.871 138.065 348.393C137.907 348.915 137.585 349.372 137.146 349.697C136.708 350.022 136.177 350.197 135.631 350.197ZM135.631 346.469C135.397 346.469 135.168 346.538 134.973 346.668C134.779 346.798 134.627 346.984 134.539 347.2C134.471 347.362 134.44 347.536 134.449 347.711C134.457 347.886 134.504 348.057 134.586 348.212C134.669 348.366 134.785 348.5 134.926 348.605C135.066 348.709 135.229 348.78 135.401 348.814C135.563 348.848 135.731 348.847 135.894 348.812C136.056 348.777 136.21 348.707 136.344 348.609C136.478 348.511 136.59 348.385 136.672 348.241C136.754 348.096 136.805 347.936 136.822 347.771C136.838 347.605 136.819 347.438 136.767 347.28C136.714 347.122 136.629 346.977 136.517 346.855C136.405 346.732 136.268 346.634 136.116 346.568C135.964 346.501 135.797 346.467 135.631 346.469Z" fill="#213102"/>
<path d="M136.312 349.626H134.953V354.537H136.312V349.626ZM142.092 350.197C141.716 350.197 141.345 350.113 141.005 349.952C140.665 349.791 140.365 349.557 140.126 349.266C139.888 348.975 139.716 348.635 139.625 348.271C139.533 347.906 139.523 347.525 139.596 347.156C139.693 346.662 139.934 346.207 140.29 345.85C140.646 345.493 141.1 345.25 141.594 345.152C142.088 345.053 142.601 345.104 143.066 345.298C143.531 345.492 143.928 345.82 144.207 346.24C144.464 346.623 144.612 347.068 144.636 347.529C144.659 347.989 144.556 348.447 144.339 348.854C144.122 349.261 143.798 349.601 143.402 349.837C143.006 350.074 142.553 350.199 142.092 350.197ZM142.092 346.469C141.858 346.468 141.628 346.537 141.433 346.667C141.238 346.798 141.086 346.983 140.997 347.2C140.929 347.362 140.899 347.537 140.907 347.712C140.915 347.887 140.963 348.058 141.045 348.212C141.128 348.367 141.244 348.501 141.385 348.605C141.526 348.709 141.688 348.781 141.86 348.814C142.023 348.848 142.191 348.847 142.354 348.812C142.516 348.777 142.67 348.707 142.804 348.609C142.938 348.51 143.05 348.385 143.132 348.24C143.214 348.096 143.265 347.935 143.281 347.77C143.298 347.604 143.279 347.437 143.226 347.279C143.174 347.122 143.089 346.977 142.976 346.854C142.864 346.731 142.727 346.634 142.575 346.567C142.422 346.501 142.259 346.467 142.092 346.469Z" fill="#213102"/>
<path d="M142.778 349.626H141.417V354.537H142.778V349.626ZM148.527 350.197C148.151 350.197 147.78 350.113 147.44 349.952C147.1 349.791 146.8 349.557 146.561 349.266C146.322 348.975 146.151 348.635 146.059 348.271C145.968 347.906 145.958 347.525 146.031 347.156C146.152 346.535 146.5 345.981 147.008 345.603C147.516 345.225 148.146 345.05 148.776 345.112C149.407 345.174 149.991 345.468 150.415 345.938C150.839 346.408 151.073 347.019 151.071 347.653C151.068 348.326 150.799 348.972 150.323 349.449C149.846 349.925 149.201 350.194 148.527 350.197ZM148.527 346.469C148.293 346.468 148.064 346.538 147.869 346.668C147.674 346.798 147.522 346.983 147.433 347.2C147.366 347.362 147.335 347.537 147.343 347.712C147.352 347.887 147.399 348.058 147.482 348.212C147.564 348.367 147.68 348.501 147.821 348.605C147.962 348.709 148.125 348.781 148.297 348.814C148.459 348.848 148.628 348.847 148.79 348.812C148.953 348.777 149.106 348.707 149.24 348.609C149.374 348.51 149.486 348.385 149.568 348.24C149.65 348.096 149.701 347.935 149.718 347.77C149.734 347.604 149.715 347.437 149.663 347.279C149.61 347.122 149.525 346.977 149.413 346.854C149.3 346.731 149.163 346.634 149.011 346.567C148.858 346.501 148.694 346.467 148.527 346.469Z" fill="#213102"/>
<path d="M149.242 349.626H147.881V354.537H149.242V349.626ZM155.032 350.197C154.656 350.197 154.285 350.113 153.945 349.952C153.605 349.791 153.305 349.557 153.066 349.266C152.828 348.975 152.656 348.635 152.565 348.271C152.473 347.906 152.463 347.525 152.536 347.156C152.633 346.662 152.874 346.207 153.23 345.85C153.586 345.493 154.04 345.25 154.534 345.152C155.029 345.053 155.541 345.104 156.006 345.298C156.472 345.492 156.869 345.82 157.147 346.24C157.404 346.623 157.553 347.068 157.576 347.529C157.599 347.989 157.497 348.447 157.279 348.854C157.062 349.261 156.738 349.601 156.342 349.837C155.946 350.074 155.494 350.199 155.032 350.197ZM155.032 346.469C154.798 346.468 154.569 346.538 154.374 346.668C154.179 346.798 154.028 346.983 153.938 347.2C153.871 347.362 153.84 347.536 153.848 347.711C153.857 347.886 153.904 348.057 153.986 348.212C154.069 348.366 154.185 348.5 154.326 348.605C154.466 348.709 154.629 348.78 154.8 348.814C154.963 348.848 155.131 348.847 155.294 348.812C155.456 348.777 155.61 348.708 155.744 348.609C155.878 348.511 155.989 348.385 156.072 348.241C156.154 348.096 156.205 347.936 156.222 347.771C156.238 347.605 156.219 347.438 156.167 347.28C156.114 347.122 156.029 346.977 155.917 346.855C155.805 346.732 155.668 346.634 155.516 346.568C155.363 346.501 155.199 346.468 155.032 346.469Z" fill="#213102"/>
<path d="M155.707 349.626H154.347V354.537H155.707V349.626ZM161.508 350.197C161.006 350.197 160.514 350.047 160.096 349.767C159.678 349.488 159.352 349.091 159.159 348.626C159.014 348.278 158.947 347.903 158.965 347.526C158.983 347.15 159.084 346.782 159.261 346.449C159.438 346.116 159.687 345.827 159.989 345.602C160.292 345.377 160.641 345.223 161.01 345.149C161.38 345.075 161.761 345.085 162.127 345.177C162.493 345.269 162.833 345.441 163.124 345.68C163.415 345.92 163.65 346.221 163.81 346.562C163.97 346.903 164.053 347.276 164.052 347.653C164.049 348.326 163.78 348.972 163.304 349.449C162.828 349.925 162.182 350.194 161.508 350.197ZM161.508 346.469C161.274 346.468 161.045 346.538 160.85 346.668C160.655 346.798 160.503 346.983 160.414 347.2C160.347 347.362 160.316 347.537 160.325 347.712C160.333 347.887 160.38 348.058 160.463 348.212C160.546 348.367 160.662 348.501 160.803 348.605C160.944 348.709 161.106 348.781 161.278 348.814C161.45 348.848 161.627 348.843 161.796 348.801C161.966 348.758 162.124 348.678 162.259 348.567C162.394 348.456 162.503 348.317 162.578 348.158C162.653 348 162.692 347.828 162.692 347.653C162.689 347.34 162.563 347.04 162.342 346.819C162.121 346.598 161.821 346.472 161.508 346.469Z" fill="#213102"/>
<path d="M162.188 349.626H160.829V354.537H162.188V349.626ZM167.967 350.197C167.591 350.197 167.22 350.113 166.88 349.952C166.54 349.791 166.24 349.556 166.002 349.266C165.763 348.975 165.592 348.635 165.5 348.27C165.409 347.906 165.399 347.525 165.472 347.156C165.568 346.662 165.81 346.207 166.166 345.85C166.522 345.493 166.976 345.25 167.47 345.152C167.964 345.053 168.477 345.104 168.942 345.298C169.407 345.492 169.804 345.82 170.083 346.24C170.34 346.623 170.488 347.068 170.512 347.529C170.535 347.989 170.432 348.447 170.215 348.854C169.998 349.261 169.674 349.601 169.278 349.837C168.882 350.074 168.428 350.199 167.967 350.197ZM167.967 346.469C167.733 346.469 167.504 346.538 167.309 346.668C167.115 346.798 166.963 346.984 166.874 347.2C166.807 347.362 166.776 347.536 166.784 347.711C166.793 347.886 166.84 348.057 166.922 348.212C167.005 348.366 167.121 348.5 167.261 348.605C167.402 348.709 167.564 348.78 167.736 348.814C167.899 348.848 168.067 348.847 168.23 348.812C168.392 348.777 168.546 348.707 168.68 348.609C168.814 348.51 168.925 348.385 169.008 348.24C169.09 348.096 169.141 347.935 169.157 347.77C169.174 347.604 169.155 347.437 169.102 347.279C169.05 347.122 168.964 346.977 168.852 346.854C168.74 346.731 168.603 346.634 168.45 346.567C168.298 346.501 168.133 346.467 167.967 346.469Z" fill="#213102"/>
<path d="M168.654 349.626H167.293V354.537H168.654V349.626ZM345.541 96.6735C345.039 96.6713 344.548 96.52 344.131 96.2387C343.714 95.9575 343.391 95.5589 343.201 95.0935C343.009 94.6285 342.961 94.1173 343.06 93.6245C343.16 93.1318 343.403 92.6797 343.76 92.3254C344.057 92.0306 344.422 91.8136 344.823 91.6937C345.223 91.5737 345.648 91.5544 346.058 91.6375C346.468 91.7207 346.851 91.9036 347.173 92.1703C347.495 92.4369 347.747 92.7789 347.906 93.166C348.064 93.5531 348.125 93.9734 348.082 94.3896C348.04 94.8057 347.895 95.2049 347.661 95.5518C347.427 95.8987 347.111 96.1826 346.742 96.3782C346.372 96.5739 345.96 96.6753 345.541 96.6735ZM345.541 92.9466C345.367 92.9492 345.195 92.9902 345.039 93.0665C344.882 93.1429 344.744 93.2528 344.635 93.3885C344.525 93.5241 344.447 93.6822 344.405 93.8515C344.364 94.0208 344.36 94.1971 344.394 94.368C344.443 94.5964 344.557 94.8055 344.723 94.9697C344.889 95.1338 345.1 95.2458 345.328 95.2917C345.5 95.3256 345.677 95.3211 345.846 95.2783C346.016 95.2356 346.173 95.1558 346.308 95.0447C346.443 94.9336 346.552 94.7939 346.626 94.6357C346.7 94.4776 346.739 94.3049 346.738 94.1302C346.738 93.9737 346.706 93.8189 346.646 93.6746C346.586 93.5303 346.497 93.3994 346.386 93.2894C346.275 93.1794 346.143 93.0925 345.998 93.0336C345.853 92.9748 345.698 92.9452 345.541 92.9466Z" fill="#213102"/>
<path d="M346.218 87.2343H344.857V92.1463H346.218V87.2343ZM339.073 96.6736C338.697 96.6731 338.326 96.5894 337.986 96.4285C337.646 96.2675 337.346 96.0333 337.108 95.7427C336.869 95.4521 336.698 95.1123 336.606 94.7477C336.515 94.3831 336.505 94.0027 336.578 93.6338C336.693 93.0079 337.04 92.4482 337.549 92.0655C338.058 91.6829 338.691 91.5052 339.325 91.5676C339.958 91.63 340.545 91.928 340.97 92.4025C341.394 92.8771 341.625 93.4937 341.616 94.1302C341.616 94.8047 341.348 95.4516 340.871 95.9286C340.394 96.4056 339.747 96.6736 339.073 96.6736ZM339.073 92.9466C338.897 92.946 338.724 92.9843 338.566 93.0589C338.407 93.1335 338.267 93.2425 338.156 93.3779C338.045 93.5132 337.965 93.6717 337.923 93.8417C337.88 94.0117 337.876 94.189 337.911 94.3607C337.956 94.5904 338.069 94.8013 338.235 94.9668C338.4 95.1323 338.611 95.2449 338.841 95.2903C339.003 95.3231 339.17 95.3215 339.332 95.2857C339.493 95.2498 339.645 95.1805 339.779 95.0822C339.912 94.9838 340.023 94.8587 340.104 94.7148C340.186 94.5709 340.237 94.4115 340.253 94.2468C340.269 94.0821 340.251 93.9158 340.199 93.7587C340.147 93.6016 340.063 93.4571 339.952 93.3346C339.84 93.2121 339.705 93.1142 339.553 93.0474C339.402 92.9806 339.238 92.9462 339.073 92.9466Z" fill="#213102"/>
<path d="M339.753 87.2343H338.393V92.1463H339.753V87.2343ZM332.594 96.6736C332.218 96.6712 331.848 96.5858 331.509 96.4234C331.17 96.261 330.872 96.0257 330.635 95.7343C330.398 95.4429 330.228 95.1027 330.138 94.738C330.048 94.3734 330.039 93.9933 330.114 93.625C330.209 93.1527 330.437 92.7173 330.771 92.3695C331.104 92.0217 331.53 91.7759 331.998 91.6606C332.466 91.5454 332.957 91.5654 333.414 91.7185C333.871 91.8715 334.275 92.1512 334.579 92.5251C334.883 92.8989 335.075 93.3515 335.132 93.83C335.189 94.3086 335.109 94.7935 334.9 95.2282C334.692 95.6629 334.365 96.0295 333.957 96.2854C333.548 96.5413 333.076 96.6759 332.594 96.6736ZM332.594 92.9466C332.434 92.9407 332.274 92.9674 332.124 93.0251C331.975 93.0828 331.839 93.1702 331.724 93.2822C331.609 93.3941 331.519 93.5281 331.457 93.6761C331.396 93.8242 331.365 93.9831 331.367 94.1434C331.369 94.3036 331.403 94.4618 331.468 94.6083C331.533 94.7549 331.627 94.8867 331.744 94.9959C331.862 95.1051 332 95.1893 332.151 95.2434C332.301 95.2975 332.462 95.3205 332.622 95.3108C332.925 95.2925 333.21 95.1582 333.417 94.9356C333.624 94.7131 333.738 94.4194 333.734 94.1154C333.73 93.8114 333.61 93.5205 333.398 93.3029C333.185 93.0853 332.898 92.9577 332.594 92.9466Z" fill="#213102"/>
<path d="M333.283 87.2343H331.923V92.1463H333.283V87.2343ZM390.835 96.6736C390.334 96.6646 389.846 96.5081 389.434 96.2237C389.021 95.9393 388.701 95.5395 388.515 95.0744C388.277 94.4896 388.265 93.8372 388.481 93.2441C388.698 92.6511 389.128 92.1599 389.686 91.8662C390.245 91.5724 390.893 91.4972 391.505 91.6551C392.116 91.813 392.647 92.1928 392.993 92.7204C393.32 93.2127 393.466 93.8034 393.405 94.3912C393.344 94.979 393.081 95.5274 392.66 95.9423C392.419 96.179 392.134 96.3656 391.821 96.4911C391.507 96.6166 391.172 96.6787 390.835 96.6736ZM390.835 92.9451C390.601 92.9459 390.372 93.0158 390.178 93.1459C389.984 93.276 389.832 93.4605 389.742 93.6764C389.653 93.8927 389.631 94.1303 389.677 94.3595C389.723 94.5887 389.835 94.7991 390.001 94.9644C390.166 95.1297 390.376 95.2424 390.605 95.2883C390.835 95.3343 391.072 95.3115 391.289 95.2227C391.505 95.1336 391.69 94.982 391.82 94.7871C391.95 94.5922 392.019 94.363 392.018 94.1287C392.017 93.8151 391.893 93.5145 391.672 93.2917C391.449 93.0709 391.148 92.9465 390.835 92.9451Z" fill="#213102"/>
<path d="M391.504 87.2343H390.145V92.1463H391.504V87.2343ZM384.348 96.6736C383.973 96.6731 383.601 96.5894 383.262 96.4285C382.922 96.2675 382.622 96.0333 382.383 95.7427C382.145 95.4521 381.974 95.1123 381.882 94.7477C381.79 94.3831 381.781 94.0027 381.854 93.6338C381.969 93.0079 382.316 92.4482 382.825 92.0655C383.333 91.6829 383.967 91.5052 384.601 91.5676C385.234 91.63 385.821 91.928 386.246 92.4025C386.67 92.8771 386.9 93.4937 386.892 94.1302C386.892 94.8047 386.624 95.4516 386.147 95.9286C385.67 96.4056 385.023 96.6736 384.348 96.6736ZM384.348 92.9466C384.173 92.946 384 92.9843 383.842 93.0589C383.683 93.1335 383.543 93.2425 383.432 93.3779C383.321 93.5132 383.241 93.6717 383.199 93.8417C383.156 94.0117 383.152 94.189 383.187 94.3607C383.232 94.5904 383.345 94.8013 383.51 94.9668C383.676 95.1323 383.887 95.2449 384.116 95.2903C384.279 95.3231 384.446 95.3215 384.608 95.2857C384.769 95.2498 384.921 95.1805 385.054 95.0822C385.188 94.9838 385.299 94.8587 385.38 94.7148C385.462 94.5709 385.513 94.4115 385.529 94.2468C385.545 94.0821 385.527 93.9158 385.475 93.7587C385.423 93.6016 385.339 93.4571 385.227 93.3346C385.116 93.2121 384.98 93.1142 384.829 93.0474C384.678 92.9806 384.514 92.9462 384.348 92.9466Z" fill="#213102"/>
<path d="M385.028 87.2343H383.669V92.1463H385.028V87.2343ZM377.889 96.6736C377.214 96.6734 376.567 96.4051 376.089 95.9277C375.612 95.4503 375.344 94.8029 375.345 94.128C375.345 93.453 375.613 92.8058 376.09 92.3287C376.568 91.8516 377.215 91.5837 377.89 91.5839C378.565 91.5841 379.212 91.8524 379.689 92.3297C380.167 92.8071 380.435 93.4545 380.434 94.1294C380.434 94.8044 380.166 95.4516 379.688 95.9287C379.211 96.4058 378.564 96.6738 377.889 96.6736ZM377.889 92.9466C377.655 92.9461 377.426 93.0153 377.231 93.1452C377.037 93.2752 376.885 93.4601 376.796 93.6764C376.707 93.8927 376.685 94.1303 376.731 94.3595C376.777 94.5887 376.889 94.7991 377.055 94.9644C377.22 95.1297 377.43 95.2424 377.659 95.2883C377.889 95.3343 378.126 95.3115 378.342 95.2227C378.559 95.1336 378.744 94.9821 378.874 94.7875C379.004 94.593 379.073 94.3641 379.072 94.1302C379.071 93.8165 378.946 93.516 378.726 93.2932C378.616 93.1831 378.485 93.0959 378.342 93.0364C378.198 92.9769 378.044 92.9464 377.889 92.9466Z" fill="#213102"/>
<path d="M378.576 87.2343H377.215V92.1463H378.576V87.2343ZM371.417 96.6736C370.914 96.6714 370.424 96.52 370.007 96.2388C369.59 95.9575 369.266 95.5589 369.076 95.0935C368.885 94.6285 368.837 94.1173 368.936 93.6246C369.036 93.1318 369.279 92.6797 369.636 92.3254C369.933 92.0307 370.298 91.8137 370.698 91.6937C371.099 91.5737 371.523 91.5544 371.933 91.6375C372.343 91.7207 372.727 91.9037 373.049 92.1703C373.371 92.4369 373.623 92.7789 373.782 93.166C373.94 93.5532 374.001 93.9734 373.958 94.3896C373.915 94.8057 373.771 95.205 373.537 95.5518C373.303 95.8987 372.987 96.1826 372.618 96.3783C372.248 96.5739 371.835 96.6754 371.417 96.6736ZM371.417 92.9466C371.184 92.9487 370.956 93.0202 370.763 93.152C370.57 93.2837 370.42 93.4698 370.333 93.6867C370.245 93.9031 370.223 94.1408 370.269 94.3699C370.316 94.5989 370.43 94.8089 370.596 94.9732C370.762 95.1376 370.974 95.2489 371.203 95.293C371.433 95.3372 371.67 95.3122 371.886 95.2213C372.101 95.1304 372.284 94.9785 372.414 94.7843C372.543 94.5901 372.613 94.3621 372.614 94.1287C372.614 93.9723 372.582 93.8175 372.522 93.6732C372.461 93.5289 372.373 93.398 372.262 93.288C372.151 93.178 372.019 93.091 371.874 93.0322C371.729 92.9734 371.574 92.9452 371.417 92.9466Z" fill="#213102"/>
<path d="M372.1 87.2343H370.739V92.1463H372.1V87.2343ZM364.96 96.675C364.46 96.6622 363.975 96.5021 363.566 96.2147C363.157 95.9274 362.841 95.5256 362.659 95.0597C362.46 94.5506 362.429 93.9908 362.573 93.4632C362.716 92.9356 363.026 92.4682 363.456 92.1303C363.886 91.7924 364.413 91.602 364.96 91.5872C365.506 91.5724 366.043 91.734 366.491 92.0482C366.938 92.3624 367.273 92.8123 367.445 93.3314C367.616 93.8505 367.616 94.4111 367.445 94.9303C367.273 95.4494 366.939 95.8994 366.491 96.2137C366.044 96.5279 365.507 96.6897 364.96 96.675ZM364.96 92.9481C364.726 92.9488 364.498 93.0186 364.303 93.1486C364.108 93.2787 363.956 93.4633 363.866 93.6794C363.769 93.9143 363.75 94.1742 363.812 94.4209C363.873 94.6676 364.013 94.8878 364.209 95.0492C364.406 95.2105 364.649 95.3043 364.903 95.3167C365.157 95.3292 365.408 95.2596 365.62 95.1183C365.831 94.977 365.991 94.7715 366.077 94.532C366.163 94.2926 366.169 94.032 366.095 93.7887C366.021 93.5454 365.871 93.3323 365.667 93.1809C365.462 93.0295 365.215 92.9479 364.96 92.9481Z" fill="#213102"/>
<path d="M365.634 87.2342H364.275V92.1462H365.634V87.2342ZM199.405 104.483H198.044V88.851L183.515 74.3205H123.789V72.9592H184.071L199.407 88.2944L199.405 104.483ZM395.71 107.6H384.541V106.241H395.139L403.083 98.4034V87.2342H404.445V98.9746L395.71 107.6ZM165.379 104.484H164.02V99.8322L157.911 93.7234H123.789V92.3621H158.467L165.379 99.2742V104.484Z" fill="#213102"/>
<path d="M172.155 104.483H170.794V99.0437L158.986 87.2343H123.789V85.873H159.557L172.155 98.4857V104.484V104.483Z" fill="#213102"/>
<path d="M192.52 104.486H191.16V93.3298L178.521 80.6907H123.791V79.3295H179.079L192.521 92.7718V104.486H192.52Z" fill="#213102"/>
<path d="M219.663 104.486H218.301V90.1874L196.004 67.8755L123.789 67.8608V66.5024L196.561 66.5171L219.663 89.6161V104.486Z" fill="#213102"/>
<path d="M226.451 104.483H225.09V88.9597L197.924 61.7887L123.791 61.3804V60.0206L198.495 60.4421L226.453 88.387V104.481L226.451 104.483ZM246.907 83.2621H245.546V104.486H246.907V83.2621ZM267.178 104.486H265.818V97.3697L270.729 92.4576V83.2606H272.09V93.0156L267.178 97.9262V104.486ZM253.595 104.483H252.235V97.0818L258.235 91.0831V82.9478H259.595V91.6412L253.595 97.6399V104.483ZM306.117 130.589H278.432V129.23H305.559L319.45 115.353V86.1153L300.553 67.2191H287.901V65.8593H301.111L320.811 85.5441V115.911L306.117 130.589Z" fill="#213102"/>
<path opacity="0.5" d="M420 369.571H397.499V373.76H420V369.571ZM397.493 370.865H391.195V372.483H397.493V370.865ZM420 363.095H397.499V367.284H420V363.095ZM397.493 364.389H391.195V366.007H397.493V364.389ZM420 356.632H397.499V360.823H420V356.632ZM397.493 357.923H391.195V359.543H397.493V357.923ZM94.9839 95.1523H117.485V90.9627H94.9839V95.1538V95.1523ZM117.491 93.8571H123.791V92.2388H117.491V93.8571ZM94.9839 88.6749H117.485V84.4839H94.9839V88.6749ZM117.491 87.3811H123.791V85.7614H117.491V87.3811ZM94.9839 82.2151H117.485V78.0255H94.9839V82.2151ZM117.491 80.9184H123.791V79.3002H117.491V80.9184ZM94.9839 75.7333H117.485V71.5437H94.9839V75.7333ZM117.491 74.4425H123.791V72.8242H117.491V74.4425ZM94.9839 69.2749H117.485V65.0839H94.9839V69.2749ZM117.491 67.9812H123.791V66.3615H117.491V67.9812ZM94.9839 62.7961H117.485V58.605H94.9839V62.7961ZM117.491 61.5053H123.791V59.8855H117.491V61.5053ZM137.728 383.3V360.797H133.539V383.3H137.728ZM136.431 360.795V354.496H134.813V360.795H136.431ZM144.188 383.3V360.797H139.997V383.3H144.188ZM142.897 360.795V354.496H141.277V360.795H142.897ZM150.658 383.3V360.797H146.468V383.3H150.658ZM149.373 360.795V354.496H147.755V360.795H149.373ZM157.122 383.3V360.797H152.933V383.3H157.122ZM155.837 360.795V354.496H154.219V360.795H155.837ZM163.588 383.3V360.797H159.397V383.3H163.588ZM162.309 360.795V354.496H160.689V360.795H162.309ZM170.07 383.3V360.797H165.879V383.3H170.07ZM168.773 360.784V354.484H167.155V360.784H168.773ZM105.37 383.3V360.797H101.181V383.3H105.37ZM104.097 360.795V354.496H102.477V360.795H104.097ZM98.9047 383.3V360.797H94.7166V383.3H98.9076H98.9047ZM97.6271 360.784V354.484H96.0074V360.784H97.6271ZM375.798 58.4318V80.9331H379.989V58.4318H375.798ZM377.072 80.936V87.2358H378.691V80.936H377.072ZM369.322 58.4318V80.9331H373.513V58.4318H369.322ZM370.612 80.936V87.2358H372.232V80.936H370.612ZM362.858 58.4318V80.9331H367.047V58.4318H362.858ZM364.137 80.9507V87.249H365.755V80.9493L364.137 80.9507ZM349.916 58.4318V80.9331H354.107V58.4318H349.916ZM351.196 80.9507V87.249H352.815V80.9493L351.196 80.9507ZM343.446 58.445V80.9478H347.637V58.445H343.446Z" fill="#213102"/>
<path opacity="0.5" d="M344.737 80.936V87.2358H346.356V80.936H344.737ZM336.982 58.4318V80.9331H341.171V58.4318H336.982ZM338.261 80.9507V87.249H339.879V80.9493L338.261 80.9507ZM330.506 58.445V80.9478H334.695V58.445H330.506Z" fill="#213102"/>
<path opacity="0.5" d="M331.801 80.936V87.2358H333.421V80.936H331.801ZM382.257 58.4318V80.9331H386.447V58.4318H382.257ZM383.554 80.936V87.2358H385.172V80.936H383.554ZM388.733 58.4318V80.9331H392.923V58.4318H388.733ZM390.012 80.936V87.2358H391.632V80.936H390.012ZM401.669 58.4318V80.9331H405.859V58.4318H401.669ZM402.954 80.936V87.2358H404.572V80.936H402.954ZM408.127 58.4318V80.9331H412.318V58.4318H408.127ZM409.418 80.936V87.2358H411.036V80.936H409.418ZM414.592 58.4318V80.9331H418.783V58.4318H414.592ZM415.888 80.936V87.2358H417.508V80.936H415.888Z" fill="#213102"/>
<path d="M97.6051 354.497H96.2438V312.826L119.02 290.039H136.703V291.398H119.59L97.6051 313.397V354.497Z" fill="#213102"/>
<path d="M104.052 354.497H102.693V315.03L120.936 296.773H136.703V298.133H121.494L104.052 315.588V354.497ZM308.871 306.337L307.904 305.371L315.401 297.887H334.189V299.249H315.959L308.871 306.337ZM292.114 342.141H290.753V322.333L297.8 315.286L298.766 316.252L292.114 322.904V342.141ZM181.886 369.653V370.13C181.886 369.98 181.872 369.817 181.886 369.653Z" fill="#213102"/>
<path opacity="0.5" d="M103.281 284.98C101.908 284.98 100.566 284.573 99.4241 283.81C98.2828 283.047 97.3936 281.962 96.8694 280.693C96.4776 279.745 96.301 278.722 96.3524 277.697C96.4037 276.673 96.6816 275.672 97.1662 274.768C97.6507 273.864 98.3298 273.078 99.1545 272.468C99.9792 271.858 100.929 271.438 101.935 271.239C102.942 271.04 103.98 271.067 104.975 271.317C105.97 271.568 106.896 272.036 107.689 272.688C108.481 273.34 109.119 274.159 109.556 275.087C109.993 276.015 110.219 277.029 110.218 278.054C110.218 278.965 110.038 279.866 109.689 280.707C109.34 281.548 108.829 282.312 108.185 282.955C107.541 283.598 106.776 284.108 105.934 284.456C105.093 284.803 104.191 284.981 103.281 284.98ZM103.281 275.198C102.715 275.197 102.162 275.364 101.692 275.678C101.221 275.991 100.854 276.438 100.638 276.96C100.421 277.483 100.365 278.058 100.476 278.612C100.587 279.167 100.86 279.676 101.26 280.075C101.66 280.473 102.169 280.743 102.723 280.852C103.276 280.962 103.85 280.905 104.371 280.689C104.893 280.473 105.338 280.107 105.652 279.639C105.967 279.17 106.135 278.619 106.137 278.054C106.151 277.481 105.992 276.916 105.68 276.434C105.368 275.952 104.919 275.576 104.389 275.354C104.039 275.206 103.662 275.129 103.281 275.129V275.198ZM103.281 268.147C101.908 268.147 100.566 267.74 99.4241 266.977C98.2828 266.214 97.3936 265.129 96.8694 263.86C96.4776 262.912 96.301 261.889 96.3524 260.864C96.4037 259.84 96.6816 258.839 97.1662 257.935C97.6507 257.031 98.3298 256.245 99.1545 255.635C99.9792 255.025 100.929 254.605 101.935 254.406C102.942 254.207 103.98 254.234 104.975 254.484C105.97 254.735 106.896 255.203 107.689 255.855C108.481 256.506 109.119 257.326 109.556 258.254C109.993 259.182 110.219 260.195 110.218 261.221C110.218 262.132 110.038 263.033 109.689 263.874C109.34 264.715 108.829 265.479 108.185 266.122C107.541 266.765 106.776 267.275 105.934 267.622C105.093 267.97 104.191 268.148 103.281 268.147ZM103.281 258.365C102.715 258.364 102.162 258.531 101.692 258.845C101.221 259.158 100.854 259.605 100.638 260.127C100.421 260.65 100.365 261.225 100.476 261.779C100.587 262.334 100.86 262.843 101.26 263.242C101.592 263.575 102.002 263.822 102.452 263.959C102.902 264.096 103.379 264.12 103.841 264.029C104.302 263.938 104.734 263.734 105.098 263.435C105.462 263.137 105.747 262.754 105.927 262.319C106.107 261.884 106.177 261.411 106.131 260.943C106.085 260.475 105.924 260.025 105.662 259.634C105.4 259.243 105.046 258.922 104.63 258.701C104.215 258.48 103.751 258.364 103.281 258.365ZM408.374 349.027C407.001 349.03 405.657 348.625 404.514 347.864C403.66 347.294 402.944 346.542 402.417 345.663C401.889 344.783 401.563 343.797 401.462 342.776C401.362 341.755 401.489 340.724 401.834 339.758C402.18 338.792 402.735 337.915 403.461 337.19C404.186 336.464 405.063 335.909 406.029 335.563C406.995 335.218 408.026 335.091 409.047 335.191C410.068 335.292 411.054 335.618 411.934 336.146C412.813 336.673 413.565 337.389 414.135 338.243C414.83 339.287 415.229 340.5 415.289 341.752C415.349 343.005 415.069 344.251 414.478 345.357C413.888 346.463 413.008 347.389 411.933 348.035C410.858 348.681 409.628 349.024 408.374 349.027ZM408.374 339.245C407.808 339.242 407.254 339.407 406.782 339.719C406.311 340.032 405.943 340.478 405.725 341C405.506 341.522 405.447 342.097 405.556 342.652C405.664 343.207 405.936 343.718 406.336 344.118C406.634 344.418 406.995 344.648 407.393 344.792C407.791 344.936 408.216 344.989 408.637 344.948C409.058 344.907 409.465 344.773 409.828 344.556C410.191 344.338 410.501 344.043 410.735 343.691C411.05 343.221 411.217 342.668 411.217 342.103C411.22 341.539 411.056 340.986 410.744 340.516C410.432 340.046 409.987 339.679 409.465 339.463C409.119 339.319 408.749 339.245 408.374 339.245ZM103.281 251.386C101.908 251.386 100.566 250.979 99.4241 250.216C98.2828 249.453 97.3936 248.368 96.8694 247.099C96.3008 245.724 96.1895 244.202 96.5518 242.759C96.9142 241.316 97.731 240.028 98.8817 239.084C100.032 238.141 101.456 237.592 102.942 237.52C104.428 237.447 105.899 237.855 107.136 238.682C108.373 239.509 109.311 240.712 109.812 242.113C110.313 243.514 110.35 245.039 109.918 246.463C109.486 247.887 108.608 249.134 107.412 250.02C106.217 250.907 104.769 251.385 103.281 251.386ZM103.281 241.604C102.715 241.603 102.162 241.77 101.692 242.084C101.221 242.397 100.854 242.844 100.638 243.366C100.421 243.889 100.365 244.463 100.476 245.018C100.587 245.573 100.86 246.082 101.26 246.481C101.66 246.879 102.169 247.149 102.723 247.258C103.276 247.367 103.85 247.31 104.371 247.094C104.893 246.878 105.338 246.513 105.652 246.044C105.967 245.576 106.135 245.025 106.137 244.46C106.137 244.085 106.063 243.714 105.92 243.367C105.776 243.02 105.566 242.705 105.301 242.44C105.035 242.175 104.721 241.965 104.374 241.821C104.027 241.678 103.656 241.604 103.281 241.604Z" fill="#213102"/>
<path d="M237.12 140.058H247.788V193.83H237.12V140.058ZM203.486 152.179L195.549 172.322H211.937L203.827 152.179H203.486ZM220.557 193.83L215.179 180.516H192.305L187.101 193.83H176.346L198.11 140.059H209.975L231.91 193.83H220.557Z" fill="#C5F526"/>
</g>
<defs>
<filter id="filter0_i_186_3521" x="160.461" y="112.17" width="110.279" height="110.279" filterUnits="userSpaceOnUse" color-interpolation-filters="sRGB">
<feFlood flood-opacity="0" result="BackgroundImageFix"/>
<feBlend mode="normal" in="SourceGraphic" in2="BackgroundImageFix" result="shape"/>
<feColorMatrix in="SourceAlpha" type="matrix" values="0 0 0 0 0 0 0 0 0 0 0 0 0 0 0 0 0 0 127 0" result="hardAlpha"/>
<feOffset/>
<feGaussianBlur stdDeviation="2"/>
<feComposite in2="hardAlpha" operator="arithmetic" k2="-1" k3="1"/>
<feColorMatrix type="matrix" values="0 0 0 0 0.234914 0 0 0 0 0.898693 0 0 0 0 0.934001 0 0 0 0.5 0"/>
<feBlend mode="normal" in2="shape" result="effect1_innerShadow_186_3521"/>
</filter>
<linearGradient id="paint0_linear_186_3521" x1="257" y1="0" x2="257" y2="442" gradientUnits="userSpaceOnUse">
<stop stop-color="#24251D"/>
<stop offset="1" stop-color="#171812"/>
</linearGradient>
<clipPath id="clip0_186_3521">
<rect width="326" height="326" fill="white" transform="translate(94 58)"/>
</clipPath>
</defs>
</svg>
