<svg width="357" height="315" viewBox="0 0 357 315" fill="none" xmlns="http://www.w3.org/2000/svg">
<rect x="0.5" y="0.5" width="356" height="314" rx="11.5" stroke="#FCFFE5"/>
<rect x="126" y="32" width="105" height="105" rx="52.5" fill="#C5F526"/>
<path d="M171.25 93.8824L161.868 84.4999L158.673 87.6724L171.25 100.25L198.25 73.2499L195.078 70.0774L171.25 93.8824Z" fill="black"/>
<path d="M124.633 176.152C128.185 176.152 130.617 174.2 130.937 171.384H134.073C133.881 175.896 129.849 179.16 124.441 179.16C118.713 179.16 114.169 174.68 114.169 168.44C114.169 162.2 118.713 157.72 124.409 157.72C129.753 157.72 133.881 161.016 134.073 165.496H130.937C130.489 162.648 128.121 160.728 124.537 160.728C120.537 160.728 117.273 163.96 117.273 168.408C117.273 172.888 120.505 176.152 124.633 176.152ZM134.904 171C134.904 166.2 138.584 162.808 143.096 162.808C147.512 162.808 151.192 166.2 151.192 171C151.192 175.768 147.512 179.16 143.096 179.16C138.584 179.16 134.904 175.768 134.904 171ZM137.88 170.936C137.88 174.04 140.152 176.28 143.128 176.28C145.944 176.28 148.216 173.976 148.216 170.936C148.216 167.8 145.752 165.688 143.128 165.688C140.152 165.688 137.88 167.928 137.88 170.936ZM152.435 179V163H155.091L155.155 164.056C155.251 165.08 155.187 166.008 154.995 166.936L155.187 167C156.147 164.504 158.483 162.84 161.171 162.84C164.723 162.84 167.155 165.624 167.155 169.944V179H164.243V170.616C164.243 167.512 162.611 165.624 160.083 165.624C158.099 165.624 156.435 166.84 155.379 168.824V179H152.435ZM168.639 182.04C168.639 179.992 170.335 178.808 172.255 178.808V178.648C171.167 178.36 170.399 177.848 170.399 176.856C170.399 175.352 171.999 175 173.183 175V174.84C170.623 174.616 169.023 171.832 169.023 169.464C169.023 165.464 171.871 162.84 176.287 162.84C178.239 162.84 180.703 162.84 182.687 162.84C183.615 162.84 184.703 162.904 184.703 162.904L184.575 164.856L184.351 164.984C184.351 164.984 183.647 164.76 182.943 164.632L180.383 164.216L180.319 164.376C182.271 165.144 183.423 166.968 183.423 169.272C183.423 172.728 180.191 175.576 176.063 175.576C175.263 175.576 174.495 175.512 173.855 175.352C173.535 175.576 173.375 175.832 173.311 176.12C174.463 177.56 184.447 175.32 184.447 181.304C184.447 184.504 181.279 186.584 176.415 186.584C171.263 186.584 168.639 184.696 168.639 182.04ZM171.967 169.368C171.967 171.576 173.791 173.08 176.287 173.08C178.623 173.08 180.479 171.48 180.479 169.368C180.479 167.192 179.039 165.56 176.159 165.56C173.535 165.56 171.967 167.128 171.967 169.368ZM181.471 181.304C181.471 178.648 176.863 179.192 173.599 178.84C172.255 179.256 171.391 180.344 171.391 181.496C171.391 182.968 173.439 183.992 176.415 183.992C179.295 183.992 181.471 182.84 181.471 181.304ZM186.499 179V163H189.155L189.219 164.152C189.283 165.144 189.283 165.752 189.187 166.68L189.315 166.712C190.307 164.248 191.907 162.84 194.659 162.84C195.395 162.84 196.163 163.032 196.611 163.256V166.392H196.515C195.811 165.976 195.075 165.784 194.147 165.784C191.971 165.784 190.179 167.224 189.443 169.56V179H186.499ZM196.938 173.816C196.938 170.552 199.466 168.344 202.858 168.344C204.298 168.344 205.482 168.664 206.314 169.272C206.858 169.624 207.306 170.168 207.658 170.84L207.786 170.776C207.594 170.136 207.498 169.944 207.498 169.144V169.048C207.498 166.36 206.314 165.048 203.914 165.048C201.866 165.048 200.426 166.104 200.426 167.768H197.706C197.706 164.792 199.978 162.84 203.978 162.84C208.138 162.84 210.41 165.24 210.41 169.624V172.312C210.41 176.184 210.73 178.072 210.986 179H208.01L207.818 178.072C207.722 177.432 207.69 176.888 207.914 176.088L207.754 176.024C206.89 178.232 204.778 179.16 202.506 179.16C199.21 179.16 196.938 177.016 196.938 173.816ZM199.946 173.688C199.946 175.832 201.418 177.208 203.53 177.208C205.866 177.208 207.53 175.864 207.53 173.752C207.53 171.64 205.93 170.232 203.658 170.232C201.482 170.232 199.946 171.672 199.946 173.688ZM213.474 174.296V165.656H211.906V163H213.506L213.922 159.416H216.418V160.6C216.418 162.552 216.258 163.096 215.682 163.832L215.81 163.928C216.546 163.224 217.058 163 218.338 163H219.81V165.656H216.418V173.752C216.418 175.576 217.282 176.44 219.106 176.44H220.386V179.16H218.658C215.17 179.16 213.474 177.592 213.474 174.296ZM221.689 173.56H224.697C224.761 175.64 226.329 176.952 228.473 176.952C230.393 176.952 231.833 175.992 231.833 174.68C231.833 171.032 221.849 173.176 221.849 167.416C221.849 164.536 224.569 162.84 228.025 162.84C231.705 162.84 234.361 164.824 234.457 167.96H231.481C231.449 166.232 229.945 165.048 228.089 165.048C226.169 165.048 224.857 165.976 224.857 167.352C224.857 170.904 234.873 168.664 234.873 174.648C234.873 177.304 232.217 179.16 228.409 179.16C224.473 179.16 221.625 176.952 221.689 173.56ZM240.094 172.568H238.27L237.47 156.152H240.894L240.094 172.568ZM237.182 177.272C237.182 176.483 237.374 175.928 237.758 175.608C238.142 175.288 238.611 175.128 239.166 175.128C239.699 175.128 240.158 175.288 240.542 175.608C240.947 175.928 241.15 176.483 241.15 177.272C241.15 178.04 240.947 178.595 240.542 178.936C240.158 179.277 239.699 179.448 239.166 179.448C238.611 179.448 238.142 179.277 237.758 178.936C237.374 178.595 237.182 178.04 237.182 177.272ZM92.9895 211V203.128L86.2375 189.88H89.6615L93.5335 197.304C94.1415 198.552 94.3975 199.864 94.3975 201.464H94.5895C94.5895 199.928 94.8775 198.456 95.4215 197.304L99.3255 189.88H102.718L95.9975 203.128V211H92.9895ZM101.105 203C101.105 198.2 104.785 194.808 109.297 194.808C113.713 194.808 117.393 198.2 117.393 203C117.393 207.768 113.713 211.16 109.297 211.16C104.785 211.16 101.105 207.768 101.105 203ZM104.081 202.936C104.081 206.04 106.353 208.28 109.329 208.28C112.145 208.28 114.417 205.976 114.417 202.936C114.417 199.8 111.953 197.688 109.329 197.688C106.353 197.688 104.081 199.928 104.081 202.936ZM118.575 204.024V195H121.519V203.448C121.519 206.776 122.831 208.376 125.551 208.376C127.567 208.376 129.231 207.128 130.415 204.888V195H133.359V211H130.703L130.607 209.72C130.543 208.632 130.671 208.024 130.863 207.352L130.671 207.256C129.327 209.752 127.247 211.16 124.335 211.16C120.687 211.16 118.575 208.696 118.575 204.024ZM139.214 188.504C139.022 189.251 138.776 190.061 138.478 190.936C138.179 191.811 137.848 192.685 137.486 193.56C137.144 194.413 136.803 195.224 136.462 195.992H134.382C134.531 195.395 134.68 194.755 134.83 194.072C135 193.389 135.15 192.707 135.278 192.024C135.427 191.32 135.555 190.637 135.662 189.976C135.79 189.315 135.896 188.707 135.982 188.152H138.99L139.214 188.504ZM140.231 211V195H142.887L142.951 196.152C143.015 197.144 143.015 197.752 142.919 198.68L143.047 198.712C144.039 196.248 145.639 194.84 148.391 194.84C149.127 194.84 149.895 195.032 150.343 195.256V198.392H150.247C149.543 197.976 148.807 197.784 147.879 197.784C145.703 197.784 143.911 199.224 143.175 201.56V211H140.231ZM150.451 203.064C150.451 198.168 153.971 194.808 158.547 194.808C162.899 194.808 166.323 197.912 166.323 202.808V203.864H153.395C153.747 206.648 155.795 208.568 158.707 208.568C161.459 208.568 163.155 206.712 163.411 205.112H166.291C165.747 208.568 162.707 211.16 158.579 211.16C154.003 211.16 150.451 207.832 150.451 203.064ZM158.483 197.4C155.763 197.4 153.811 199.224 153.427 201.912H163.379C163.091 199.128 161.235 197.4 158.483 197.4ZM179.866 211L173.53 195H176.666L179.962 203.608C180.538 205.016 180.666 206.36 180.89 208.088H181.082C181.306 206.36 181.434 205.016 182.01 203.608L185.338 195H188.474L182.074 211H179.866ZM188.188 203.064C188.188 198.168 191.708 194.808 196.284 194.808C200.636 194.808 204.06 197.912 204.06 202.808V203.864H191.132C191.484 206.648 193.532 208.568 196.444 208.568C199.196 208.568 200.892 206.712 201.148 205.112H204.028C203.484 208.568 200.444 211.16 196.316 211.16C191.74 211.16 188.188 207.832 188.188 203.064ZM196.22 197.4C193.5 197.4 191.548 199.224 191.164 201.912H201.116C200.828 199.128 198.972 197.4 196.22 197.4ZM205.438 211V195H208.094L208.158 196.152C208.222 197.144 208.222 197.752 208.126 198.68L208.254 198.712C209.246 196.248 210.846 194.84 213.598 194.84C214.334 194.84 215.102 195.032 215.55 195.256V198.392H215.454C214.75 197.976 214.014 197.784 213.086 197.784C210.91 197.784 209.118 199.224 208.382 201.56V211H205.438ZM217.117 211V195H220.093V211H217.117ZM216.829 191.352C216.829 190.328 217.565 189.592 218.653 189.592C219.709 189.592 220.413 190.328 220.413 191.352C220.413 192.408 219.709 193.176 218.653 193.176C217.565 193.176 216.829 192.408 216.829 191.352ZM223.473 211V197.656H222.033V195H222.513C223.281 195 223.825 195.448 224.657 196.12L224.753 195.992C223.921 195.128 223.665 194.648 223.665 193.176C223.665 189.88 225.297 188.376 229.553 188.376H231.249V191.032H229.649C227.217 191.032 226.417 191.768 226.417 194.2V195H230.769V197.656H226.417V211H223.473ZM233.462 211V195H236.438V211H233.462ZM233.174 191.352C233.174 190.328 233.91 189.592 234.998 189.592C236.054 189.592 236.758 190.328 236.758 191.352C236.758 192.408 236.054 193.176 234.998 193.176C233.91 193.176 233.174 192.408 233.174 191.352ZM237.925 203.064C237.925 198.168 241.445 194.808 246.021 194.808C250.373 194.808 253.797 197.912 253.797 202.808V203.864H240.869C241.221 206.648 243.269 208.568 246.181 208.568C248.933 208.568 250.629 206.712 250.885 205.112H253.765C253.221 208.568 250.181 211.16 246.053 211.16C241.477 211.16 237.925 207.832 237.925 203.064ZM245.957 197.4C243.237 197.4 241.285 199.224 240.901 201.912H250.853C250.565 199.128 248.709 197.4 245.957 197.4ZM254.535 203.064C254.535 198.104 257.415 194.84 261.639 194.84C263.175 194.84 264.487 195.32 265.447 196.184C266.055 196.792 266.535 197.592 266.887 198.552L267.047 198.488C266.887 197.048 266.887 195.928 266.887 194.328V189.4H269.799V211H267.015V209.656C267.015 208.792 267.047 207.992 267.175 207.384L267.015 207.32C266.279 209.848 263.911 211.192 261.351 211.192C257.319 211.192 254.535 207.992 254.535 203.064ZM257.511 203.032C257.511 206.2 259.495 208.312 262.343 208.312C265.031 208.312 266.887 206.36 266.887 203.032C266.887 199.448 265.191 197.72 262.343 197.72C259.559 197.72 257.511 199.896 257.511 203.032Z" fill="#F8F8F5"/>
<rect width="149" height="50" transform="translate(104 233)" fill="#D8FE53"/>
<path d="M142.18 264L146.5 252.12H148.516L153.034 264H150.874L150.064 261.894H145.114L144.34 264H142.18ZM145.816 259.878H149.29L148.156 256.818C147.796 255.756 147.598 254.784 147.598 254.208H147.508C147.508 254.784 147.31 255.756 146.95 256.8L145.816 259.878ZM153.935 264V255H155.753L155.843 255.72C155.897 256.278 155.825 256.71 155.753 257.196L155.843 257.232C156.221 255.846 157.409 254.91 158.849 254.91C160.379 254.91 161.495 255.648 161.675 257.196H161.765C162.071 255.72 163.259 254.91 164.771 254.91C166.841 254.91 168.119 256.404 168.119 258.834V264H166.103V259.302C166.103 257.772 165.347 256.854 164.141 256.854C162.899 256.854 162.125 257.682 162.125 258.996V264H160.109V259.248C160.109 257.718 159.407 256.854 158.147 256.854C157.211 256.854 156.473 257.394 155.951 258.384V264H153.935ZM169.272 261.102C169.272 259.266 170.694 258.024 172.584 258.024C173.718 258.024 174.546 258.366 175.122 259.356L175.194 259.32C175.086 258.978 175.032 258.87 175.032 258.402V258.366C175.032 257.052 174.456 256.404 173.286 256.404C172.296 256.404 171.594 256.908 171.594 257.718H169.722C169.722 256.008 171 254.91 173.322 254.91C175.716 254.91 177.048 256.26 177.048 258.762V260.238C177.048 262.38 177.21 263.478 177.354 264H175.32L175.23 263.496C175.176 263.136 175.176 262.83 175.284 262.416L175.194 262.362C174.708 263.604 173.61 264.09 172.332 264.09C170.532 264.09 169.272 262.884 169.272 261.102ZM171.324 261.03C171.324 262.092 172.08 262.794 173.106 262.794C174.222 262.794 175.05 262.11 175.05 261.048C175.05 259.986 174.258 259.284 173.16 259.284C172.098 259.284 171.324 260.004 171.324 261.03ZM178.79 264V262.218L182.84 256.89H178.934V255H185.216V256.782L181.166 262.11H185.414V264H178.79ZM187.021 264V255H189.037V264H187.021ZM186.859 252.93C186.859 252.228 187.345 251.742 188.047 251.742C188.767 251.742 189.217 252.228 189.217 252.93C189.217 253.614 188.767 254.118 188.047 254.118C187.345 254.118 186.859 253.614 186.859 252.93ZM190.603 264V255H192.421L192.457 255.54C192.529 256.134 192.511 256.692 192.385 257.196L192.493 257.214C193.033 255.864 194.347 254.91 195.823 254.91C197.839 254.91 199.225 256.512 199.225 259.032V264H197.191V259.5C197.191 257.844 196.363 256.854 195.031 256.854C194.023 256.854 193.177 257.448 192.619 258.42V264H190.603ZM200.376 265.764C200.376 264.558 201.366 264.072 202.428 264.072V263.946C201.726 263.802 201.24 263.496 201.24 262.848C201.24 262.524 201.42 262.2 201.726 262.02C201.996 261.84 202.446 261.768 202.932 261.75V261.66C201.492 261.534 200.556 259.968 200.556 258.636C200.556 256.386 202.194 254.91 204.714 254.91C205.902 254.91 207.054 254.91 208.278 254.91C208.782 254.91 209.538 254.946 209.538 254.946L209.448 256.224L209.322 256.296C209.322 256.296 208.872 256.116 208.476 256.026L207.108 255.792L207.072 255.864C208.134 256.278 208.764 257.286 208.764 258.546C208.764 260.49 206.91 262.074 204.534 262.074C204.156 262.074 203.778 262.038 203.454 261.984C203.346 262.092 203.274 262.2 203.238 262.326C204.12 262.974 209.232 262.002 209.232 265.296C209.232 267.132 207.45 268.338 204.732 268.338C201.834 268.338 200.376 267.204 200.376 265.764ZM202.608 258.582C202.608 259.644 203.49 260.364 204.696 260.364C205.812 260.364 206.73 259.608 206.73 258.582C206.73 257.556 206.046 256.764 204.624 256.764C203.364 256.764 202.608 257.52 202.608 258.582ZM207.216 265.278C207.216 264.036 205.02 264.234 203.292 264.072C202.662 264.288 202.248 264.792 202.248 265.332C202.248 266.07 203.274 266.574 204.732 266.574C206.154 266.574 207.216 266.016 207.216 265.278ZM212.979 260.382H211.953L211.503 251.148H213.429L212.979 260.382ZM211.341 263.028C211.341 262.584 211.449 262.272 211.665 262.092C211.881 261.912 212.145 261.822 212.457 261.822C212.757 261.822 213.015 261.912 213.231 262.092C213.459 262.272 213.573 262.584 213.573 263.028C213.573 263.46 213.459 263.772 213.231 263.964C213.015 264.156 212.757 264.252 212.457 264.252C212.145 264.252 211.881 264.156 211.665 263.964C211.449 263.772 211.341 263.46 211.341 263.028Z" fill="#171812"/>
<path d="M116 283L104 271L104 283L116 283Z" fill="#171812"/>
<path d="M241 233L253 245L253 233L241 233Z" fill="#171812"/>
</svg>
