<svg width="24" height="24" viewBox="0 0 24 24" fill="none" xmlns="http://www.w3.org/2000/svg">
<path d="M17.2062 5.71997C17.2302 5.29497 17.2882 5.01497 17.4042 4.75797C17.4502 4.65697 17.4942 4.57397 17.5002 4.57397C17.4936 4.63113 17.4788 4.68704 17.4562 4.73997C17.3712 4.98897 17.3572 5.32997 17.4162 5.72497C17.4892 6.22697 17.5312 6.29997 18.0642 6.84197C18.3142 7.09697 18.6042 7.41697 18.7102 7.55497L18.9012 7.80497L18.7102 7.62697C18.4762 7.40697 17.9372 6.98097 17.8182 6.91997C17.7382 6.87897 17.7262 6.87997 17.6772 6.92797C17.6322 6.97297 17.6222 7.04097 17.6162 7.35997C17.6062 7.85797 17.5382 8.17797 17.3742 8.49797C17.2842 8.66997 17.2702 8.63397 17.3512 8.43797C17.4112 8.29297 17.4172 8.22797 17.4172 7.74697C17.4162 6.77798 17.3002 6.54497 16.6242 6.14697C16.4205 6.02813 16.2109 5.91966 15.9962 5.82197C15.8905 5.77966 15.7879 5.72986 15.6892 5.67297C15.7092 5.65397 16.3692 5.84597 16.6342 5.94797C17.0292 6.09897 17.0942 6.11897 17.1422 6.10097C17.1742 6.08797 17.1902 5.99497 17.2062 5.72097" fill="#F50DB4"/>
<path d="M8.85714 4.31191C8.62214 4.27491 8.61214 4.27191 8.72314 4.25391C8.93414 4.22191 9.43314 4.26591 9.77714 4.34691C10.5801 4.53691 11.3111 5.02391 12.0911 5.88691L12.2981 6.11691L12.5951 6.06891C13.8441 5.86891 15.1141 6.02891 16.1771 6.51691C16.4691 6.65091 16.9301 6.91791 16.9871 6.98691C17.0061 7.00891 17.0401 7.14991 17.0621 7.29991C17.1421 7.81991 17.1021 8.21991 16.9421 8.51691C16.8551 8.67991 16.8501 8.73091 16.9081 8.86991C16.9551 8.97991 17.0851 9.06191 17.2141 9.06191C17.4781 9.06191 17.7631 8.63691 17.8941 8.04691L17.9471 7.81191L18.0501 7.92891C18.6191 8.56891 19.0651 9.44291 19.1421 10.0649L19.1621 10.2269L19.0661 10.0789C18.9297 9.8533 18.7453 9.66042 18.5261 9.51391C18.1441 9.26291 17.7401 9.17691 16.6721 9.12091C15.7081 9.07091 15.1621 8.98891 14.6211 8.81291C13.7001 8.51491 13.2351 8.11691 12.1411 6.68891C11.6551 6.05491 11.3551 5.70391 11.0561 5.42191C10.3781 4.77991 9.71014 4.44291 8.85614 4.31191M9.31214 7.38191C8.83614 6.73091 8.54214 5.73191 8.60514 4.98491L8.62514 4.75291L8.73314 4.77291C8.93714 4.80991 9.28814 4.93991 9.45214 5.03891C9.90214 5.31091 10.0981 5.66891 10.2961 6.58991C10.3541 6.85991 10.4311 7.16491 10.4661 7.26791C10.5221 7.43391 10.7361 7.82291 10.9091 8.07491C11.0341 8.25591 10.9511 8.34291 10.6751 8.31791C10.2531 8.27991 9.68114 7.88791 9.31214 7.38191ZM16.6281 12.2319C14.4041 11.3419 13.6201 10.5679 13.6201 9.26391C13.6201 9.07191 13.6271 8.91391 13.6351 8.91391C13.6431 8.91391 13.7291 8.97791 13.8261 9.05591C14.2771 9.41591 14.7821 9.56891 16.1801 9.77191C17.0031 9.89191 17.4661 9.98791 17.8931 10.1289C19.2511 10.5759 20.0901 11.4849 20.2911 12.7229C20.3491 13.0829 20.3151 13.7569 20.2211 14.1119C20.1461 14.3919 19.9191 14.8989 19.8581 14.9179C19.8421 14.9239 19.8251 14.8599 19.8211 14.7729C19.7981 14.3079 19.5621 13.8559 19.1661 13.5169C18.7151 13.1319 18.1091 12.8249 16.6281 12.2319ZM15.0671 12.6019C15.0405 12.4439 15.0045 12.2876 14.9591 12.1339L14.9021 11.9659L15.0081 12.0829C15.1541 12.2459 15.2681 12.4539 15.3671 12.7319C15.4411 12.9439 15.4491 13.0069 15.4491 13.3509C15.4491 13.6889 15.4391 13.7599 15.3701 13.9509C15.2621 14.2509 15.1271 14.4639 14.9001 14.6929C14.4951 15.1039 13.9721 15.3319 13.2191 15.4259C13.0881 15.4429 12.7061 15.4699 12.3701 15.4879C11.5241 15.5309 10.9671 15.6219 10.4671 15.7969C10.422 15.817 10.3735 15.8285 10.3241 15.8309C10.3041 15.8109 10.6441 15.6089 10.9261 15.4739C11.3231 15.2839 11.7181 15.1799 12.6021 15.0339C13.0401 14.9609 13.4911 14.8739 13.6061 14.8379C14.6881 14.5079 15.2451 13.6559 15.0661 12.6019" fill="#F50DB4"/>
<path d="M16.0861 14.4029C15.7911 13.7709 15.7231 13.1609 15.8851 12.5919C15.9021 12.5319 15.9301 12.4819 15.9461 12.4819C16.0015 12.5018 16.0538 12.5298 16.1011 12.5649C16.2381 12.6559 16.5111 12.8099 17.2381 13.2039C18.1461 13.6959 18.6641 14.0779 19.0161 14.5139C19.3241 14.8939 19.5151 15.3289 19.6061 15.8589C19.6591 16.1589 19.6281 16.8809 19.5511 17.1829C19.3071 18.1359 18.7391 18.8839 17.9311 19.3209C17.8547 19.3648 17.7755 19.4035 17.6941 19.4369C17.6821 19.4369 17.7251 19.3279 17.7901 19.1949C18.0621 18.6289 18.0931 18.0779 17.8871 17.4649C17.7611 17.0899 17.5041 16.6329 16.9851 15.8589C16.3821 14.9589 16.2351 14.7189 16.0861 14.4029ZM7.73306 17.8109C8.55806 17.1179 9.58506 16.6259 10.5201 16.4749C10.9231 16.4099 11.5951 16.4349 11.9681 16.5299C12.5661 16.6829 13.1021 17.0239 13.3801 17.4299C13.6521 17.8279 13.7691 18.1739 13.8901 18.9439C13.9381 19.2479 13.9901 19.5529 14.0061 19.6219C14.0971 20.0209 14.2751 20.3399 14.4961 20.4999C14.8451 20.7549 15.4461 20.7699 16.0381 20.5399C16.0999 20.5118 16.1651 20.4916 16.2321 20.4799C16.2541 20.5019 15.9561 20.6999 15.7451 20.8049C15.4621 20.9449 15.2371 20.9999 14.9381 20.9999C14.3961 20.9999 13.9461 20.7259 13.5701 20.1659C13.4961 20.0559 13.3301 19.7259 13.2001 19.4329C12.8041 18.5329 12.6091 18.2599 12.1481 17.9599C11.7481 17.6989 11.2301 17.6519 10.8421 17.8409C10.3311 18.0909 10.1881 18.7399 10.5541 19.1509C10.6991 19.3149 10.9701 19.4559 11.1921 19.4829C11.2886 19.496 11.3868 19.4881 11.4801 19.4599C11.5733 19.4317 11.6594 19.3838 11.7325 19.3194C11.8056 19.255 11.864 19.1756 11.9038 19.0867C11.9436 18.9978 11.9638 18.9014 11.9631 18.8039C11.9631 18.5339 11.8591 18.3789 11.5961 18.2609C11.2361 18.0999 10.8501 18.2879 10.8521 18.6239C10.8521 18.7669 10.9161 18.8569 11.0601 18.9219C11.1521 18.9639 11.1551 18.9669 11.0801 18.9519C10.7501 18.8839 10.6721 18.4879 10.9371 18.2259C11.2561 17.9109 11.9141 18.0499 12.1401 18.4799C12.2351 18.6599 12.2461 19.0199 12.1631 19.2369C11.9781 19.7239 11.4371 19.9789 10.8891 19.8399C10.5161 19.7449 10.3651 19.6429 9.91506 19.1819C9.13306 18.3819 8.83006 18.2259 7.70306 18.0519L7.48706 18.0179L7.73306 17.8109Z" fill="#F50DB4"/>
<path fill-rule="evenodd" clip-rule="evenodd" d="M4.06511 3.479C6.67511 6.629 8.47311 7.929 8.67311 8.205C8.83811 8.431 8.77611 8.635 8.49311 8.795C8.33611 8.884 8.01311 8.974 7.85111 8.974C7.66811 8.974 7.60511 8.904 7.60511 8.904C7.49911 8.804 7.44011 8.821 6.89511 7.859C6.43167 7.13838 5.96266 6.42136 5.48811 5.708C5.44811 5.67 5.44911 5.671 6.81811 8.107C7.03811 8.615 6.86211 8.801 6.86211 8.873C6.86211 9.02 6.82211 9.098 6.63911 9.3C6.33511 9.638 6.19911 10.017 6.10111 10.801C5.99111 11.681 5.68111 12.302 4.82411 13.366C4.32211 13.988 4.24011 14.102 4.11411 14.353C3.95411 14.669 3.91011 14.846 3.89211 15.245C3.87311 15.667 3.91011 15.94 4.04011 16.343C4.15311 16.696 4.27111 16.929 4.57411 17.395C4.83511 17.798 4.98611 18.097 4.98611 18.214C4.98611 18.307 5.00411 18.307 5.40911 18.216C6.37711 17.999 7.16411 17.616 7.60611 17.147C7.88011 16.857 7.94411 16.697 7.94611 16.299C7.94811 16.039 7.93911 15.984 7.86811 15.834C7.75311 15.591 7.54311 15.388 7.08111 15.074C6.47611 14.663 6.21811 14.331 6.14611 13.876C6.08811 13.502 6.15611 13.238 6.49111 12.54C6.83711 11.818 6.92311 11.51 6.98111 10.782C7.01911 10.312 7.07111 10.126 7.20611 9.977C7.34811 9.822 7.47611 9.769 7.82611 9.722C8.39811 9.644 8.76211 9.497 9.06211 9.222C9.32211 8.985 9.43011 8.755 9.44711 8.41L9.45911 8.149L9.31411 7.98C8.79011 7.371 3.71411 3 3.68111 3C3.67411 3 3.84711 3.216 4.06511 3.479ZM5.28111 15.723C5.33875 15.6221 5.35605 15.5031 5.32952 15.3899C5.30299 15.2767 5.23461 15.1778 5.13811 15.113C4.95011 14.989 4.65811 15.047 4.65811 15.209C4.65811 15.259 4.68611 15.294 4.74811 15.326C4.85211 15.379 4.85911 15.439 4.77811 15.562C4.69411 15.686 4.70111 15.795 4.79611 15.869C4.95011 15.989 5.16711 15.923 5.28111 15.723ZM9.82011 9.859C9.55211 9.941 9.29011 10.224 9.21011 10.521C9.16011 10.701 9.18911 11.019 9.26311 11.117C9.38211 11.276 9.49711 11.317 9.80911 11.315C10.4211 11.311 10.9521 11.05 11.0141 10.725C11.0641 10.457 10.8311 10.087 10.5101 9.924C10.3441 9.84 9.99011 9.807 9.82011 9.859ZM10.5351 10.415C10.6291 10.282 10.5881 10.138 10.4281 10.04C10.1221 9.855 9.66011 10.008 9.66011 10.295C9.66011 10.438 9.90111 10.594 10.1221 10.594C10.2691 10.594 10.4701 10.507 10.5351 10.414" fill="#F50DB4"/>
</svg>
