<svg width="122" height="120" viewBox="0 0 122 120" fill="none" xmlns="http://www.w3.org/2000/svg">
<rect width="120" height="120" transform="translate(1)" fill="#171812"/>
<path fill-rule="evenodd" clip-rule="evenodd" d="M59.6668 36C62.2885 35.9993 64.8382 36.8572 66.9263 38.4425C69.0143 40.0278 70.5257 42.2532 71.2295 44.7787L71.3682 45.3253L76.3548 44.08C76.7193 43.9893 77.0988 43.9766 77.4686 44.0427C77.8383 44.1089 78.1899 44.2524 78.5003 44.4639C78.8107 44.6753 79.073 44.95 79.2699 45.2699C79.4668 45.5897 79.5938 45.9476 79.6428 46.32L79.6668 46.6667V51.4933C81.171 52.9341 82.4031 54.6342 83.3042 56.512L83.6722 57.3333H85.0002C85.6533 57.3334 86.2837 57.5732 86.7718 58.0072C87.2599 58.4413 87.5717 59.0393 87.6482 59.688L87.6668 60V68C87.6669 68.4389 87.5586 68.8711 87.3516 69.2581C87.1446 69.6451 86.8453 69.9751 86.4802 70.2187L86.1922 70.384L83.0775 71.944C81.8046 74.4124 79.9572 76.5387 77.6908 78.144L77.0002 78.608V81.3333C77.0001 81.9865 76.7603 82.6169 76.3263 83.105C75.8922 83.5931 75.2942 83.9049 74.6455 83.9813L74.3335 84H66.3335C65.6803 83.9999 65.0499 83.7601 64.5618 83.3261C64.0737 82.8921 63.7619 82.294 63.6855 81.6453L63.6668 81.3333H61.0002C61.0001 81.9865 60.7603 82.6169 60.3263 83.105C59.8922 83.5931 59.2942 83.9049 58.6455 83.9813L58.3335 84H50.3335C49.6803 83.9999 49.0499 83.7601 48.5618 83.3261C48.0737 82.8921 47.7619 82.294 47.6855 81.6453L47.6668 81.3333V78.608C45.7396 77.3773 44.0749 75.7774 42.7688 73.9005C41.4626 72.0236 40.5407 69.9068 40.0562 67.672C38.4833 67.2047 37.0922 66.265 36.0714 64.9804C35.0506 63.6958 34.4494 62.1284 34.3495 60.4907L34.3335 60V58.6667C34.3342 57.987 34.5945 57.3332 35.0611 56.839C35.5277 56.3448 36.1654 56.0474 36.8439 56.0075C37.5224 55.9677 38.1905 56.1885 38.7117 56.6247C39.2329 57.0609 39.5679 57.6797 39.6482 58.3547L39.6668 58.6667V60C39.6704 60.3982 39.7504 60.7671 39.9068 61.1067C40.3132 58.7057 41.2209 56.4173 42.5709 54.3906C43.9208 52.3638 45.6826 50.6443 47.7415 49.344C47.5523 47.6653 47.7197 45.9656 48.2327 44.356C48.7457 42.7464 49.5927 41.2633 50.7184 40.0037C51.8441 38.7441 53.2231 37.7363 54.7651 37.0464C56.3072 36.3565 57.9775 35.9999 59.6668 36ZM71.6668 57.3333C70.9596 57.3333 70.2813 57.6143 69.7812 58.1144C69.2811 58.6145 69.0002 59.2928 69.0002 60C69.0002 60.7072 69.2811 61.3855 69.7812 61.8856C70.2813 62.3857 70.9596 62.6667 71.6668 62.6667C72.3741 62.6667 73.0524 62.3857 73.5524 61.8856C74.0525 61.3855 74.3335 60.7072 74.3335 60C74.3335 59.2928 74.0525 58.6145 73.5524 58.1144C73.0524 57.6143 72.3741 57.3333 71.6668 57.3333ZM59.6668 41.3333C58.0516 41.3333 56.4913 41.9197 55.2759 42.9836C54.0605 44.0474 53.2727 45.5163 53.0588 47.1173C54.351 46.8168 55.6735 46.6656 57.0002 46.6667H66.0055L66.1922 46.6213C65.8759 45.1252 65.055 43.7833 63.8669 42.8205C62.6789 41.8578 61.196 41.3327 59.6668 41.3333Z" fill="#D8FE53"/>
<path d="M22.3999 120L0.399904 98L0.399902 120L22.3999 120Z" fill="#D8FE53"/>
<path d="M99.3999 0L121.4 22L121.4 -3.8466e-06L99.3999 0Z" fill="#D8FE53"/>
</svg>
